{
.appVersion = "1161";
classes = (
{
automatic = 1;

glyphs = (
{
glyphname = A;
layers = (
{
anchors = (
{
name = bottom;
position = "{274, 0}";
},
{
name = ogonek;
position = "{548, 0}";
},
{
name = top;
position = "{273, 686}";
}
);
background = {
paths = (
{
closed = 1;
nodes = (
"330 686 LINE",
"217 686 LINE",
"-1 0 LINE",
"87 0 LINE",
"133 151 LINE",
"406 151 LINE",
"453 0 LINE",
"548 0 LINE"
);
},
{
closed = 1;
nodes = (
"272 614 LINE",
"272 614 OFFCURVE",
"281 561 OFFCURVE",
"288 538 CURVE SMOOTH",
"381 235 LINE",
"159 235 LINE",
"252 538 LINE SMOOTH",
"259 560 OFFCURVE",
"268 614 OFFCURVE",
"268 614 CURVE"
);
}
);
};
layerId = UUID0;
paths = (
{
closed = 1;
nodes = (
"87 0 LINE",
"134 153 LINE",
"406 153 LINE",
"453 0 LINE",
"548 0 LINE",
"330 686 LINE",
"217 686 LINE",
"-1 0 LINE"
);
},
{
closed = 1;
nodes = (
"252 538 LINE",
"259 560 OFFCURVE",
"268 614 OFFCURVE",
"268 614 CURVE",
"272 614 LINE",
"272 614 OFFCURVE",
"281 561 OFFCURVE",
"288 538 CURVE SMOOTH",
"381 233 LINE",
"158 233 LINE"
);
}
);
width = 547;
},
{
anchors = (
{
name = bottom;
position = "{296, 0}";
},
{
name = ogonek;
position = "{591, 0}";
},
{
name = top;
position = "{296, 686}";
}
);
layerId = "31F25340-C351-400F-9C98-C04A412D1947";
paths = (
{
closed = 1;
nodes = (
"124 0 LINE",
"165 135 LINE",
"418 135 LINE",
"460 0 LINE",
"591 0 LINE",
"370 686 LINE",
"221 686 LINE",
"0 0 LINE"
);
},
{
closed = 1;
nodes = (
"270 478 LINE SMOOTH",
"280 510 OFFCURVE",
"290 571 OFFCURVE",
"290 571 CURVE",
"294 571 LINE",
"294 571 OFFCURVE",
"303 514 OFFCURVE",
"314 478 CURVE SMOOTH",
"383 249 LINE",
"200 249 LINE"
);
}
);
width = 592;
}
);
leftKerningGroup = A;
rightKerningGroup = A;
unicode = 0041;
},
{
glyphname = Aacute;
layers = (
{
background = {
paths = (
{
closed = 1;
nodes = (
"87 0 LINE",
"134 153 LINE",
"406 153 LINE",
"453 0 LINE",
"548 0 LINE",
"330 686 LINE",
"217 686 LINE",
"-1 0 LINE"
);
},
{
closed = 1;
nodes = (
"252 538 LINE SMOOTH",
"259 560 OFFCURVE",
"268 614 OFFCURVE",
"268 614 CURVE",
"272 614 LINE",
"272 614 OFFCURVE",
"281 561 OFFCURVE",
"288 538 CURVE SMOOTH",
"381 233 LINE",
"158 233 LINE"
);
},
{
closed = 1;
nodes = (
"283 751 LINE",
"391 880 LINE",
"390 883 LINE",
"300 883 LINE",
"214 751 LINE"
);
}
);
};
components = (
{
name = A;
},
{
name = acutecomb.case;
transform = "{1, 0, 0, 1, 205, 160}";
}
);
layerId = UUID0;
width = 547;
},
{
background = {
paths = (
{
closed = 1;
nodes = (
"124 0 LINE",
"165 135 LINE",
"418 135 LINE",
"460 0 LINE",
"591 0 LINE",
"370 686 LINE",
"221 686 LINE",
"0 0 LINE"
);
},
{
closed = 1;
nodes = (
"270 478 LINE SMOOTH",
"280 510 OFFCURVE",
"290 571 OFFCURVE",
"290 571 CURVE",
"294 571 LINE",
"294 571 OFFCURVE",
"303 514 OFFCURVE",
"314 478 CURVE SMOOTH",
"383 249 LINE",
"200 249 LINE"
);
},
{
closed = 1;
nodes = (
"326 751 LINE",
"434 880 LINE",
"433 883 LINE",
"313 883 LINE",
"227 751 LINE"
);
}
);
};
components = (
{
name = A;
},
{
name = acutecomb.case;
transform = "{1, 0, 0, 1, 222, 160}";
}
);
layerId = "31F25340-C351-400F-9C98-C04A412D1947";
width = 592;
}
);
leftKerningGroup = A;
rightKerningGroup = A;
unicode = 00C1;
},
{
glyphname = Abreve;
layers = (
{
background = {
paths = (
{
closed = 1;
nodes = (
"87 0 LINE",
"134 153 LINE",
"406 153 LINE",
"453 0 LINE",
"548 0 LINE",
"330 686 LINE",
"217 686 LINE",
"-1 0 LINE"
);
},
{
closed = 1;
nodes = (
"252 538 LINE SMOOTH",
"259 560 OFFCURVE",
"268 614 OFFCURVE",
"268 614 CURVE",
"272 614 LINE",
"272 614 OFFCURVE",
"281 561 OFFCURVE",
"288 538 CURVE SMOOTH",
"381 233 LINE",
"158 233 LINE"
);
},
{
closed = 1;
nodes = (
"350 786 OFFCURVE",
"397 838 OFFCURVE",
"397 883 CURVE",
"333 883 LINE",
"332 869 OFFCURVE",
"307 850 OFFCURVE",
"273 850 CURVE SMOOTH",
"240 850 OFFCURVE",
"217 869 OFFCURVE",
"214 883 CURVE",
"150 883 LINE",
"150 838 OFFCURVE",
"197 786 OFFCURVE",
"273 786 CURVE SMOOTH"
);
}
);
};
components = (
{
name = A;
},
{
name = brevecomb.case;
transform = "{1, 0, 0, 1, 149, 160}";
}
);
layerId = UUID0;
width = 547;
},
{
background = {
paths = (
{
closed = 1;
nodes = (
"124 0 LINE",
"165 135 LINE",
"418 135 LINE",
"460 0 LINE",
"591 0 LINE",
"370 686 LINE",
"221 686 LINE",
"0 0 LINE"
);
},
{
closed = 1;
nodes = (
"270 478 LINE SMOOTH",
"280 510 OFFCURVE",
"290 571 OFFCURVE",
"290 571 CURVE",
"294 571 LINE",
"294 571 OFFCURVE",
"303 514 OFFCURVE",
"314 478 CURVE SMOOTH",
"383 249 LINE",
"200 249 LINE"
);
},
{
closed = 1;
nodes = (
"378 776 OFFCURVE",
"430 833 OFFCURVE",
"430 883 CURVE",
"355 883 LINE",
"354 869 OFFCURVE",
"330 850 OFFCURVE",
"295 850 CURVE SMOOTH",
"263 850 OFFCURVE",
"240 869 OFFCURVE",
"237 883 CURVE",
"163 883 LINE",
"163 833 OFFCURVE",
"213 776 OFFCURVE",
"295 776 CURVE SMOOTH"
);
}
);
};
components = (
{
name = A;
},
{
name = brevecomb.case;
transform = "{1, 0, 0, 1, 162, 160}";
}
);
layerId = "31F25340-C351-400F-9C98-C04A412D1947";
width = 592;
}
);
leftKerningGroup = A;
rightKerningGroup = A;
unicode = 0102;
},
{
glyphname = Acircumflex;
layers = (
{
background = {
paths = (
{
closed = 1;
nodes = (
"87 0 LINE",
"134 153 LINE",
"406 153 LINE",
"453 0 LINE",
"548 0 LINE",
"330 686 LINE",
"217 686 LINE",
"-1 0 LINE"
);
},
{
closed = 1;
nodes = (
"252 538 LINE SMOOTH",
"259 560 OFFCURVE",
"268 614 OFFCURVE",
"268 614 CURVE",
"272 614 LINE",
"272 614 OFFCURVE",
"281 561 OFFCURVE",
"288 538 CURVE SMOOTH",
"381 233 LINE",
"158 233 LINE"
);
},
{
closed = 1;
nodes = (
"229 747 LINE",
"274 826 LINE",
"318 747 LINE",
"398 747 LINE",
"313 882 LINE",
"235 882 LINE",
"149 747 LINE"
);
}
);
};
components = (
{
name = A;
},
{
name = circumflexcomb.case;
transform = "{1, 0, 0, 1, 148, 160}";
}
);
layerId = UUID0;
width = 547;
},
{
background = {
paths = (
{
closed = 1;
nodes = (
"124 0 LINE",
"165 135 LINE",
"418 135 LINE",
"460 0 LINE",
"591 0 LINE",
"370 686 LINE",
"221 686 LINE",
"0 0 LINE"
);
},
{
closed = 1;
nodes = (
"270 478 LINE SMOOTH",
"280 510 OFFCURVE",
"290 571 OFFCURVE",
"290 571 CURVE",
"294 571 LINE",
"294 571 OFFCURVE",
"303 514 OFFCURVE",
"314 478 CURVE SMOOTH",
"383 249 LINE",
"200 249 LINE"
);
},
{
closed = 1;
nodes = (
"251 748 LINE",
"296 817 LINE",
"341 748 LINE",
"431 748 LINE",
"346 883 LINE",
"248 883 LINE",
"162 748 LINE"
);
}
);
};
components = (
{
name = A;
},
{
name = circumflexcomb.case;
transform = "{1, 0, 0, 1, 161, 160}";
}
);
layerId = "31F25340-C351-400F-9C98-C04A412D1947";
width = 592;
}
);
leftKerningGroup = A;
rightKerningGroup = A;
unicode = 00C2;
},
{
glyphname = Adieresis;
layers = (
{
background = {
paths = (
{
closed = 1;
nodes = (
"87 0 LINE",
"134 153 LINE",
"406 153 LINE",
"453 0 LINE",
"548 0 LINE",
"330 686 LINE",
"217 686 LINE",
"-1 0 LINE"
);
},
{
closed = 1;
nodes = (
"252 538 LINE SMOOTH",
"259 560 OFFCURVE",
"268 614 OFFCURVE",
"268 614 CURVE",
"272 614 LINE",
"272 614 OFFCURVE",
"281 561 OFFCURVE",
"288 538 CURVE SMOOTH",
"381 233 LINE",
"158 233 LINE"
);
},
{
closed = 1;
nodes = (
"242 788 LINE",
"242 883 LINE",
"155 883 LINE",
"155 788 LINE"
);
},
{
closed = 1;
nodes = (
"392 788 LINE",
"392 883 LINE",
"305 883 LINE",
"305 788 LINE"
);
}
);
};
components = (
{
name = A;
},
{
name = dieresiscomb.case;
transform = "{1, 0, 0, 1, 154, 160}";
}
);
layerId = UUID0;
width = 547;
},
{
background = {
paths = (
{
closed = 1;
nodes = (
"124 0 LINE",
"165 135 LINE",
"418 135 LINE",
"460 0 LINE",
"591 0 LINE",
"370 686 LINE",
"221 686 LINE",
"0 0 LINE"
);
},
{
closed = 1;
nodes = (
"270 478 LINE SMOOTH",
"280 510 OFFCURVE",
"290 571 OFFCURVE",
"290 571 CURVE",
"294 571 LINE",
"294 571 OFFCURVE",
"303 514 OFFCURVE",
"314 478 CURVE SMOOTH",
"383 249 LINE",
"200 249 LINE"
);
},
{
closed = 1;
nodes = (
"259 774 LINE",
"259 883 LINE",
"159 883 LINE",
"159 774 LINE"
);
},
{
closed = 1;
nodes = (
"434 774 LINE",
"434 883 LINE",
"333 883 LINE",
"333 774 LINE"
);
}
);
};
components = (
{
name = A;
},
{
name = dieresiscomb.case;
transform = "{1, 0, 0, 1, 158, 160}";
}
);
layerId = "31F25340-C351-400F-9C98-C04A412D1947";
width = 592;
}
);
leftKerningGroup = A;
rightKerningGroup = A;
unicode = 00C4;
},
{
glyphname = Agrave;
layers = (
{
background = {
paths = (
{
closed = 1;
nodes = (
"87 0 LINE",
"134 153 LINE",
"406 153 LINE",
"453 0 LINE",
"548 0 LINE",
"330 686 LINE",
"217 686 LINE",
"-1 0 LINE"
);
},
{
closed = 1;
nodes = (
"252 538 LINE SMOOTH",
"259 560 OFFCURVE",
"268 614 OFFCURVE",
"268 614 CURVE",
"272 614 LINE",
"272 614 OFFCURVE",
"281 561 OFFCURVE",
"288 538 CURVE SMOOTH",
"381 233 LINE",
"158 233 LINE"
);
},
{
closed = 1;
nodes = (
"333 751 LINE",
"247 883 LINE",
"157 883 LINE",
"156 880 LINE",
"264 751 LINE"
);
}
);
};
components = (
{
name = A;
},
{
name = gravecomb.case;
transform = "{1, 0, 0, 1, 149, 160}";
}
);
layerId = UUID0;
width = 547;
},
{
background = {
paths = (
{
closed = 1;
nodes = (
"124 0 LINE",
"165 135 LINE",
"418 135 LINE",
"460 0 LINE",
"591 0 LINE",
"370 686 LINE",
"221 686 LINE",
"0 0 LINE"
);
},
{
closed = 1;
nodes = (
"270 478 LINE SMOOTH",
"280 510 OFFCURVE",
"290 571 OFFCURVE",
"290 571 CURVE",
"294 571 LINE",
"294 571 OFFCURVE",
"303 514 OFFCURVE",
"314 478 CURVE SMOOTH",
"383 249 LINE",
"200 249 LINE"
);
},
{
closed = 1;
nodes = (
"365 751 LINE",
"279 883 LINE",
"159 883 LINE",
"158 880 LINE",
"266 751 LINE"
);
}
);
};
components = (
{
name = A;
},
{
name = gravecomb.case;
transform = "{1, 0, 0, 1, 158, 160}";
}
);
layerId = "31F25340-C351-400F-9C98-C04A412D1947";
width = 592;
}
);
leftKerningGroup = A;
rightKerningGroup = A;
unicode = 00C0;
},
{
glyphname = Amacron;
layers = (
{
background = {
paths = (
{
closed = 1;
nodes = (
"87 0 LINE",
"134 153 LINE",
"406 153 LINE",
"453 0 LINE",
"548 0 LINE",
"330 686 LINE",
"217 686 LINE",
"-1 0 LINE"
);
},
{
closed = 1;
nodes = (
"252 538 LINE SMOOTH",
"259 560 OFFCURVE",
"268 614 OFFCURVE",
"268 614 CURVE",
"272 614 LINE",
"272 614 OFFCURVE",
"281 561 OFFCURVE",
"288 538 CURVE SMOOTH",
"381 233 LINE",
"158 233 LINE"
);
},
{
closed = 1;
nodes = (
"399 759 LINE",
"399 831 LINE",
"148 831 LINE",
"148 759 LINE"
);
}
);
};
components = (
{
name = A;
},
{
name = macroncomb.case;
transform = "{1, 0, 0, 1, 148, 160}";
}
);
layerId = UUID0;
width = 547;
},
{
background = {
paths = (
{
closed = 1;
nodes = (
"124 0 LINE",
"165 135 LINE",
"418 135 LINE",
"460 0 LINE",
"591 0 LINE",
"370 686 LINE",
"221 686 LINE",
"0 0 LINE"
);
},
{
closed = 1;
nodes = (
"270 478 LINE SMOOTH",
"280 510 OFFCURVE",
"290 571 OFFCURVE",
"290 571 CURVE",
"294 571 LINE",
"294 571 OFFCURVE",
"303 514 OFFCURVE",
"314 478 CURVE SMOOTH",
"383 249 LINE",
"200 249 LINE"
);
},
{
closed = 1;
nodes = (
"424 759 LINE",
"424 846 LINE",
"168 846 LINE",
"168 759 LINE"
);
}
);
};
components = (
{
name = A;
},
{
name = macroncomb.case;
transform = "{1, 0, 0, 1, 168, 160}";
}
);
layerId = "31F25340-C351-400F-9C98-C04A412D1947";
width = 592;
}
);
leftKerningGroup = A;
rightKerningGroup = A;
unicode = 0100;
},
{
glyphname = Aogonek;
layers = (
{
background = {
paths = (
{
closed = 1;
nodes = (
"87 0 LINE",
"134 153 LINE",
"406 153 LINE",
"453 0 LINE",
"548 0 LINE",
"330 686 LINE",
"217 686 LINE",
"-1 0 LINE"
);
},
{
closed = 1;
nodes = (
"530 -182 OFFCURVE",
"550 -177 OFFCURVE",
"571 -168 CURVE",
"571 -117 LINE",
"540 -117 LINE SMOOTH",
"506 -117 OFFCURVE",
"494 -90 OFFCURVE",
"494 -62 CURVE SMOOTH",
"494 -29 OFFCURVE",
"518 2 OFFCURVE",
"528 13 CURVE",
"469 16 LINE",
"441 -11 OFFCURVE",
"416 -40 OFFCURVE",
"416 -92 CURVE SMOOTH",
"416 -161 OFFCURVE",
"467 -182 OFFCURVE",
"510 -182 CURVE SMOOTH"
);
},
{
closed = 1;
nodes = (
"252 538 LINE SMOOTH",
"259 560 OFFCURVE",
"268 614 OFFCURVE",
"268 614 CURVE",
"272 614 LINE",
"272 614 OFFCURVE",
"281 561 OFFCURVE",
"288 538 CURVE SMOOTH",
"381 233 LINE",
"158 233 LINE"
);
}
);
};
components = (
{
name = A;
},
{
name = ogonekcomb.case;
transform = "{1, 0, 0, 1, 420, 0}";
}
);
layerId = UUID0;
width = 547;
},
{
background = {
paths = (
{
closed = 1;
nodes = (
"124 0 LINE",
"165 135 LINE",
"418 135 LINE",
"460 0 LINE",
"591 0 LINE",
"370 686 LINE",
"221 686 LINE",
"0 0 LINE"
);
},
{
closed = 1;
nodes = (
"564 -190 OFFCURVE",
"585 -185 OFFCURVE",
"608 -176 CURVE",
"608 -121 LINE",
"586 -121 LINE SMOOTH",
"553 -121 OFFCURVE",
"541 -96 OFFCURVE",
"541 -70 CURVE SMOOTH",
"541 -36 OFFCURVE",
"567 -2 OFFCURVE",
"577 7 CURVE",
"497 11 LINE",
"469 -17 OFFCURVE",
"443 -46 OFFCURVE",
"443 -100 CURVE SMOOTH",
"443 -169 OFFCURVE",
"496 -190 OFFCURVE",
"542 -190 CURVE SMOOTH"
);
},
{
closed = 1;
nodes = (
"270 478 LINE SMOOTH",
"280 510 OFFCURVE",
"290 571 OFFCURVE",
"290 571 CURVE",
"294 571 LINE",
"294 571 OFFCURVE",
"303 514 OFFCURVE",
"314 478 CURVE SMOOTH",
"383 249 LINE",
"200 249 LINE"
);
}
);
};
components = (
{
name = A;
},
{
name = ogonekcomb.case;
transform = "{1, 0, 0, 1, 445, 0}";
}
);
layerId = "31F25340-C351-400F-9C98-C04A412D1947";
width = 592;
}
);
leftKerningGroup = A;
rightKerningGroup = A;
unicode = 0104;
},
{
glyphname = Aring;
layers = (
{
background = {
paths = (
{
closed = 1;
nodes = (
"87 0 LINE",
"134 153 LINE",
"406 153 LINE",
"453 0 LINE",
"548 0 LINE",
"330 686 LINE",
"217 686 LINE",
"-1 0 LINE"
);
},
{
closed = 1;
nodes = (
"252 538 LINE SMOOTH",
"259 560 OFFCURVE",
"268 614 OFFCURVE",
"268 614 CURVE",
"272 614 LINE",
"272 614 OFFCURVE",
"281 561 OFFCURVE",
"288 538 CURVE SMOOTH",
"381 233 LINE",
"158 233 LINE"
);
},
{
closed = 1;
nodes = (
"327 723 OFFCURVE",
"369 766 OFFCURVE",
"369 819 CURVE SMOOTH",
"369 871 OFFCURVE",
"328 915 OFFCURVE",
"273 915 CURVE SMOOTH",
"220 915 OFFCURVE",
"177 872 OFFCURVE",
"177 819 CURVE SMOOTH",
"177 765 OFFCURVE",
"221 723 OFFCURVE",
"273 723 CURVE SMOOTH"
);
},
{
closed = 1;
nodes = (
"246 768 OFFCURVE",
"222 791 OFFCURVE",
"222 819 CURVE SMOOTH",
"222 847 OFFCURVE",
"246 870 OFFCURVE",
"273 870 CURVE SMOOTH",
"300 870 OFFCURVE",
"324 847 OFFCURVE",
"324 819 CURVE SMOOTH",
"324 791 OFFCURVE",
"300 768 OFFCURVE",
"273 768 CURVE SMOOTH"
);
}
);
};
components = (
{
name = A;
},
{
name = ringcomb.case;
transform = "{1, 0, 0, 1, 177, 160}";
}
);
layerId = UUID0;
width = 547;
},
{
background = {
paths = (
{
closed = 1;
nodes = (
"124 0 LINE",
"165 135 LINE",
"418 135 LINE",
"460 0 LINE",
"591 0 LINE",
"370 686 LINE",
"221 686 LINE",
"0 0 LINE"
);
},
{
closed = 1;
nodes = (
"270 478 LINE SMOOTH",
"280 510 OFFCURVE",
"290 571 OFFCURVE",
"290 571 CURVE",
"294 571 LINE",
"294 571 OFFCURVE",
"303 514 OFFCURVE",
"314 478 CURVE SMOOTH",
"383 249 LINE",
"200 249 LINE"
);
},
{
closed = 1;
nodes = (
"349 721 OFFCURVE",
"392 764 OFFCURVE",
"392 817 CURVE SMOOTH",
"392 869 OFFCURVE",
"350 913 OFFCURVE",
"296 913 CURVE SMOOTH",
"243 913 OFFCURVE",
"200 870 OFFCURVE",
"200 817 CURVE SMOOTH",
"200 763 OFFCURVE",
"244 721 OFFCURVE",
"296 721 CURVE SMOOTH"
);
},
{
closed = 1;
nodes = (
"270 771 OFFCURVE",
"250 791 OFFCURVE",
"250 817 CURVE SMOOTH",
"250 843 OFFCURVE",
"270 863 OFFCURVE",
"296 863 CURVE SMOOTH",
"321 863 OFFCURVE",
"342 843 OFFCURVE",
"342 817 CURVE SMOOTH",
"342 791 OFFCURVE",
"321 771 OFFCURVE",
"296 771 CURVE SMOOTH"
);
}
);
};
components = (
{
name = A;
},
{
name = ringcomb.case;
transform = "{1, 0, 0, 1, 200, 160}";
}
);
layerId = "31F25340-C351-400F-9C98-C04A412D1947";
width = 592;
}
);
leftKerningGroup = A;
rightKerningGroup = A;
unicode = 00C5;
},
{
color = 0;
glyphname = Aringacute;
layers = (
{
background = {
paths = (
{
closed = 1;
nodes = (
"453 0 LINE",
"548 0 LINE",
"330 686 LINE",
"217 686 LINE",
"-1 0 LINE",
"87 0 LINE",
"134 153 LINE",
"406 153 LINE"
);
},
{
closed = 1;
nodes = (
"252 538 LINE SMOOTH",
"259 560 OFFCURVE",
"268 614 OFFCURVE",
"268 614 CURVE",
"272 614 LINE",
"272 614 OFFCURVE",
"281 561 OFFCURVE",
"288 538 CURVE SMOOTH",
"381 233 LINE",
"158 233 LINE"
);
}
);
};
layerId = UUID0;
paths = (
{
closed = 1;
nodes = (
"87 0 LINE",
"134 153 LINE",
"406 153 LINE",
"453 0 LINE",
"548 0 LINE",
"338 660 LINE",
"357 677 OFFCURVE",
"370 701 OFFCURVE",
"370 729 CURVE SMOOTH",
"370 779 OFFCURVE",
"328 821 OFFCURVE",
"274 821 CURVE SMOOTH",
"221 821 OFFCURVE",
"178 780 OFFCURVE",
"178 729 CURVE SMOOTH",
"178 701 OFFCURVE",
"190 677 OFFCURVE",
"209 661 CURVE",
"-1 0 LINE"
);
},
{
closed = 1;
nodes = (
"252 538 LINE SMOOTH",
"259 560 OFFCURVE",
"268 614 OFFCURVE",
"268 614 CURVE",
"272 614 LINE",
"272 614 OFFCURVE",
"281 561 OFFCURVE",
"288 538 CURVE SMOOTH",
"381 233 LINE",
"158 233 LINE"
);
},
{
closed = 1;
nodes = (
"246 680 OFFCURVE",
"223 702 OFFCURVE",
"223 729 CURVE SMOOTH",
"223 756 OFFCURVE",
"246 778 OFFCURVE",
"274 778 CURVE SMOOTH",
"301 778 OFFCURVE",
"325 756 OFFCURVE",
"325 729 CURVE SMOOTH",
"325 702 OFFCURVE",
"301 680 OFFCURVE",
"274 680 CURVE SMOOTH"
);
},
{
closed = 1;
nodes = (
"312 848 LINE",
"405 953 LINE",
"404 957 LINE",
"314 957 LINE",
"243 848 LINE"
);
}
);
width = 547;
},
{
layerId = "31F25340-C351-400F-9C98-C04A412D1947";
paths = (
{
closed = 1;
nodes = (
"124 0 LINE",
"165 135 LINE",
"418 135 LINE",
"460 0 LINE",
"591 0 LINE",
"374 673 LINE",
"385 689 OFFCURVE",
"392 708 OFFCURVE",
"392 728 CURVE SMOOTH",
"392 778 OFFCURVE",
"350 821 OFFCURVE",
"296 821 CURVE SMOOTH",
"243 821 OFFCURVE",
"200 779 OFFCURVE",
"200 728 CURVE SMOOTH",
"200 708 OFFCURVE",
"206 689 OFFCURVE",
"217 674 CURVE",
"0 0 LINE"
);
},
{
closed = 1;
nodes = (
"270 478 LINE SMOOTH",
"280 510 OFFCURVE",
"290 571 OFFCURVE",
"290 571 CURVE",
"294 571 LINE",
"294 571 OFFCURVE",
"303 514 OFFCURVE",
"314 478 CURVE SMOOTH",
"383 249 LINE",
"200 249 LINE"
);
},
{
closed = 1;
nodes = (
"270 683 OFFCURVE",
"250 702 OFFCURVE",
"250 728 CURVE SMOOTH",
"250 753 OFFCURVE",
"270 772 OFFCURVE",
"296 772 CURVE SMOOTH",
"321 772 OFFCURVE",
"342 753 OFFCURVE",
"342 728 CURVE SMOOTH",
"342 702 OFFCURVE",
"321 683 OFFCURVE",
"296 683 CURVE SMOOTH"
);
},
{
closed = 1;
nodes = (
"352 848 LINE",
"444 954 LINE",
"443 957 LINE",
"323 957 LINE",
"253 848 LINE"
);
}
);
width = 592;
}
);
leftKerningGroup = A;
rightKerningGroup = A;
unicode = 01FA;
},
{
glyphname = Atilde;
layers = (
{
background = {
paths = (
{
closed = 1;
nodes = (
"87 0 LINE",
"134 153 LINE",
"406 153 LINE",
"453 0 LINE",
"548 0 LINE",
"330 686 LINE",
"217 686 LINE",
"-1 0 LINE"
);
},
{
closed = 1;
nodes = (
"252 538 LINE SMOOTH",
"259 560 OFFCURVE",
"268 614 OFFCURVE",
"268 614 CURVE",
"272 614 LINE",
"272 614 OFFCURVE",
"281 561 OFFCURVE",
"288 538 CURVE SMOOTH",
"381 233 LINE",
"158 233 LINE"
);
},
{
closed = 1;
nodes = (
"186 779 LINE",
"188 802 OFFCURVE",
"201 810 OFFCURVE",
"219 810 CURVE SMOOTH",
"258 810 OFFCURVE",
"291 779 OFFCURVE",
"334 779 CURVE SMOOTH",
"395 779 OFFCURVE",
"419 837 OFFCURVE",
"419 883 CURVE",
"361 883 LINE",
"358 860 OFFCURVE",
"345 853 OFFCURVE",
"327 853 CURVE SMOOTH",
"288 853 OFFCURVE",
"255 883 OFFCURVE",
"212 883 CURVE SMOOTH",
"152 883 OFFCURVE",
"127 825 OFFCURVE",
"127 779 CURVE"
);
}
);
};
components = (
{
name = A;
},
{
name = tildecomb.case;
transform = "{1, 0, 0, 1, 141, 160}";
}
);
layerId = UUID0;
width = 547;
},
{
background = {
paths = (
{
closed = 1;
nodes = (
"124 0 LINE",
"165 135 LINE",
"418 135 LINE",
"460 0 LINE",
"591 0 LINE",
"370 686 LINE",
"221 686 LINE",
"0 0 LINE"
);
},
{
closed = 1;
nodes = (
"270 478 LINE SMOOTH",
"280 510 OFFCURVE",
"290 571 OFFCURVE",
"290 571 CURVE",
"294 571 LINE",
"294 571 OFFCURVE",
"303 514 OFFCURVE",
"314 478 CURVE SMOOTH",
"383 249 LINE",
"200 249 LINE"
);
},
{
closed = 1;
nodes = (
"194 761 LINE",
"198 788 OFFCURVE",
"212 798 OFFCURVE",
"233 798 CURVE SMOOTH",
"278 798 OFFCURVE",
"317 761 OFFCURVE",
"365 761 CURVE SMOOTH",
"436 761 OFFCURVE",
"464 828 OFFCURVE",
"464 883 CURVE",
"398 883 LINE",
"394 855 OFFCURVE",
"380 846 OFFCURVE",
"359 846 CURVE SMOOTH",
"314 846 OFFCURVE",
"275 883 OFFCURVE",
"226 883 CURVE SMOOTH",
"156 883 OFFCURVE",
"128 816 OFFCURVE",
"128 761 CURVE"
);
}
);
};
components = (
{
name = A;
},
{
name = tildecomb.case;
transform = "{1, 0, 0, 1, 144, 160}";
}
);
layerId = "31F25340-C351-400F-9C98-C04A412D1947";
width = 592;
}
);
leftKerningGroup = A;
rightKerningGroup = A;
unicode = 00C3;
},
{
glyphname = AE;
layers = (
{
anchors = (
{
name = top;
position = "{501, 686}";
}
);
background = {
paths = (
{
closed = 1;
nodes = (
"782 686 LINE",
"279 686 LINE",
"1 0 LINE",
"88 0 LINE",
"148 151 LINE",
"421 151 LINE",
"454 0 LINE",
"789 0 LINE",
"775 84 LINE",
"527 84 LINE",
"478 309 LINE",
"742 309 LINE",
"742 393 LINE",
"460 393 LINE",
"414 602 LINE",
"769 602 LINE"
);
},
{
closed = 1;
nodes = (
"322 602 LINE",
"403 235 LINE",
"181 235 LINE",
"318 602 LINE"
);
}
);
};
layerId = UUID0;
paths = (
{
closed = 1;
nodes = (
"87 0 LINE",
"146 153 LINE",
"419 153 LINE",
"453 0 LINE",
"783 0 LINE",
"783 80 LINE",
"529 80 LINE",
"477 311 LINE",
"733 311 LINE",
"733 391 LINE",
"459 391 LINE",
"410 606 LINE",
"777 606 LINE",
"777 686 LINE",
"279 686 LINE",
"-1 0 LINE"
);
},
{
closed = 1;
nodes = (
"298 543 LINE SMOOTH",
"306 565 OFFCURVE",
"319 605 OFFCURVE",
"319 605 CURVE",
"323 605 LINE",
"323 605 OFFCURVE",
"327 566 OFFCURVE",
"334 543 CURVE",
"402 233 LINE",
"177 233 LINE"
);
}
);
width = 820;
},
{
anchors = (
{
name = top;
position = "{500, 686}";
}
);
background = {
paths = (
{
closed = 1;
nodes = (
"793 686 LINE",
"255 686 LINE",
"-8 0 LINE",
"111 0 LINE",
"161 135 LINE",
"414 135 LINE",
"447 0 LINE",
"800 0 LINE",
"783 114 LINE",
"550 114 LINE",
"506 294 LINE",
"753 294 LINE",
"753 408 LINE",
"478 408 LINE",
"438 572 LINE",
"777 572 LINE"
);
},
{
closed = 1;
nodes = (
"317 546 LINE",
"387 249 LINE",
"203 249 LINE",
"313 546 LINE"
);
}
);
};
layerId = "31F25340-C351-400F-9C98-C04A412D1947";
paths = (
{
closed = 1;
nodes = (
"111 0 LINE",
"161 135 LINE",
"414 135 LINE",
"447 0 LINE",
"777 0 LINE",
"777 114 LINE",
"550 114 LINE",
"506 294 LINE",
"727 294 LINE",
"727 408 LINE",
"478 408 LINE",
"438 572 LINE",
"771 572 LINE",
"771 686 LINE",
"255 686 LINE",
"-8 0 LINE"
);
},
{
closed = 1;
nodes = (
"295 498 LINE",
"301 514 OFFCURVE",
"307 530 OFFCURVE",
"313 546 CURVE",
"317 546 LINE",
"321 531 OFFCURVE",
"324 515 OFFCURVE",
"328 500 CURVE",
"387 249 LINE",
"203 249 LINE"
);
}
);
width = 820;
}
);
leftKerningGroup = AE;
rightKerningGroup = AE;
unicode = 00C6;
},
{
glyphname = AEacute;
layers = (
{
background = {
paths = (
{
closed = 1;
nodes = (
"87 0 LINE",
"146 153 LINE",
"419 153 LINE",
"453 0 LINE",
"783 0 LINE",
"783 80 LINE",
"529 80 LINE",
"477 311 LINE",
"733 311 LINE",
"733 391 LINE",
"459 391 LINE",
"410 606 LINE",
"777 606 LINE",
"777 686 LINE",
"279 686 LINE",
"-1 0 LINE"
);
},
{
closed = 1;
nodes = (
"298 543 LINE SMOOTH",
"306 565 OFFCURVE",
"319 605 OFFCURVE",
"319 605 CURVE",
"323 605 LINE",
"323 605 OFFCURVE",
"327 566 OFFCURVE",
"334 543 CURVE",
"402 233 LINE",
"177 233 LINE"
);
},
{
closed = 1;
nodes = (
"517 751 LINE",
"625 880 LINE",
"624 883 LINE",
"534 883 LINE",
"448 751 LINE"
);
}
);
};
components = (
{
name = AE;
},
{
name = acutecomb.case;
transform = "{1, 0, 0, 1, 433, 160}";
}
);
layerId = UUID0;
width = 820;
},
{
background = {
paths = (
{
closed = 1;
nodes = (
"111 0 LINE",
"161 135 LINE",
"414 135 LINE",
"447 0 LINE",
"777 0 LINE",
"777 114 LINE",
"550 114 LINE",
"506 294 LINE",
"727 294 LINE",
"727 408 LINE",
"478 408 LINE",
"438 572 LINE",
"771 572 LINE",
"771 686 LINE",
"255 686 LINE",
"-8 0 LINE"
);
},
{
closed = 1;
nodes = (
"286 474 LINE",
"295 498 OFFCURVE",
"304 522 OFFCURVE",
"313 546 CURVE",
"317 546 LINE",
"323 522 OFFCURVE",
"328 498 OFFCURVE",
"334 474 CURVE",
"387 249 LINE",
"203 249 LINE"
);
},
{
closed = 1;
nodes = (
"440 751 LINE",
"548 880 LINE",
"547 883 LINE",
"427 883 LINE",
"341 751 LINE"
);
}
);
};
components = (
{
name = AE;
},
{
name = acutecomb.case;
transform = "{1, 0, 0, 1, 426, 160}";
}
);
layerId = "31F25340-C351-400F-9C98-C04A412D1947";
width = 820;
}
);
leftKerningGroup = AE;
rightKerningGroup = AE;
unicode = 01FC;
},
{
glyphname = B;
layers = (
{
background = {
paths = (
{
closed = 1;
nodes = (
"65 686 LINE",
"65 0 LINE",
"325 0 LINE SMOOTH",
"430 0 OFFCURVE",
"518 69 OFFCURVE",
"518 184 CURVE SMOOTH",
"518 272 OFFCURVE",
"465 335 OFFCURVE",
"397 356 CURVE",
"397 360 LINE",
"456 381 OFFCURVE",
"502 437 OFFCURVE",
"502 516 CURVE SMOOTH",
"502 617 OFFCURVE",
"427 686 OFFCURVE",
"325 686 CURVE SMOOTH"
);
},
{
closed = 1;
nodes = (
"307 309 LINE",
"380 309 OFFCURVE",
"426 258 OFFCURVE",
"426 196 CURVE SMOOTH",
"426 125 OFFCURVE",
"378 84 OFFCURVE",
"313 84 CURVE SMOOTH",
"153 84 LINE",
"153 309 LINE"
);
},
{
closed = 1;
nodes = (
"305 602 LINE",
"368 602 OFFCURVE",
"410 566 OFFCURVE",
"410 497 CURVE SMOOTH",
"410 439 OFFCURVE",
"366 393 OFFCURVE",
"299 393 CURVE SMOOTH",
"153 393 LINE",
"153 602 LINE"
);
}
);
};
layerId = UUID0;
paths = (
{
closed = 1;
nodes = (
"325 0 LINE SMOOTH",
"430 0 OFFCURVE",
"518 67 OFFCURVE",
"518 182 CURVE SMOOTH",
"518 270 OFFCURVE",
"465 335 OFFCURVE",
"397 356 CURVE",
"397 360 LINE",
"456 381 OFFCURVE",
"502 439 OFFCURVE",
"502 518 CURVE SMOOTH",
"502 619 OFFCURVE",
"427 686 OFFCURVE",
"325 686 CURVE SMOOTH",
"65 686 LINE",
"65 0 LINE"
);
},
{
closed = 1;
nodes = (
"153 311 LINE",
"307 311 LINE",
"380 311 OFFCURVE",
"426 256 OFFCURVE",
"426 194 CURVE SMOOTH",
"426 120 OFFCURVE",
"378 80 OFFCURVE",
"313 80 CURVE SMOOTH",
"153 80 LINE"
);
},
{
closed = 1;
nodes = (
"153 606 LINE",
"305 606 LINE",
"368 606 OFFCURVE",
"410 571 OFFCURVE",
"410 499 CURVE SMOOTH",
"410 441 OFFCURVE",
"366 391 OFFCURVE",
"299 391 CURVE SMOOTH",
"153 391 LINE"
);
}
);
width = 547;
},
{
background = {
paths = (
{
closed = 1;
nodes = (
"50 686 LINE",
"50 0 LINE",
"355 0 LINE SMOOTH",
"465 0 OFFCURVE",
"558 69 OFFCURVE",
"558 184 CURVE SMOOTH",
"558 272 OFFCURVE",
"505 335 OFFCURVE",
"437 356 CURVE",
"437 360 LINE",
"496 381 OFFCURVE",
"542 437 OFFCURVE",
"542 516 CURVE SMOOTH",
"542 617 OFFCURVE",
"463 686 OFFCURVE",
"355 686 CURVE SMOOTH"
);
},
{
closed = 1;
nodes = (
"328 295 LINE",
"395 295 OFFCURVE",
"427 253 OFFCURVE",
"427 200 CURVE SMOOTH",
"427 144 OFFCURVE",
"387 114 OFFCURVE",
"334 114 CURVE SMOOTH",
"178 114 LINE",
"178 295 LINE"
);
},
{
closed = 1;
nodes = (
"326 572 LINE",
"377 572 OFFCURVE",
"411 545 OFFCURVE",
"411 493 CURVE SMOOTH",
"411 447 OFFCURVE",
"381 408 OFFCURVE",
"320 408 CURVE SMOOTH",
"178 408 LINE",
"178 572 LINE"
);
}
);
};
layerId = "31F25340-C351-400F-9C98-C04A412D1947";
paths = (
{
closed = 1;
nodes = (
"355 0 LINE SMOOTH",
"465 0 OFFCURVE",
"558 69 OFFCURVE",
"558 184 CURVE SMOOTH",
"558 272 OFFCURVE",
"505 335 OFFCURVE",
"437 356 CURVE",
"437 360 LINE",
"496 381 OFFCURVE",
"542 437 OFFCURVE",
"542 516 CURVE SMOOTH",
"542 617 OFFCURVE",
"463 686 OFFCURVE",
"355 686 CURVE SMOOTH",
"60 686 LINE",
"60 0 LINE"
);
},
{
closed = 1;
nodes = (
"188 295 LINE",
"328 295 LINE",
"395 295 OFFCURVE",
"427 253 OFFCURVE",
"427 200 CURVE SMOOTH",
"427 144 OFFCURVE",
"387 114 OFFCURVE",
"334 114 CURVE SMOOTH",
"188 114 LINE"
);
},
{
closed = 1;
nodes = (
"188 572 LINE",
"326 572 LINE",
"377 572 OFFCURVE",
"411 545 OFFCURVE",
"411 493 CURVE SMOOTH",
"411 447 OFFCURVE",
"381 408 OFFCURVE",
"320 408 CURVE SMOOTH",
"188 408 LINE"
);
}
);
width = 592;
}
);
leftKerningGroup = B;
rightKerningGroup = B;
unicode = 0042;
},
{
glyphname = C;
layers = (
{
anchors = (
{
name = bottom;
position = "{296, 0}";
},
{
name = top;
position = "{296, 686}";
}
);
layerId = UUID0;
paths = (
{
closed = 1;
nodes = (
"452 -12 OFFCURVE",
"551 69 OFFCURVE",
"551 246 CURVE",
"464 246 LINE",
"464 127 OFFCURVE",
"404 69 OFFCURVE",
"312 69 CURVE SMOOTH",
"192 69 OFFCURVE",
"134 151 OFFCURVE",
"134 318 CURVE SMOOTH",
"134 368 LINE SMOOTH",
"134 535 OFFCURVE",
"192 617 OFFCURVE",
"312 617 CURVE SMOOTH",
"402 617 OFFCURVE",
"461 558 OFFCURVE",
"461 438 CURVE",
"551 438 LINE",
"551 613 OFFCURVE",
"452 698 OFFCURVE",
"312 698 CURVE SMOOTH",
"134 698 OFFCURVE",
"42 581 OFFCURVE",
"42 343 CURVE SMOOTH",
"42 105 OFFCURVE",
"134 -12 OFFCURVE",
"312 -12 CURVE SMOOTH"
);
}
);
width = 592;
},
{
anchors = (
{
name = bottom;
position = "{309, 0}";
},
{
name = top;
position = "{307, 686}";
}
);
layerId = "31F25340-C351-400F-9C98-C04A412D1947";
paths = (
{
closed = 1;
nodes = (
"452 -12 OFFCURVE",
"559 74 OFFCURVE",
"559 254 CURVE",
"434 254 LINE",
"434 148 OFFCURVE",
"385 98 OFFCURVE",
"311 98 CURVE SMOOTH",
"213 98 OFFCURVE",
"166 181 OFFCURVE",
"166 318 CURVE SMOOTH",
"166 368 LINE SMOOTH",
"166 505 OFFCURVE",
"212 588 OFFCURVE",
"307 588 CURVE SMOOTH",
"379 588 OFFCURVE",
"428 537 OFFCURVE",
"428 431 CURVE",
"559 431 LINE",
"559 617 OFFCURVE",
"450 698 OFFCURVE",
"307 698 CURVE SMOOTH",
"135 698 OFFCURVE",
"34 585 OFFCURVE",
"34 343 CURVE SMOOTH",
"34 101 OFFCURVE",
"135 -12 OFFCURVE",
"307 -12 CURVE SMOOTH"
);
}
);
width = 592;
}
);
leftKerningGroup = C;
rightKerningGroup = C;
unicode = 0043;
},
{
glyphname = Cacute;
layers = (
{
background = {
paths = (
{
closed = 1;
nodes = (
"452 -12 OFFCURVE",
"551 69 OFFCURVE",
"551 246 CURVE",
"464 246 LINE",
"464 127 OFFCURVE",
"404 69 OFFCURVE",
"312 69 CURVE SMOOTH",
"192 69 OFFCURVE",
"134 151 OFFCURVE",
"134 318 CURVE SMOOTH",
"134 368 LINE SMOOTH",
"134 535 OFFCURVE",
"192 617 OFFCURVE",
"312 617 CURVE SMOOTH",
"402 617 OFFCURVE",
"461 558 OFFCURVE",
"461 438 CURVE",
"551 438 LINE",
"551 613 OFFCURVE",
"452 698 OFFCURVE",
"312 698 CURVE SMOOTH",
"134 698 OFFCURVE",
"42 581 OFFCURVE",
"42 343 CURVE SMOOTH",
"42 105 OFFCURVE",
"134 -12 OFFCURVE",
"312 -12 CURVE SMOOTH"
);
},
{
closed = 1;
nodes = (
"320 751 LINE",
"428 880 LINE",
"427 883 LINE",
"337 883 LINE",
"251 751 LINE"
);
}
);
};
components = (
{
name = C;
},
{
name = acutecomb.case;
transform = "{1, 0, 0, 1, 228, 160}";
}
);
layerId = UUID0;
width = 592;
},
{
background = {
paths = (
{
closed = 1;
nodes = (
"452 -12 OFFCURVE",
"559 74 OFFCURVE",
"559 254 CURVE",
"434 254 LINE",
"434 148 OFFCURVE",
"385 98 OFFCURVE",
"311 98 CURVE SMOOTH",
"213 98 OFFCURVE",
"166 181 OFFCURVE",
"166 318 CURVE SMOOTH",
"166 368 LINE SMOOTH",
"166 505 OFFCURVE",
"212 588 OFFCURVE",
"307 588 CURVE SMOOTH",
"379 588 OFFCURVE",
"428 537 OFFCURVE",
"428 431 CURVE",
"559 431 LINE",
"559 617 OFFCURVE",
"450 698 OFFCURVE",
"307 698 CURVE SMOOTH",
"135 698 OFFCURVE",
"34 585 OFFCURVE",
"34 343 CURVE SMOOTH",
"34 101 OFFCURVE",
"135 -12 OFFCURVE",
"307 -12 CURVE SMOOTH"
);
},
{
closed = 1;
nodes = (
"337 751 LINE",
"445 880 LINE",
"444 883 LINE",
"324 883 LINE",
"238 751 LINE"
);
}
);
};
components = (
{
name = C;
},
{
name = acutecomb.case;
transform = "{1, 0, 0, 1, 233, 160}";
}
);
layerId = "31F25340-C351-400F-9C98-C04A412D1947";
width = 592;
}
);
leftKerningGroup = C;
rightKerningGroup = C;
unicode = 0106;
},
{
glyphname = Ccaron;
layers = (
{
background = {
paths = (
{
closed = 1;
nodes = (
"452 -12 OFFCURVE",
"551 69 OFFCURVE",
"551 246 CURVE",
"464 246 LINE",
"464 127 OFFCURVE",
"404 69 OFFCURVE",
"312 69 CURVE SMOOTH",
"192 69 OFFCURVE",
"134 151 OFFCURVE",
"134 318 CURVE SMOOTH",
"134 368 LINE SMOOTH",
"134 535 OFFCURVE",
"192 617 OFFCURVE",
"312 617 CURVE SMOOTH",
"402 617 OFFCURVE",
"461 558 OFFCURVE",
"461 438 CURVE",
"551 438 LINE",
"551 613 OFFCURVE",
"452 698 OFFCURVE",
"312 698 CURVE SMOOTH",
"134 698 OFFCURVE",
"42 581 OFFCURVE",
"42 343 CURVE SMOOTH",
"42 105 OFFCURVE",
"134 -12 OFFCURVE",
"312 -12 CURVE SMOOTH"
);
},
{
closed = 1;
nodes = (
"334 748 LINE",
"421 883 LINE",
"341 883 LINE",
"296 804 LINE",
"251 883 LINE",
"171 883 LINE",
"256 748 LINE"
);
}
);
};
components = (
{
name = C;
},
{
name = caroncomb.case;
transform = "{1, 0, 0, 1, 171, 160}";
}
);
layerId = UUID0;
width = 592;
},
{
background = {
paths = (
{
closed = 1;
nodes = (
"452 -12 OFFCURVE",
"559 74 OFFCURVE",
"559 254 CURVE",
"434 254 LINE",
"434 148 OFFCURVE",
"385 98 OFFCURVE",
"311 98 CURVE SMOOTH",
"213 98 OFFCURVE",
"166 181 OFFCURVE",
"166 318 CURVE SMOOTH",
"166 368 LINE SMOOTH",
"166 505 OFFCURVE",
"212 588 OFFCURVE",
"307 588 CURVE SMOOTH",
"379 588 OFFCURVE",
"428 537 OFFCURVE",
"428 431 CURVE",
"559 431 LINE",
"559 617 OFFCURVE",
"450 698 OFFCURVE",
"307 698 CURVE SMOOTH",
"135 698 OFFCURVE",
"34 585 OFFCURVE",
"34 343 CURVE SMOOTH",
"34 101 OFFCURVE",
"135 -12 OFFCURVE",
"307 -12 CURVE SMOOTH"
);
},
{
closed = 1;
nodes = (
"356 748 LINE",
"441 883 LINE",
"352 883 LINE",
"307 814 LINE",
"262 883 LINE",
"172 883 LINE",
"258 748 LINE"
);
}
);
};
components = (
{
name = C;
},
{
name = caroncomb.case;
transform = "{1, 0, 0, 1, 172, 160}";
}
);
layerId = "31F25340-C351-400F-9C98-C04A412D1947";
width = 592;
}
);
leftKerningGroup = C;
rightKerningGroup = C;
unicode = 010C;
},
{
glyphname = Ccedilla;
layers = (
{
background = {
paths = (
{
closed = 1;
nodes = (
"327 -182 OFFCURVE",
"390 -168 OFFCURVE",
"390 -101 CURVE SMOOTH",
"390 -55 OFFCURVE",
"352 -39 OFFCURVE",
"309 -36 CURVE",
"312 -12 LINE",
"452 -12 OFFCURVE",
"551 69 OFFCURVE",
"551 246 CURVE",
"464 246 LINE",
"464 127 OFFCURVE",
"404 69 OFFCURVE",
"312 69 CURVE SMOOTH",
"192 69 OFFCURVE",
"134 151 OFFCURVE",
"134 318 CURVE SMOOTH",
"134 368 LINE SMOOTH",
"134 535 OFFCURVE",
"192 617 OFFCURVE",
"312 617 CURVE SMOOTH",
"402 617 OFFCURVE",
"461 558 OFFCURVE",
"461 438 CURVE",
"551 438 LINE",
"551 613 OFFCURVE",
"452 698 OFFCURVE",
"312 698 CURVE SMOOTH",
"134 698 OFFCURVE",
"42 581 OFFCURVE",
"42 343 CURVE SMOOTH",
"42 130 OFFCURVE",
"115 14 OFFCURVE",
"258 -8 CURVE",
"247 -77 LINE",
"280 -77 LINE SMOOTH",
"306 -77 OFFCURVE",
"314 -85 OFFCURVE",
"314 -101 CURVE SMOOTH",
"314 -120 OFFCURVE",
"300 -125 OFFCURVE",
"278 -125 CURVE SMOOTH",
"202 -125 LINE",
"202 -174 LINE",
"226 -179 OFFCURVE",
"258 -182 OFFCURVE",
"286 -182 CURVE SMOOTH"
);
}
);
};
components = (
{
name = C;
},
{
name = cedillacomb.case;
transform = "{1, 0, 0, 1, 210, 0}";
}
);
layerId = UUID0;
width = 592;
},
{
background = {
paths = (
{
closed = 1;
nodes = (
"341 -182 OFFCURVE",
"407 -168 OFFCURVE",
"407 -101 CURVE SMOOTH",
"407 -55 OFFCURVE",
"371 -36 OFFCURVE",
"328 -33 CURVE",
"330 -11 LINE",
"463 -2 OFFCURVE",
"559 84 OFFCURVE",
"559 254 CURVE",
"434 254 LINE",
"434 148 OFFCURVE",
"385 98 OFFCURVE",
"311 98 CURVE SMOOTH",
"213 98 OFFCURVE",
"166 181 OFFCURVE",
"166 318 CURVE SMOOTH",
"166 368 LINE SMOOTH",
"166 505 OFFCURVE",
"212 588 OFFCURVE",
"307 588 CURVE SMOOTH",
"379 588 OFFCURVE",
"428 537 OFFCURVE",
"428 431 CURVE",
"559 431 LINE",
"559 617 OFFCURVE",
"450 698 OFFCURVE",
"307 698 CURVE SMOOTH",
"135 698 OFFCURVE",
"34 585 OFFCURVE",
"34 343 CURVE SMOOTH",
"34 122 OFFCURVE",
"117 9 OFFCURVE",
"262 -9 CURVE",
"254 -77 LINE",
"287 -77 LINE SMOOTH",
"313 -77 OFFCURVE",
"321 -85 OFFCURVE",
"321 -101 CURVE SMOOTH",
"321 -120 OFFCURVE",
"307 -125 OFFCURVE",
"285 -125 CURVE SMOOTH",
"214 -125 LINE",
"214 -174 LINE",
"238 -179 OFFCURVE",
"270 -182 OFFCURVE",
"298 -182 CURVE SMOOTH"
);
}
);
};
components = (
{
name = C;
},
{
name = cedillacomb.case;
transform = "{1, 0, 0, 1, 222, 0}";
}
);
layerId = "31F25340-C351-400F-9C98-C04A412D1947";
width = 592;
}
);
leftKerningGroup = C;
rightKerningGroup = C;
unicode = 00C7;
},
{
glyphname = Ccircumflex;
layers = (
{
background = {
paths = (
{
closed = 1;
nodes = (
"452 -12 OFFCURVE",
"551 69 OFFCURVE",
"551 246 CURVE",
"464 246 LINE",
"464 127 OFFCURVE",
"404 69 OFFCURVE",
"312 69 CURVE SMOOTH",
"192 69 OFFCURVE",
"134 151 OFFCURVE",
"134 318 CURVE SMOOTH",
"134 368 LINE SMOOTH",
"134 535 OFFCURVE",
"192 617 OFFCURVE",
"312 617 CURVE SMOOTH",
"402 617 OFFCURVE",
"461 558 OFFCURVE",
"461 438 CURVE",
"551 438 LINE",
"551 613 OFFCURVE",
"452 698 OFFCURVE",
"312 698 CURVE SMOOTH",
"134 698 OFFCURVE",
"42 581 OFFCURVE",
"42 343 CURVE SMOOTH",
"42 105 OFFCURVE",
"134 -12 OFFCURVE",
"312 -12 CURVE SMOOTH"
);
},
{
closed = 1;
nodes = (
"251 747 LINE",
"297 826 LINE",
"341 747 LINE",
"421 747 LINE",
"335 882 LINE",
"257 882 LINE",
"171 747 LINE"
);
}
);
};
components = (
{
name = C;
},
{
name = circumflexcomb.case;
transform = "{1, 0, 0, 1, 171, 160}";
}
);
layerId = UUID0;
width = 592;
},
{
background = {
paths = (
{
closed = 1;
nodes = (
"452 -12 OFFCURVE",
"559 74 OFFCURVE",
"559 254 CURVE",
"434 254 LINE",
"434 148 OFFCURVE",
"385 98 OFFCURVE",
"311 98 CURVE SMOOTH",
"213 98 OFFCURVE",
"166 181 OFFCURVE",
"166 318 CURVE SMOOTH",
"166 368 LINE SMOOTH",
"166 505 OFFCURVE",
"212 588 OFFCURVE",
"307 588 CURVE SMOOTH",
"379 588 OFFCURVE",
"428 537 OFFCURVE",
"428 431 CURVE",
"559 431 LINE",
"559 617 OFFCURVE",
"450 698 OFFCURVE",
"307 698 CURVE SMOOTH",
"135 698 OFFCURVE",
"34 585 OFFCURVE",
"34 343 CURVE SMOOTH",
"34 101 OFFCURVE",
"135 -12 OFFCURVE",
"307 -12 CURVE SMOOTH"
);
},
{
closed = 1;
nodes = (
"262 748 LINE",
"307 817 LINE",
"352 748 LINE",
"441 748 LINE",
"356 883 LINE",
"258 883 LINE",
"172 748 LINE"
);
}
);
};
components = (
{
name = C;
},
{
name = circumflexcomb.case;
transform = "{1, 0, 0, 1, 172, 160}";
}
);
layerId = "31F25340-C351-400F-9C98-C04A412D1947";
width = 592;
}
);
leftKerningGroup = C;
rightKerningGroup = C;
unicode = 0108;
},
{
glyphname = Cdotaccent;
layers = (
{
background = {
paths = (
{
closed = 1;
nodes = (
"452 -12 OFFCURVE",
"551 69 OFFCURVE",
"551 246 CURVE",
"464 246 LINE",
"464 127 OFFCURVE",
"404 69 OFFCURVE",
"312 69 CURVE SMOOTH",
"192 69 OFFCURVE",
"134 151 OFFCURVE",
"134 318 CURVE SMOOTH",
"134 368 LINE SMOOTH",
"134 535 OFFCURVE",
"192 617 OFFCURVE",
"312 617 CURVE SMOOTH",
"402 617 OFFCURVE",
"461 558 OFFCURVE",
"461 438 CURVE",
"551 438 LINE",
"551 613 OFFCURVE",
"452 698 OFFCURVE",
"312 698 CURVE SMOOTH",
"134 698 OFFCURVE",
"42 581 OFFCURVE",
"42 343 CURVE SMOOTH",
"42 105 OFFCURVE",
"134 -12 OFFCURVE",
"312 -12 CURVE SMOOTH"
);
},
{
closed = 1;
nodes = (
"340 788 LINE",
"340 883 LINE",
"252 883 LINE",
"252 788 LINE"
);
}
);
};
components = (
{
name = C;
},
{
name = dotaccentcomb.case;
transform = "{1, 0, 0, 1, 251, 160}";
}
);
layerId = UUID0;
width = 592;
},
{
background = {
paths = (
{
closed = 1;
nodes = (
"452 -12 OFFCURVE",
"559 74 OFFCURVE",
"559 254 CURVE",
"434 254 LINE",
"434 148 OFFCURVE",
"385 98 OFFCURVE",
"311 98 CURVE SMOOTH",
"213 98 OFFCURVE",
"166 181 OFFCURVE",
"166 318 CURVE SMOOTH",
"166 368 LINE SMOOTH",
"166 505 OFFCURVE",
"212 588 OFFCURVE",
"307 588 CURVE SMOOTH",
"379 588 OFFCURVE",
"428 537 OFFCURVE",
"428 431 CURVE",
"559 431 LINE",
"559 617 OFFCURVE",
"450 698 OFFCURVE",
"307 698 CURVE SMOOTH",
"135 698 OFFCURVE",
"34 585 OFFCURVE",
"34 343 CURVE SMOOTH",
"34 101 OFFCURVE",
"135 -12 OFFCURVE",
"307 -12 CURVE SMOOTH"
);
},
{
closed = 1;
nodes = (
"360 768 LINE",
"360 883 LINE",
"253 883 LINE",
"253 768 LINE"
);
}
);
};
components = (
{
name = C;
},
{
name = dotaccentcomb.case;
transform = "{1, 0, 0, 1, 243, 160}";
}
);
layerId = "31F25340-C351-400F-9C98-C04A412D1947";
width = 592;
}
);
leftKerningGroup = C;
rightKerningGroup = C;
unicode = 010A;
},
{
glyphname = D;
layers = (
{
anchors = (
{
name = bottom;
position = "{296, 0}";
},
{
name = center;
position = "{296, 343}";
},
{
name = top;
position = "{276, 686}";
}
);
background = {
paths = (
{
closed = 1;
nodes = (
"70 686 LINE",
"70 0 LINE",
"283 0 LINE",
"445 0 OFFCURVE",
"543 118 OFFCURVE",
"543 353 CURVE SMOOTH",
"543 574 OFFCURVE",
"445 686 OFFCURVE",
"283 686 CURVE SMOOTH"
);
},
{
closed = 1;
nodes = (
"275 602 LINE",
"383 602 OFFCURVE",
"451 528 OFFCURVE",
"451 378 CURVE SMOOTH",
"451 328 LINE SMOOTH",
"451 164 OFFCURVE",
"383 84 OFFCURVE",
"275 84 CURVE SMOOTH",
"158 84 LINE",
"158 602 LINE"
);
}
);
};
layerId = UUID0;
paths = (
{
closed = 1;
nodes = (
"283 0 LINE",
"445 0 OFFCURVE",
"543 118 OFFCURVE",
"543 353 CURVE SMOOTH",
"543 574 OFFCURVE",
"445 686 OFFCURVE",
"283 686 CURVE SMOOTH",
"70 686 LINE",
"70 0 LINE"
);
},
{
closed = 1;
nodes = (
"158 606 LINE",
"275 606 LINE",
"383 606 OFFCURVE",
"451 531 OFFCURVE",
"451 378 CURVE SMOOTH",
"451 328 LINE SMOOTH",
"451 161 OFFCURVE",
"383 80 OFFCURVE",
"275 80 CURVE SMOOTH",
"158 80 LINE"
);
}
);
width = 592;
},
{
anchors = (
{
name = bottom;
position = "{253, 0}";
},
{
name = center;
position = "{296, 343}";
},
{
name = top;
position = "{263, 686}";
}
);
background = {
paths = (
{
closed = 1;
nodes = (
"50 686 LINE",
"50 0 LINE",
"283 0 LINE",
"454 0 OFFCURVE",
"558 118 OFFCURVE",
"558 353 CURVE SMOOTH",
"558 574 OFFCURVE",
"454 686 OFFCURVE",
"283 686 CURVE SMOOTH"
);
},
{
closed = 1;
nodes = (
"271 572 LINE",
"366 572 OFFCURVE",
"426 507 OFFCURVE",
"426 378 CURVE SMOOTH",
"426 328 LINE SMOOTH",
"426 185 OFFCURVE",
"366 114 OFFCURVE",
"271 114 CURVE SMOOTH",
"178 114 LINE",
"178 572 LINE"
);
}
);
};
layerId = "31F25340-C351-400F-9C98-C04A412D1947";
paths = (
{
closed = 1;
nodes = (
"283 0 LINE",
"454 0 OFFCURVE",
"558 118 OFFCURVE",
"558 353 CURVE SMOOTH",
"558 574 OFFCURVE",
"454 686 OFFCURVE",
"283 686 CURVE SMOOTH",
"60 686 LINE",
"60 0 LINE"
);
},
{
closed = 1;
nodes = (
"188 572 LINE",
"271 572 LINE",
"366 572 OFFCURVE",
"426 507 OFFCURVE",
"426 378 CURVE SMOOTH",
"426 328 LINE SMOOTH",
"426 185 OFFCURVE",
"366 114 OFFCURVE",
"271 114 CURVE SMOOTH",
"188 114 LINE"
);
}
);
width = 592;
}
);
leftKerningGroup = D;
rightKerningGroup = D;
unicode = 0044;
},
{
glyphname = Eth;
layers = (
{
background = {
paths = (
{
closed = 1;
nodes = (
"70 686 LINE",
"70 387 LINE",
"5 387 LINE",
"5 323 LINE",
"70 323 LINE",
"70 0 LINE",
"283 0 LINE SMOOTH",
"445 0 OFFCURVE",
"543 118 OFFCURVE",
"543 353 CURVE SMOOTH",
"543 574 OFFCURVE",
"445 686 OFFCURVE",
"283 686 CURVE SMOOTH"
);
},
{
closed = 1;
nodes = (
"275 602 LINE",
"383 602 OFFCURVE",
"451 528 OFFCURVE",
"451 378 CURVE SMOOTH",
"451 328 LINE SMOOTH",
"451 164 OFFCURVE",
"383 84 OFFCURVE",
"275 84 CURVE SMOOTH",
"158 84 LINE",
"158 323 LINE",
"315 323 LINE",
"315 387 LINE",
"158 387 LINE",
"158 602 LINE"
);
}
);
};
layerId = UUID0;
paths = (
{
closed = 1;
nodes = (
"283 0 LINE SMOOTH",
"445 0 OFFCURVE",
"543 118 OFFCURVE",
"543 353 CURVE SMOOTH",
"543 574 OFFCURVE",
"445 686 OFFCURVE",
"283 686 CURVE SMOOTH",
"70 686 LINE",
"70 387 LINE",
"5 387 LINE",
"5 323 LINE",
"70 323 LINE",
"70 0 LINE"
);
},
{
closed = 1;
nodes = (
"158 323 LINE",
"315 323 LINE",
"315 387 LINE",
"158 387 LINE",
"158 606 LINE",
"275 606 LINE",
"383 606 OFFCURVE",
"451 531 OFFCURVE",
"451 378 CURVE SMOOTH",
"451 328 LINE SMOOTH",
"451 161 OFFCURVE",
"383 80 OFFCURVE",
"275 80 CURVE SMOOTH",
"158 80 LINE"
);
}
);
width = 592;
},
{
background = {
paths = (
{
closed = 1;
nodes = (
"50 686 LINE",
"50 397 LINE",
"0 397 LINE",
"0 312 LINE",
"50 312 LINE",
"50 0 LINE",
"283 0 LINE SMOOTH",
"454 0 OFFCURVE",
"558 118 OFFCURVE",
"558 353 CURVE SMOOTH",
"558 574 OFFCURVE",
"454 686 OFFCURVE",
"283 686 CURVE SMOOTH"
);
},
{
closed = 1;
nodes = (
"271 572 LINE",
"366 572 OFFCURVE",
"426 507 OFFCURVE",
"426 378 CURVE SMOOTH",
"426 328 LINE SMOOTH",
"426 185 OFFCURVE",
"366 114 OFFCURVE",
"271 114 CURVE SMOOTH",
"178 114 LINE",
"178 312 LINE",
"303 312 LINE",
"303 397 LINE",
"178 397 LINE",
"178 572 LINE"
);
}
);
};
layerId = "31F25340-C351-400F-9C98-C04A412D1947";
paths = (
{
closed = 1;
nodes = (
"283 0 LINE SMOOTH",
"454 0 OFFCURVE",
"558 118 OFFCURVE",
"558 353 CURVE SMOOTH",
"558 574 OFFCURVE",
"454 686 OFFCURVE",
"283 686 CURVE SMOOTH",
"60 686 LINE",
"60 397 LINE",
"10 397 LINE",
"10 312 LINE",
"60 312 LINE",
"60 0 LINE"
);
},
{
closed = 1;
nodes = (
"188 312 LINE",
"313 312 LINE",
"313 397 LINE",
"188 397 LINE",
"188 572 LINE",
"271 572 LINE",
"366 572 OFFCURVE",
"426 507 OFFCURVE",
"426 378 CURVE SMOOTH",
"426 328 LINE SMOOTH",
"426 185 OFFCURVE",
"366 114 OFFCURVE",
"271 114 CURVE SMOOTH",
"188 114 LINE"
);
}
);
width = 592;
}
);
leftKerningGroup = D;
rightKerningGroup = D;
unicode = 00D0;
},
{
glyphname = Dcaron;
layers = (
{
background = {
paths = (
{
closed = 1;
nodes = (
"283 0 LINE SMOOTH",
"445 0 OFFCURVE",
"543 118 OFFCURVE",
"543 353 CURVE SMOOTH",
"543 574 OFFCURVE",
"445 686 OFFCURVE",
"283 686 CURVE SMOOTH",
"70 686 LINE",
"70 0 LINE"
);
},
{
closed = 1;
nodes = (
"158 606 LINE",
"275 606 LINE SMOOTH",
"383 606 OFFCURVE",
"451 531 OFFCURVE",
"451 378 CURVE SMOOTH",
"451 328 LINE SMOOTH",
"451 161 OFFCURVE",
"383 80 OFFCURVE",
"275 80 CURVE SMOOTH",
"158 80 LINE"
);
},
{
closed = 1;
nodes = (
"334 748 LINE",
"421 883 LINE",
"341 883 LINE",
"296 804 LINE",
"251 883 LINE",
"171 883 LINE",
"256 748 LINE"
);
}
);
};
components = (
{
name = D;
},
{
name = caroncomb.case;
transform = "{1, 0, 0, 1, 151, 160}";
}
);
layerId = UUID0;
width = 592;
},
{
background = {
paths = (
{
closed = 1;
nodes = (
"283 0 LINE SMOOTH",
"454 0 OFFCURVE",
"558 118 OFFCURVE",
"558 353 CURVE SMOOTH",
"558 574 OFFCURVE",
"454 686 OFFCURVE",
"283 686 CURVE SMOOTH",
"60 686 LINE",
"60 0 LINE"
);
},
{
closed = 1;
nodes = (
"188 572 LINE",
"271 572 LINE SMOOTH",
"366 572 OFFCURVE",
"426 507 OFFCURVE",
"426 378 CURVE SMOOTH",
"426 328 LINE SMOOTH",
"426 185 OFFCURVE",
"366 114 OFFCURVE",
"271 114 CURVE SMOOTH",
"188 114 LINE"
);
},
{
closed = 1;
nodes = (
"303 748 LINE",
"388 883 LINE",
"298 883 LINE",
"254 814 LINE",
"209 883 LINE",
"119 883 LINE",
"205 748 LINE"
);
}
);
};
components = (
{
name = D;
},
{
name = caroncomb.case;
transform = "{1, 0, 0, 1, 128, 160}";
}
);
layerId = "31F25340-C351-400F-9C98-C04A412D1947";
width = 592;
}
);
leftKerningGroup = D;
rightKerningGroup = D;
unicode = 010E;
},
{
glyphname = Dcroat;
layers = (
{
background = {
paths = (
{
closed = 1;
nodes = (
"283 0 LINE SMOOTH",
"445 0 OFFCURVE",
"543 118 OFFCURVE",
"543 353 CURVE SMOOTH",
"543 574 OFFCURVE",
"445 686 OFFCURVE",
"283 686 CURVE SMOOTH",
"70 686 LINE",
"70 387 LINE",
"5 387 LINE",
"5 323 LINE",
"70 323 LINE",
"70 0 LINE"
);
},
{
closed = 1;
nodes = (
"158 323 LINE",
"315 323 LINE",
"315 387 LINE",
"158 387 LINE",
"158 606 LINE",
"275 606 LINE SMOOTH",
"383 606 OFFCURVE",
"451 531 OFFCURVE",
"451 378 CURVE SMOOTH",
"451 328 LINE SMOOTH",
"451 161 OFFCURVE",
"383 80 OFFCURVE",
"275 80 CURVE SMOOTH",
"158 80 LINE"
);
}
);
};
components = (
{
name = Eth;
}
);
layerId = UUID0;
width = 592;
},
{
background = {
paths = (
{
closed = 1;
nodes = (
"283 0 LINE SMOOTH",
"454 0 OFFCURVE",
"558 118 OFFCURVE",
"558 353 CURVE SMOOTH",
"558 574 OFFCURVE",
"454 686 OFFCURVE",
"283 686 CURVE SMOOTH",
"60 686 LINE",
"60 397 LINE",
"10 397 LINE",
"10 312 LINE",
"60 312 LINE",
"60 0 LINE"
);
},
{
closed = 1;
nodes = (
"188 312 LINE",
"313 312 LINE",
"313 397 LINE",
"188 397 LINE",
"188 572 LINE",
"271 572 LINE SMOOTH",
"366 572 OFFCURVE",
"426 507 OFFCURVE",
"426 378 CURVE SMOOTH",
"426 328 LINE SMOOTH",
"426 185 OFFCURVE",
"366 114 OFFCURVE",
"271 114 CURVE SMOOTH",
"188 114 LINE"
);
}
);
};
components = (
{
name = Eth;
}
);
layerId = "31F25340-C351-400F-9C98-C04A412D1947";
width = 592;
}
);
leftKerningGroup = D;
rightKerningGroup = D;
unicode = 0110;
},
{
glyphname = E;
layers = (
{
anchors = (
{
name = bottom;
position = "{291, 0}";
},
{
name = ogonek;
position = "{499, 0}";
},
{
name = top;
position = "{283, 686}";
}
);
background = {
paths = (
{
closed = 1;
nodes = (
"499 686 LINE",
"70 686 LINE",
"70 0 LINE",
"506 0 LINE",
"492 84 LINE",
"158 84 LINE",
"158 309 LINE",
"459 309 LINE",
"459 393 LINE",
"158 393 LINE",
"158 602 LINE",
"486 602 LINE"
);
}
);
};
layerId = UUID0;
paths = (
{
closed = 1;
nodes = (
"499 0 LINE",
"499 80 LINE",
"158 80 LINE",
"158 311 LINE",
"449 311 LINE",
"449 391 LINE",
"158 391 LINE",
"158 606 LINE",
"493 606 LINE",
"493 686 LINE",
"70 686 LINE",
"70 0 LINE"
);
}
);
width = 547;
},
{
anchors = (
{
name = bottom;
position = "{293, 0}";
},
{
name = ogonek;
position = "{503, 0}";
},
{
name = top;
position = "{279, 686}";
}
);
background = {
paths = (
{
closed = 1;
nodes = (
"505 686 LINE",
"49 686 LINE",
"49 0 LINE",
"512 0 LINE",
"495 114 LINE",
"177 114 LINE",
"177 294 LINE",
"465 294 LINE",
"465 408 LINE",
"177 408 LINE",
"177 572 LINE",
"489 572 LINE"
);
}
);
};
layerId = "31F25340-C351-400F-9C98-C04A412D1947";
paths = (
{
closed = 1;
nodes = (
"503 0 LINE",
"503 114 LINE",
"188 114 LINE",
"188 294 LINE",
"453 294 LINE",
"453 408 LINE",
"188 408 LINE",
"188 572 LINE",
"497 572 LINE",
"497 686 LINE",
"60 686 LINE",
"60 0 LINE"
);
}
);
width = 547;
}
);
leftKerningGroup = E;
rightKerningGroup = E;
unicode = 0045;
},
{
glyphname = Eacute;
layers = (
{
background = {
paths = (
{
closed = 1;
nodes = (
"499 0 LINE",
"499 80 LINE",
"158 80 LINE",
"158 311 LINE",
"449 311 LINE",
"449 391 LINE",
"158 391 LINE",
"158 606 LINE",
"493 606 LINE",
"493 686 LINE",
"70 686 LINE",
"70 0 LINE"
);
},
{
closed = 1;
nodes = (
"283 751 LINE",
"391 880 LINE",
"390 883 LINE",
"300 883 LINE",
"214 751 LINE"
);
}
);
};
components = (
{
name = E;
},
{
name = acutecomb.case;
transform = "{1, 0, 0, 1, 215, 160}";
}
);
layerId = UUID0;
width = 547;
},
{
background = {
paths = (
{
closed = 1;
nodes = (
"503 0 LINE",
"503 114 LINE",
"188 114 LINE",
"188 294 LINE",
"453 294 LINE",
"453 408 LINE",
"188 408 LINE",
"188 572 LINE",
"497 572 LINE",
"497 686 LINE",
"60 686 LINE",
"60 0 LINE"
);
},
{
closed = 1;
nodes = (
"304 751 LINE",
"412 880 LINE",
"411 883 LINE",
"291 883 LINE",
"205 751 LINE"
);
}
);
};
components = (
{
name = E;
},
{
name = acutecomb.case;
transform = "{1, 0, 0, 1, 205, 160}";
}
);
layerId = "31F25340-C351-400F-9C98-C04A412D1947";
width = 547;
}
);
leftKerningGroup = E;
rightKerningGroup = E;
unicode = 00C9;
},
{
glyphname = Ebreve;
layers = (
{
background = {
paths = (
{
closed = 1;
nodes = (
"499 0 LINE",
"499 80 LINE",
"158 80 LINE",
"158 311 LINE",
"449 311 LINE",
"449 391 LINE",
"158 391 LINE",
"158 606 LINE",
"493 606 LINE",
"493 686 LINE",
"70 686 LINE",
"70 0 LINE"
);
},
{
closed = 1;
nodes = (
"350 786 OFFCURVE",
"397 838 OFFCURVE",
"397 883 CURVE",
"333 883 LINE",
"332 869 OFFCURVE",
"307 850 OFFCURVE",
"273 850 CURVE SMOOTH",
"240 850 OFFCURVE",
"217 869 OFFCURVE",
"214 883 CURVE",
"150 883 LINE",
"150 838 OFFCURVE",
"197 786 OFFCURVE",
"273 786 CURVE SMOOTH"
);
}
);
};
components = (
{
name = E;
},
{
name = brevecomb.case;
transform = "{1, 0, 0, 1, 159, 160}";
}
);
layerId = UUID0;
width = 547;
},
{
background = {
paths = (
{
closed = 1;
nodes = (
"503 0 LINE",
"503 114 LINE",
"188 114 LINE",
"188 294 LINE",
"453 294 LINE",
"453 408 LINE",
"188 408 LINE",
"188 572 LINE",
"497 572 LINE",
"497 686 LINE",
"60 686 LINE",
"60 0 LINE"
);
},
{
closed = 1;
nodes = (
"356 776 OFFCURVE",
"407 833 OFFCURVE",
"407 883 CURVE",
"333 883 LINE",
"331 869 OFFCURVE",
"307 850 OFFCURVE",
"273 850 CURVE SMOOTH",
"240 850 OFFCURVE",
"217 869 OFFCURVE",
"214 883 CURVE",
"140 883 LINE",
"140 833 OFFCURVE",
"191 776 OFFCURVE",
"273 776 CURVE SMOOTH"
);
}
);
};
components = (
{
name = E;
},
{
name = brevecomb.case;
transform = "{1, 0, 0, 1, 145, 160}";
}
);
layerId = "31F25340-C351-400F-9C98-C04A412D1947";
width = 547;
}
);
leftKerningGroup = E;
rightKerningGroup = E;
unicode = 0114;
},
{
glyphname = Ecaron;
layers = (
{
background = {
paths = (
{
closed = 1;
nodes = (
"499 0 LINE",
"499 80 LINE",
"158 80 LINE",
"158 311 LINE",
"449 311 LINE",
"449 391 LINE",
"158 391 LINE",
"158 606 LINE",
"493 606 LINE",
"493 686 LINE",
"70 686 LINE",
"70 0 LINE"
);
},
{
closed = 1;
nodes = (
"312 748 LINE",
"398 883 LINE",
"318 883 LINE",
"273 804 LINE",
"229 883 LINE",
"149 883 LINE",
"234 748 LINE"
);
}
);
};
components = (
{
name = E;
},
{
name = caroncomb.case;
transform = "{1, 0, 0, 1, 158, 160}";
}
);
layerId = UUID0;
width = 547;
},
{
background = {
paths = (
{
closed = 1;
nodes = (
"503 0 LINE",
"503 114 LINE",
"188 114 LINE",
"188 294 LINE",
"453 294 LINE",
"453 408 LINE",
"188 408 LINE",
"188 572 LINE",
"497 572 LINE",
"497 686 LINE",
"60 686 LINE",
"60 0 LINE"
);
},
{
closed = 1;
nodes = (
"323 748 LINE",
"408 883 LINE",
"318 883 LINE",
"274 814 LINE",
"229 883 LINE",
"139 883 LINE",
"225 748 LINE"
);
}
);
};
components = (
{
name = E;
},
{
name = caroncomb.case;
transform = "{1, 0, 0, 1, 144, 160}";
}
);
layerId = "31F25340-C351-400F-9C98-C04A412D1947";
width = 547;
}
);
leftKerningGroup = E;
rightKerningGroup = E;
unicode = 011A;
},
{
glyphname = Ecircumflex;
layers = (
{
background = {
paths = (
{
closed = 1;
nodes = (
"499 0 LINE",
"499 80 LINE",
"158 80 LINE",
"158 311 LINE",
"449 311 LINE",
"449 391 LINE",
"158 391 LINE",
"158 606 LINE",
"493 606 LINE",
"493 686 LINE",
"70 686 LINE",
"70 0 LINE"
);
},
{
closed = 1;
nodes = (
"229 747 LINE",
"274 826 LINE",
"318 747 LINE",
"398 747 LINE",
"313 882 LINE",
"235 882 LINE",
"149 747 LINE"
);
}
);
};
components = (
{
name = E;
},
{
name = circumflexcomb.case;
transform = "{1, 0, 0, 1, 158, 160}";
}
);
layerId = UUID0;
width = 547;
},
{
background = {
paths = (
{
closed = 1;
nodes = (
"503 0 LINE",
"503 114 LINE",
"188 114 LINE",
"188 294 LINE",
"453 294 LINE",
"453 408 LINE",
"188 408 LINE",
"188 572 LINE",
"497 572 LINE",
"497 686 LINE",
"60 686 LINE",
"60 0 LINE"
);
},
{
closed = 1;
nodes = (
"229 748 LINE",
"274 817 LINE",
"318 748 LINE",
"408 748 LINE",
"323 883 LINE",
"225 883 LINE",
"139 748 LINE"
);
}
);
};
components = (
{
name = E;
},
{
name = circumflexcomb.case;
transform = "{1, 0, 0, 1, 144, 160}";
}
);
layerId = "31F25340-C351-400F-9C98-C04A412D1947";
width = 547;
}
);
leftKerningGroup = E;
rightKerningGroup = E;
unicode = 00CA;
},
{
glyphname = Edieresis;
layers = (
{
background = {
paths = (
{
closed = 1;
nodes = (
"499 0 LINE",
"499 80 LINE",
"158 80 LINE",
"158 311 LINE",
"449 311 LINE",
"449 391 LINE",
"158 391 LINE",
"158 606 LINE",
"493 606 LINE",
"493 686 LINE",
"70 686 LINE",
"70 0 LINE"
);
},
{
closed = 1;
nodes = (
"242 788 LINE",
"242 883 LINE",
"155 883 LINE",
"155 788 LINE"
);
},
{
closed = 1;
nodes = (
"392 788 LINE",
"392 883 LINE",
"305 883 LINE",
"305 788 LINE"
);
}
);
};
components = (
{
name = E;
},
{
name = dieresiscomb.case;
transform = "{1, 0, 0, 1, 164, 160}";
}
);
layerId = UUID0;
width = 547;
},
{
background = {
paths = (
{
closed = 1;
nodes = (
"503 0 LINE",
"503 114 LINE",
"188 114 LINE",
"188 294 LINE",
"453 294 LINE",
"453 408 LINE",
"188 408 LINE",
"188 572 LINE",
"497 572 LINE",
"497 686 LINE",
"60 686 LINE",
"60 0 LINE"
);
},
{
closed = 1;
nodes = (
"236 774 LINE",
"236 883 LINE",
"136 883 LINE",
"136 774 LINE"
);
},
{
closed = 1;
nodes = (
"411 774 LINE",
"411 883 LINE",
"311 883 LINE",
"311 774 LINE"
);
}
);
};
components = (
{
name = E;
},
{
name = dieresiscomb.case;
transform = "{1, 0, 0, 1, 141, 160}";
}
);
layerId = "31F25340-C351-400F-9C98-C04A412D1947";
width = 547;
}
);
leftKerningGroup = E;
rightKerningGroup = E;
unicode = 00CB;
},
{
glyphname = Edotaccent;
layers = (
{
background = {
paths = (
{
closed = 1;
nodes = (
"499 0 LINE",
"499 80 LINE",
"158 80 LINE",
"158 311 LINE",
"449 311 LINE",
"449 391 LINE",
"158 391 LINE",
"158 606 LINE",
"493 606 LINE",
"493 686 LINE",
"70 686 LINE",
"70 0 LINE"
);
},
{
closed = 1;
nodes = (
"317 788 LINE",
"317 883 LINE",
"230 883 LINE",
"230 788 LINE"
);
}
);
};
components = (
{
name = E;
},
{
name = dotaccentcomb.case;
transform = "{1, 0, 0, 1, 238, 160}";
}
);
layerId = UUID0;
width = 547;
},
{
background = {
paths = (
{
closed = 1;
nodes = (
"503 0 LINE",
"503 114 LINE",
"188 114 LINE",
"188 294 LINE",
"453 294 LINE",
"453 408 LINE",
"188 408 LINE",
"188 572 LINE",
"497 572 LINE",
"497 686 LINE",
"60 686 LINE",
"60 0 LINE"
);
},
{
closed = 1;
nodes = (
"327 768 LINE",
"327 883 LINE",
"220 883 LINE",
"220 768 LINE"
);
}
);
};
components = (
{
name = E;
},
{
name = dotaccentcomb.case;
transform = "{1, 0, 0, 1, 215, 160}";
}
);
layerId = "31F25340-C351-400F-9C98-C04A412D1947";
width = 547;
}
);
leftKerningGroup = E;
rightKerningGroup = E;
unicode = 0116;
},
{
glyphname = Egrave;
layers = (
{
background = {
paths = (
{
closed = 1;
nodes = (
"499 0 LINE",
"499 80 LINE",
"158 80 LINE",
"158 311 LINE",
"449 311 LINE",
"449 391 LINE",
"158 391 LINE",
"158 606 LINE",
"493 606 LINE",
"493 686 LINE",
"70 686 LINE",
"70 0 LINE"
);
},
{
closed = 1;
nodes = (
"333 751 LINE",
"247 883 LINE",
"157 883 LINE",
"156 880 LINE",
"264 751 LINE"
);
}
);
};
components = (
{
name = E;
},
{
name = gravecomb.case;
transform = "{1, 0, 0, 1, 159, 160}";
}
);
layerId = UUID0;
width = 547;
},
{
background = {
paths = (
{
closed = 1;
nodes = (
"503 0 LINE",
"503 114 LINE",
"188 114 LINE",
"188 294 LINE",
"453 294 LINE",
"453 408 LINE",
"188 408 LINE",
"188 572 LINE",
"497 572 LINE",
"497 686 LINE",
"60 686 LINE",
"60 0 LINE"
);
},
{
closed = 1;
nodes = (
"342 751 LINE",
"256 883 LINE",
"136 883 LINE",
"135 880 LINE",
"243 751 LINE"
);
}
);
};
components = (
{
name = E;
},
{
name = gravecomb.case;
transform = "{1, 0, 0, 1, 141, 160}";
}
);
layerId = "31F25340-C351-400F-9C98-C04A412D1947";
width = 547;
}
);
leftKerningGroup = E;
rightKerningGroup = E;
unicode = 00C8;
},
{
glyphname = Emacron;
layers = (
{
background = {
paths = (
{
closed = 1;
nodes = (
"499 0 LINE",
"499 80 LINE",
"158 80 LINE",
"158 311 LINE",
"449 311 LINE",
"449 391 LINE",
"158 391 LINE",
"158 606 LINE",
"493 606 LINE",
"493 686 LINE",
"70 686 LINE",
"70 0 LINE"
);
},
{
closed = 1;
nodes = (
"399 759 LINE",
"399 831 LINE",
"148 831 LINE",
"148 759 LINE"
);
}
);
};
components = (
{
name = E;
},
{
name = macroncomb.case;
transform = "{1, 0, 0, 1, 158, 160}";
}
);
layerId = UUID0;
width = 547;
},
{
background = {
paths = (
{
closed = 1;
nodes = (
"503 0 LINE",
"503 114 LINE",
"188 114 LINE",
"188 294 LINE",
"453 294 LINE",
"453 408 LINE",
"188 408 LINE",
"188 572 LINE",
"497 572 LINE",
"497 686 LINE",
"60 686 LINE",
"60 0 LINE"
);
},
{
closed = 1;
nodes = (
"401 759 LINE",
"401 846 LINE",
"146 846 LINE",
"146 759 LINE"
);
}
);
};
components = (
{
name = E;
},
{
name = macroncomb.case;
transform = "{1, 0, 0, 1, 151, 160}";
}
);
layerId = "31F25340-C351-400F-9C98-C04A412D1947";
width = 547;
}
);
leftKerningGroup = E;
rightKerningGroup = E;
unicode = 0112;
},
{
glyphname = Eogonek;
layers = (
{
background = {
paths = (
{
closed = 1;
nodes = (
"511 -182 OFFCURVE",
"531 -177 OFFCURVE",
"552 -168 CURVE",
"552 -117 LINE",
"521 -117 LINE SMOOTH",
"487 -117 OFFCURVE",
"475 -90 OFFCURVE",
"475 -62 CURVE SMOOTH",
"475 -38 OFFCURVE",
"488 -15 OFFCURVE",
"499 0 CURVE",
"499 80 LINE",
"158 80 LINE",
"158 311 LINE",
"449 311 LINE",
"449 391 LINE",
"158 391 LINE",
"158 606 LINE",
"493 606 LINE",
"493 686 LINE",
"70 686 LINE",
"70 0 LINE",
"434 0 LINE",
"413 -23 OFFCURVE",
"397 -50 OFFCURVE",
"397 -92 CURVE SMOOTH",
"397 -161 OFFCURVE",
"448 -182 OFFCURVE",
"491 -182 CURVE SMOOTH"
);
}
);
};
components = (
{
name = E;
},
{
name = ogonekcomb.case;
transform = "{1, 0, 0, 1, 371, 0}";
}
);
layerId = UUID0;
width = 547;
},
{
background = {
paths = (
{
closed = 1;
nodes = (
"496 -190 OFFCURVE",
"517 -185 OFFCURVE",
"540 -176 CURVE",
"540 -121 LINE",
"518 -121 LINE SMOOTH",
"485 -121 OFFCURVE",
"473 -96 OFFCURVE",
"473 -70 CURVE SMOOTH",
"473 -42 OFFCURVE",
"491 -14 OFFCURVE",
"503 0 CURVE",
"503 114 LINE",
"188 114 LINE",
"188 294 LINE",
"453 294 LINE",
"453 408 LINE",
"188 408 LINE",
"188 572 LINE",
"497 572 LINE",
"497 686 LINE",
"60 686 LINE",
"60 0 LINE",
"419 0 LINE",
"395 -25 OFFCURVE",
"375 -53 OFFCURVE",
"375 -100 CURVE SMOOTH",
"375 -169 OFFCURVE",
"428 -190 OFFCURVE",
"474 -190 CURVE SMOOTH"
);
}
);
};
components = (
{
name = E;
},
{
name = ogonekcomb.case;
transform = "{1, 0, 0, 1, 357, 0}";
}
);
layerId = "31F25340-C351-400F-9C98-C04A412D1947";
width = 547;
}
);
leftKerningGroup = E;
rightKerningGroup = E;
unicode = 0118;
},
{
glyphname = F;
layers = (
{
background = {
paths = (
{
closed = 1;
nodes = (
"472 686 LINE",
"70 686 LINE",
"70 0 LINE",
"158 0 LINE",
"158 302 LINE",
"432 302 LINE",
"432 386 LINE",
"158 386 LINE",
"158 602 LINE",
"459 602 LINE"
);
}
);
};
layerId = UUID0;
paths = (
{
closed = 1;
nodes = (
"158 0 LINE",
"158 304 LINE",
"430 304 LINE",
"430 384 LINE",
"158 384 LINE",
"158 606 LINE",
"466 606 LINE",
"466 686 LINE",
"70 686 LINE",
"70 0 LINE"
);
}
);
width = 501;
},
{
background = {
paths = (
{
closed = 1;
nodes = (
"473 686 LINE",
"50 686 LINE",
"50 0 LINE",
"178 0 LINE",
"178 285 LINE",
"433 285 LINE",
"433 399 LINE",
"178 399 LINE",
"178 572 LINE",
"457 572 LINE"
);
}
);
};
layerId = "31F25340-C351-400F-9C98-C04A412D1947";
paths = (
{
closed = 1;
nodes = (
"188 0 LINE",
"188 285 LINE",
"423 285 LINE",
"423 399 LINE",
"188 399 LINE",
"188 572 LINE",
"463 572 LINE",
"463 686 LINE",
"60 686 LINE",
"60 0 LINE"
);
}
);
width = 501;
}
);
leftKerningGroup = F;
rightKerningGroup = F;
unicode = 0046;
},
{
glyphname = Fhook;
layers = (
{
layerId = UUID0;
paths = (
{
closed = 1;
nodes = (
"128 -182 OFFCURVE",
"158 -121 OFFCURVE",
"158 -61 CURVE SMOOTH",
"158 304 LINE",
"430 304 LINE",
"430 384 LINE",
"158 384 LINE",
"158 606 LINE",
"466 606 LINE",
"466 686 LINE",
"70 686 LINE",
"70 -65 LINE SMOOTH",
"70 -96 OFFCURVE",
"54 -113 OFFCURVE",
"23 -113 CURVE SMOOTH",
"-21 -113 LINE",
"-21 -170 LINE",
"-4 -176 OFFCURVE",
"24 -182 OFFCURVE",
"48 -182 CURVE SMOOTH"
);
}
);
width = 501;
},
{
layerId = "31F25340-C351-400F-9C98-C04A412D1947";
paths = (
{
closed = 1;
nodes = (
"151 -182 OFFCURVE",
"188 -114 OFFCURVE",
"188 -48 CURVE SMOOTH",
"188 285 LINE",
"423 285 LINE",
"423 399 LINE",
"188 399 LINE",
"188 572 LINE",
"463 572 LINE",
"463 686 LINE",
"60 686 LINE",
"60 -40 LINE SMOOTH",
"60 -69 OFFCURVE",
"44 -85 OFFCURVE",
"15 -85 CURVE SMOOTH",
"-34 -85 LINE",
"-34 -167 LINE",
"-14 -175 OFFCURVE",
"23 -182 OFFCURVE",
"51 -182 CURVE SMOOTH"
);
}
);
width = 501;
}
);
leftKerningGroup = Fhook;
rightKerningGroup = Fhook;
unicode = 0191;
},
{
glyphname = G;
layers = (
{
anchors = (
{
name = bottom;
position = "{319, 0}";
},
{
name = top;
position = "{319, 686}";
}
);
background = {
paths = (
{
closed = 1;
nodes = (
"153 698 OFFCURVE",
"49 581 OFFCURVE",
"49 343 CURVE SMOOTH",
"49 105 OFFCURVE",
"146 -12 OFFCURVE",
"319 -12 CURVE SMOOTH",
"393 -12 OFFCURVE",
"454 14 OFFCURVE",
"496 76 CURVE",
"515 0 LINE",
"573 0 LINE",
"573 359 LINE",
"305 359 LINE",
"305 278 LINE",
"483 278 LINE",
"483 264 LINE SMOOTH",
"483 133 OFFCURVE",
"433 69 OFFCURVE",
"319 69 CURVE SMOOTH",
"204 69 OFFCURVE",
"141 151 OFFCURVE",
"141 318 CURVE SMOOTH",
"141 368 LINE SMOOTH",
"141 535 OFFCURVE",
"211 617 OFFCURVE",
"324 617 CURVE SMOOTH",
"418 617 OFFCURVE",
"483 566 OFFCURVE",
"483 452 CURVE",
"573 452 LINE",
"573 618 OFFCURVE",
"467 698 OFFCURVE",
"324 698 CURVE SMOOTH"
);
}
);
};
layerId = UUID0;
paths = (
{
closed = 1;
nodes = (
"393 -12 OFFCURVE",
"454 14 OFFCURVE",
"496 76 CURVE",
"515 0 LINE",
"573 0 LINE",
"573 357 LINE",
"305 357 LINE",
"305 280 LINE",
"520 280 LINE",
"483 317 LINE",
"483 264 LINE SMOOTH",
"483 133 OFFCURVE",
"433 69 OFFCURVE",
"319 69 CURVE SMOOTH",
"204 69 OFFCURVE",
"141 151 OFFCURVE",
"141 318 CURVE SMOOTH",
"141 368 LINE SMOOTH",
"141 535 OFFCURVE",
"211 617 OFFCURVE",
"324 617 CURVE SMOOTH",
"418 617 OFFCURVE",
"483 566 OFFCURVE",
"483 452 CURVE",
"573 452 LINE",
"573 618 OFFCURVE",
"467 698 OFFCURVE",
"324 698 CURVE SMOOTH",
"153 698 OFFCURVE",
"49 581 OFFCURVE",
"49 343 CURVE SMOOTH",
"49 105 OFFCURVE",
"146 -12 OFFCURVE",
"319 -12 CURVE SMOOTH"
);
}
);
width = 638;
},
{
anchors = (
{
name = bottom;
position = "{303, 0}";
},
{
name = top;
position = "{319, 686}";
}
);
layerId = "31F25340-C351-400F-9C98-C04A412D1947";
paths = (
{
closed = 1;
nodes = (
"371 -12 OFFCURVE",
"438 18 OFFCURVE",
"482 76 CURVE",
"504 0 LINE",
"587 0 LINE",
"587 373 LINE",
"302 373 LINE",
"302 263 LINE",
"510 263 LINE",
"456 311 LINE",
"456 263 LINE",
"456 163 OFFCURVE",
"400 98 OFFCURVE",
"322 98 CURVE SMOOTH",
"215 98 OFFCURVE",
"166 178 OFFCURVE",
"166 318 CURVE SMOOTH",
"166 368 LINE SMOOTH",
"166 505 OFFCURVE",
"214 588 OFFCURVE",
"321 588 CURVE SMOOTH",
"395 588 OFFCURVE",
"456 539 OFFCURVE",
"456 446 CURVE",
"587 446 LINE",
"587 610 OFFCURVE",
"463 698 OFFCURVE",
"325 698 CURVE SMOOTH",
"140 698 OFFCURVE",
"34 585 OFFCURVE",
"34 343 CURVE SMOOTH",
"34 99 OFFCURVE",
"131 -12 OFFCURVE",
"299 -12 CURVE SMOOTH"
);
}
);
width = 638;
}
);
leftKerningGroup = G;
rightKerningGroup = G;
unicode = 0047;
},
{
glyphname = Gbreve;
layers = (
{
background = {
paths = (
{
closed = 1;
nodes = (
"396 786 OFFCURVE",
"443 838 OFFCURVE",
"443 883 CURVE",
"379 883 LINE",
"377 869 OFFCURVE",
"353 850 OFFCURVE",
"319 850 CURVE SMOOTH",
"286 850 OFFCURVE",
"263 869 OFFCURVE",
"260 883 CURVE",
"196 883 LINE",
"196 838 OFFCURVE",
"243 786 OFFCURVE",
"319 786 CURVE SMOOTH"
);
}
);
};
components = (
{
name = G;
},
{
name = brevecomb.case;
transform = "{1, 0, 0, 1, 195, 160}";
}
);
layerId = UUID0;
width = 638;
},
{
background = {
paths = (
{
closed = 1;
nodes = (
"402 776 OFFCURVE",
"453 833 OFFCURVE",
"453 883 CURVE",
"379 883 LINE",
"377 869 OFFCURVE",
"353 850 OFFCURVE",
"319 850 CURVE SMOOTH",
"286 850 OFFCURVE",
"263 869 OFFCURVE",
"260 883 CURVE",
"186 883 LINE",
"186 833 OFFCURVE",
"237 776 OFFCURVE",
"319 776 CURVE SMOOTH"
);
}
);
};
components = (
{
name = G;
},
{
name = brevecomb.case;
transform = "{1, 0, 0, 1, 185, 160}";
}
);
layerId = "31F25340-C351-400F-9C98-C04A412D1947";
width = 638;
}
);
leftKerningGroup = G;
rightKerningGroup = G;
unicode = 011E;
},
{
glyphname = Gcircumflex;
layers = (
{
background = {
paths = (
{
closed = 1;
nodes = (
"275 747 LINE",
"320 826 LINE",
"364 747 LINE",
"444 747 LINE",
"359 882 LINE",
"281 882 LINE",
"195 747 LINE"
);
}
);
};
components = (
{
name = G;
},
{
name = circumflexcomb.case;
transform = "{1, 0, 0, 1, 194, 160}";
}
);
layerId = UUID0;
width = 638;
},
{
background = {
paths = (
{
closed = 1;
nodes = (
"275 748 LINE",
"320 817 LINE",
"364 748 LINE",
"454 748 LINE",
"369 883 LINE",
"271 883 LINE",
"185 748 LINE"
);
}
);
};
components = (
{
name = G;
},
{
name = circumflexcomb.case;
transform = "{1, 0, 0, 1, 184, 160}";
}
);
layerId = "31F25340-C351-400F-9C98-C04A412D1947";
width = 638;
}
);
leftKerningGroup = G;
rightKerningGroup = G;
unicode = 011C;
},
{
glyphname = Gcommaaccent;
layers = (
{
background = {
paths = (
{
closed = 1;
nodes = (
"333 -222 LINE",
"362 -144 LINE",
"362 -60 LINE",
"277 -60 LINE",
"277 -151 LINE",
"311 -151 LINE",
"289 -222 LINE"
);
}
);
};
components = (
{
name = G;
},
{
name = commaaccentcomb.case;
transform = "{1, 0, 0, 1, 275, 0}";
}
);
layerId = UUID0;
width = 638;
},
{
background = {
paths = (
{
closed = 1;
nodes = (
"320 -263 LINE",
"365 -167 LINE",
"365 -55 LINE",
"242 -55 LINE",
"242 -178 LINE",
"291 -178 LINE",
"255 -263 LINE"
);
}
);
};
components = (
{
name = G;
},
{
name = commaaccentcomb.case;
transform = "{1, 0, 0, 1, 241, 0}";
}
);
layerId = "31F25340-C351-400F-9C98-C04A412D1947";
width = 638;
}
);
leftKerningGroup = G;
rightKerningGroup = G;
unicode = 0122;
},
{
glyphname = Gdotaccent;
layers = (
{
background = {
paths = (
{
closed = 1;
nodes = (
"363 788 LINE",
"363 883 LINE",
"276 883 LINE",
"276 788 LINE"
);
}
);
};
components = (
{
name = G;
},
{
name = dotaccentcomb.case;
transform = "{1, 0, 0, 1, 274, 160}";
}
);
layerId = UUID0;
width = 638;
},
{
background = {
paths = (
{
closed = 1;
nodes = (
"373 768 LINE",
"373 883 LINE",
"266 883 LINE",
"266 768 LINE"
);
}
);
};
components = (
{
name = G;
},
{
name = dotaccentcomb.case;
transform = "{1, 0, 0, 1, 255, 160}";
}
);
layerId = "31F25340-C351-400F-9C98-C04A412D1947";
width = 638;
}
);
leftKerningGroup = G;
rightKerningGroup = G;
unicode = 0120;
},
{
glyphname = H;
layers = (
{
anchors = (
{
name = bottom;
position = "{296, 0}";
},
{
name = center;
position = "{296, 540}";
},
{
name = top;
position = "{296, 686}";
},
{
name = topleft;
position = "{70, 686}";
}
);
background = {
paths = (
{
closed = 1;
nodes = (
"522 686 LINE",
"434 686 LINE",
"434 393 LINE",
"158 393 LINE",
"158 686 LINE",
"70 686 LINE",
"70 0 LINE",
"158 0 LINE",
"158 309 LINE",
"434 309 LINE",
"434 0 LINE",
"522 0 LINE"
);
}
);
};
layerId = UUID0;
paths = (
{
closed = 1;
nodes = (
"158 0 LINE",
"158 311 LINE",
"434 311 LINE",
"434 0 LINE",
"522 0 LINE",
"522 686 LINE",
"434 686 LINE",
"434 391 LINE",
"158 391 LINE",
"158 686 LINE",
"70 686 LINE",
"70 0 LINE"
);
}
);
width = 592;
},
{
anchors = (
{
name = bottom;
position = "{296, 0}";
},
{
name = center;
position = "{296, 540}";
},
{
name = top;
position = "{296, 686}";
},
{
name = topleft;
position = "{60, 686}";
}
);
background = {
paths = (
{
closed = 1;
nodes = (
"542 686 LINE",
"414 686 LINE",
"414 408 LINE",
"178 408 LINE",
"178 686 LINE",
"50 686 LINE",
"50 0 LINE",
"178 0 LINE",
"178 294 LINE",
"414 294 LINE",
"414 0 LINE",
"542 0 LINE"
);
}
);
};
layerId = "31F25340-C351-400F-9C98-C04A412D1947";
paths = (
{
closed = 1;
nodes = (
"188 0 LINE",
"188 294 LINE",
"404 294 LINE",
"404 0 LINE",
"532 0 LINE",
"532 686 LINE",
"404 686 LINE",
"404 408 LINE",
"188 408 LINE",
"188 686 LINE",
"60 686 LINE",
"60 0 LINE"
);
}
);
width = 592;
}
);
leftKerningGroup = H;
rightKerningGroup = H;
unicode = 0048;
},
{
glyphname = Hbar;
layers = (
{
background = {
paths = (
{
closed = 1;
nodes = (
"158 0 LINE",
"158 306 LINE",
"434 306 LINE",
"434 0 LINE",
"522 0 LINE",
"522 490 LINE",
"572 490 LINE",
"572 562 LINE",
"522 562 LINE",
"522 686 LINE",
"434 686 LINE",
"434 562 LINE",
"158 562 LINE",
"158 686 LINE",
"70 686 LINE",
"70 562 LINE",
"20 562 LINE",
"20 490 LINE",
"70 490 LINE",
"70 0 LINE"
);
},
{
closed = 1;
nodes = (
"158 490 LINE",
"434 490 LINE",
"434 386 LINE",
"158 386 LINE"
);
}
);
};
components = (
{
name = H;
},
{
name = strokelongcomb;
transform = "{1, 0, 0, 1, 20, 170}";
}
);
layerId = UUID0;
width = 592;
},
{
background = {
paths = (
{
closed = 1;
nodes = (
"188 0 LINE",
"188 287 LINE",
"404 287 LINE",
"404 0 LINE",
"532 0 LINE",
"532 490 LINE",
"582 490 LINE",
"582 577 LINE",
"532 577 LINE",
"532 686 LINE",
"404 686 LINE",
"404 577 LINE",
"188 577 LINE",
"188 686 LINE",
"60 686 LINE",
"60 577 LINE",
"10 577 LINE",
"10 490 LINE",
"60 490 LINE",
"60 0 LINE"
);
},
{
closed = 1;
nodes = (
"188 490 LINE",
"404 490 LINE",
"404 401 LINE",
"188 401 LINE"
);
}
);
};
components = (
{
name = H;
},
{
name = strokelongcomb;
transform = "{1, 0, 0, 1, 10, 170}";
}
);
layerId = "31F25340-C351-400F-9C98-C04A412D1947";
width = 592;
}
);
leftKerningGroup = H;
rightKerningGroup = H;
unicode = 0126;
},
{
glyphname = Hcircumflex;
layers = (
{
background = {
paths = (
{
closed = 1;
nodes = (
"158 0 LINE",
"158 311 LINE",
"434 311 LINE",
"434 0 LINE",
"522 0 LINE",
"522 686 LINE",
"434 686 LINE",
"434 391 LINE",
"158 391 LINE",
"158 686 LINE",
"70 686 LINE",
"70 0 LINE"
);
},
{
closed = 1;
nodes = (
"251 747 LINE",
"297 826 LINE",
"341 747 LINE",
"421 747 LINE",
"335 882 LINE",
"257 882 LINE",
"171 747 LINE"
);
}
);
};
components = (
{
name = H;
},
{
name = circumflexcomb.case;
transform = "{1, 0, 0, 1, 171, 160}";
}
);
layerId = UUID0;
width = 592;
},
{
background = {
paths = (
{
closed = 1;
nodes = (
"188 0 LINE",
"188 294 LINE",
"404 294 LINE",
"404 0 LINE",
"532 0 LINE",
"532 686 LINE",
"404 686 LINE",
"404 408 LINE",
"188 408 LINE",
"188 686 LINE",
"60 686 LINE",
"60 0 LINE"
);
},
{
closed = 1;
nodes = (
"251 748 LINE",
"296 817 LINE",
"341 748 LINE",
"431 748 LINE",
"346 883 LINE",
"248 883 LINE",
"162 748 LINE"
);
}
);
};
components = (
{
name = H;
},
{
name = circumflexcomb.case;
transform = "{1, 0, 0, 1, 161, 160}";
}
);
layerId = "31F25340-C351-400F-9C98-C04A412D1947";
width = 592;
}
);
leftKerningGroup = H;
rightKerningGroup = H;
unicode = 0124;
},
{
glyphname = I;
layers = (
{
anchors = (
{
name = bottom;
position = "{114, 0}";
},
{
name = ogonek;
position = "{148, 0}";
},
{
name = top;
position = "{114, 686}";
},
{
name = topleft;
position = "{0, 686}";
}
);
layerId = UUID0;
paths = (
{
closed = 1;
nodes = (
"158 0 LINE",
"158 686 LINE",
"70 686 LINE",
"70 0 LINE"
);
}
);
width = 228;
},
{
anchors = (
{
name = bottom;
position = "{114, 0}";
},
{
name = ogonek;
position = "{158, 0}";
},
{
name = top;
position = "{114, 686}";
},
{
name = topleft;
position = "{1, 686}";
}
);
layerId = "31F25340-C351-400F-9C98-C04A412D1947";
paths = (
{
closed = 1;
nodes = (
"178 0 LINE",
"178 686 LINE",
"50 686 LINE",
"50 0 LINE"
);
}
);
width = 228;
}
);
leftKerningGroup = I;
rightKerningGroup = I;
unicode = 0049;
},
{
glyphname = IJ;
layers = (
{
background = {
paths = (
{
closed = 1;
nodes = (
"512 -12 OFFCURVE",
"573 49 OFFCURVE",
"573 163 CURVE SMOOTH",
"573 686 LINE",
"485 686 LINE",
"485 158 LINE SMOOTH",
"485 100 OFFCURVE",
"457 69 OFFCURVE",
"407 69 CURVE SMOOTH",
"357 69 OFFCURVE",
"329 100 OFFCURVE",
"329 158 CURVE SMOOTH",
"329 208 LINE",
"241 208 LINE",
"241 163 LINE SMOOTH",
"241 49 OFFCURVE",
"302 -12 OFFCURVE",
"407 -12 CURVE SMOOTH"
);
},
{
closed = 1;
nodes = (
"158 0 LINE",
"158 686 LINE",
"70 686 LINE",
"70 0 LINE"
);
}
);
};
components = (
{
name = I;
},
{
name = J;
transform = "{1, 0, 0, 1, 228, 0}";
}
);
layerId = UUID0;
width = 638;
},
{
background = {
paths = (
{
closed = 1;
nodes = (
"555 -12 OFFCURVE",
"624 49 OFFCURVE",
"624 163 CURVE SMOOTH",
"624 686 LINE",
"496 686 LINE",
"496 173 LINE SMOOTH",
"496 125 OFFCURVE",
"474 98 OFFCURVE",
"431 98 CURVE SMOOTH",
"387 98 OFFCURVE",
"364 125 OFFCURVE",
"364 173 CURVE SMOOTH",
"364 216 LINE",
"237 216 LINE",
"237 163 LINE SMOOTH",
"237 49 OFFCURVE",
"307 -12 OFFCURVE",
"431 -12 CURVE SMOOTH"
);
},
{
closed = 1;
nodes = (
"178 0 LINE",
"178 686 LINE",
"50 686 LINE",
"50 0 LINE"
);
}
);
};
components = (
{
name = I;
},
{
name = J;
transform = "{1, 0, 0, 1, 228, 0}";
}
);
layerId = "31F25340-C351-400F-9C98-C04A412D1947";
width = 684;
}
);
leftKerningGroup = I;
rightKerningGroup = J;
unicode = 0132;
},
{
glyphname = Iacute;
layers = (
{
background = {
paths = (
{
closed = 1;
nodes = (
"158 0 LINE",
"158 686 LINE",
"70 686 LINE",
"70 0 LINE"
);
},
{
closed = 1;
nodes = (
"124 751 LINE",
"231 880 LINE",
"230 883 LINE",
"141 883 LINE",
"55 751 LINE"
);
}
);
};
components = (
{
name = I;
},
{
name = acutecomb.case;
transform = "{1, 0, 0, 1, 46, 160}";
}
);
layerId = UUID0;
width = 228;
},
{
background = {
paths = (
{
closed = 1;
nodes = (
"178 0 LINE",
"178 686 LINE",
"50 686 LINE",
"50 0 LINE"
);
},
{
closed = 1;
nodes = (
"145 751 LINE",
"252 880 LINE",
"251 883 LINE",
"131 883 LINE",
"45 751 LINE"
);
}
);
};
components = (
{
name = I;
},
{
name = acutecomb.case;
transform = "{1, 0, 0, 1, 40, 160}";
}
);
layerId = "31F25340-C351-400F-9C98-C04A412D1947";
width = 228;
}
);
leftKerningGroup = I;
rightKerningGroup = I;
unicode = 00CD;
},
{
glyphname = Ibreve;
layers = (
{
background = {
paths = (
{
closed = 1;
nodes = (
"158 0 LINE",
"158 686 LINE",
"70 686 LINE",
"70 0 LINE"
);
},
{
closed = 1;
nodes = (
"191 786 OFFCURVE",
"238 838 OFFCURVE",
"238 883 CURVE",
"174 883 LINE",
"172 869 OFFCURVE",
"148 850 OFFCURVE",
"114 850 CURVE SMOOTH",
"81 850 OFFCURVE",
"58 869 OFFCURVE",
"55 883 CURVE",
"-10 883 LINE",
"-10 838 OFFCURVE",
"38 786 OFFCURVE",
"114 786 CURVE SMOOTH"
);
}
);
};
components = (
{
name = I;
},
{
name = brevecomb.case;
transform = "{1, 0, 0, 1, -10, 160}";
}
);
layerId = UUID0;
width = 228;
},
{
background = {
paths = (
{
closed = 1;
nodes = (
"178 0 LINE",
"178 686 LINE",
"50 686 LINE",
"50 0 LINE"
);
},
{
closed = 1;
nodes = (
"197 776 OFFCURVE",
"248 833 OFFCURVE",
"248 883 CURVE",
"174 883 LINE",
"172 869 OFFCURVE",
"148 850 OFFCURVE",
"114 850 CURVE SMOOTH",
"81 850 OFFCURVE",
"58 869 OFFCURVE",
"55 883 CURVE",
"-20 883 LINE",
"-20 833 OFFCURVE",
"32 776 OFFCURVE",
"114 776 CURVE SMOOTH"
);
}
);
};
components = (
{
name = I;
},
{
name = brevecomb.case;
transform = "{1, 0, 0, 1, -20, 160}";
}
);
layerId = "31F25340-C351-400F-9C98-C04A412D1947";
width = 228;
}
);
leftKerningGroup = I;
rightKerningGroup = I;
unicode = 012C;
},
{
glyphname = Icircumflex;
layers = (
{
background = {
paths = (
{
closed = 1;
nodes = (
"158 0 LINE",
"158 686 LINE",
"70 686 LINE",
"70 0 LINE"
);
},
{
closed = 1;
nodes = (
"70 747 LINE",
"115 826 LINE",
"159 747 LINE",
"239 747 LINE",
"154 882 LINE",
"76 882 LINE",
"-11 747 LINE"
);
}
);
};
components = (
{
name = I;
},
{
name = circumflexcomb.case;
transform = "{1, 0, 0, 1, -11, 160}";
}
);
layerId = UUID0;
width = 228;
},
{
background = {
paths = (
{
closed = 1;
nodes = (
"178 0 LINE",
"178 686 LINE",
"50 686 LINE",
"50 0 LINE"
);
},
{
closed = 1;
nodes = (
"70 748 LINE",
"115 817 LINE",
"159 748 LINE",
"249 748 LINE",
"164 883 LINE",
"66 883 LINE",
"-21 748 LINE"
);
}
);
};
components = (
{
name = I;
},
{
name = circumflexcomb.case;
transform = "{1, 0, 0, 1, -21, 160}";
}
);
layerId = "31F25340-C351-400F-9C98-C04A412D1947";
width = 228;
}
);
leftKerningGroup = I;
rightKerningGroup = I;
unicode = 00CE;
},
{
glyphname = Idieresis;
layers = (
{
background = {
paths = (
{
closed = 1;
nodes = (
"158 0 LINE",
"158 686 LINE",
"70 686 LINE",
"70 0 LINE"
);
},
{
closed = 1;
nodes = (
"83 788 LINE",
"83 883 LINE",
"-4 883 LINE",
"-4 788 LINE"
);
},
{
closed = 1;
nodes = (
"233 788 LINE",
"233 883 LINE",
"146 883 LINE",
"146 788 LINE"
);
}
);
};
components = (
{
name = I;
},
{
name = dieresiscomb.case;
transform = "{1, 0, 0, 1, -5, 160}";
}
);
layerId = UUID0;
width = 228;
},
{
background = {
paths = (
{
closed = 1;
nodes = (
"178 0 LINE",
"178 686 LINE",
"50 686 LINE",
"50 0 LINE"
);
},
{
closed = 1;
nodes = (
"77 774 LINE",
"77 883 LINE",
"-23 883 LINE",
"-23 774 LINE"
);
},
{
closed = 1;
nodes = (
"252 774 LINE",
"252 883 LINE",
"152 883 LINE",
"152 774 LINE"
);
}
);
};
components = (
{
name = I;
},
{
name = dieresiscomb.case;
transform = "{1, 0, 0, 1, -24, 160}";
}
);
layerId = "31F25340-C351-400F-9C98-C04A412D1947";
width = 228;
}
);
leftKerningGroup = I;
rightKerningGroup = I;
unicode = 00CF;
},
{
glyphname = Idotaccent;
layers = (
{
background = {
paths = (
{
closed = 1;
nodes = (
"158 0 LINE",
"158 686 LINE",
"70 686 LINE",
"70 0 LINE"
);
},
{
closed = 1;
nodes = (
"158 788 LINE",
"158 883 LINE",
"71 883 LINE",
"71 788 LINE"
);
}
);
};
components = (
{
name = I;
},
{
name = dotaccentcomb.case;
transform = "{1, 0, 0, 1, 69, 160}";
}
);
layerId = UUID0;
width = 228;
},
{
background = {
paths = (
{
closed = 1;
nodes = (
"178 0 LINE",
"178 686 LINE",
"50 686 LINE",
"50 0 LINE"
);
},
{
closed = 1;
nodes = (
"168 768 LINE",
"168 883 LINE",
"61 883 LINE",
"61 768 LINE"
);
}
);
};
components = (
{
name = I;
},
{
name = dotaccentcomb.case;
transform = "{1, 0, 0, 1, 50, 160}";
}
);
layerId = "31F25340-C351-400F-9C98-C04A412D1947";
width = 228;
}
);
leftKerningGroup = I;
rightKerningGroup = I;
unicode = 0130;
},
{
glyphname = Igrave;
layers = (
{
background = {
paths = (
{
closed = 1;
nodes = (
"158 0 LINE",
"158 686 LINE",
"70 686 LINE",
"70 0 LINE"
);
},
{
closed = 1;
nodes = (
"174 751 LINE",
"88 883 LINE",
"-2 883 LINE",
"-3 880 LINE",
"105 751 LINE"
);
}
);
};
components = (
{
name = I;
},
{
name = gravecomb.case;
transform = "{1, 0, 0, 1, -10, 160}";
}
);
layerId = UUID0;
width = 228;
},
{
background = {
paths = (
{
closed = 1;
nodes = (
"178 0 LINE",
"178 686 LINE",
"50 686 LINE",
"50 0 LINE"
);
},
{
closed = 1;
nodes = (
"183 751 LINE",
"97 883 LINE",
"-23 883 LINE",
"-24 880 LINE",
"84 751 LINE"
);
}
);
};
components = (
{
name = I;
},
{
name = gravecomb.case;
transform = "{1, 0, 0, 1, -24, 160}";
}
);
layerId = "31F25340-C351-400F-9C98-C04A412D1947";
width = 228;
}
);
leftKerningGroup = I;
rightKerningGroup = I;
unicode = 00CC;
},
{
glyphname = Imacron;
layers = (
{
background = {
paths = (
{
closed = 1;
nodes = (
"158 0 LINE",
"158 686 LINE",
"70 686 LINE",
"70 0 LINE"
);
},
{
closed = 1;
nodes = (
"240 759 LINE",
"240 831 LINE",
"-11 831 LINE",
"-11 759 LINE"
);
}
);
};
components = (
{
name = I;
},
{
name = macroncomb.case;
transform = "{1, 0, 0, 1, -11, 160}";
}
);
layerId = UUID0;
width = 228;
},
{
background = {
paths = (
{
closed = 1;
nodes = (
"178 0 LINE",
"178 686 LINE",
"50 686 LINE",
"50 0 LINE"
);
},
{
closed = 1;
nodes = (
"242 759 LINE",
"242 846 LINE",
"-14 846 LINE",
"-14 759 LINE"
);
}
);
};
components = (
{
name = I;
},
{
name = macroncomb.case;
transform = "{1, 0, 0, 1, -14, 160}";
}
);
layerId = "31F25340-C351-400F-9C98-C04A412D1947";
width = 228;
}
);
leftKerningGroup = I;
rightKerningGroup = I;
unicode = 012A;
},
{
glyphname = Iogonek;
layers = (
{
background = {
paths = (
{
closed = 1;
nodes = (
"158 0 LINE",
"158 686 LINE",
"70 686 LINE",
"70 0 LINE"
);
},
{
closed = 1;
nodes = (
"164 -182 OFFCURVE",
"184 -177 OFFCURVE",
"205 -168 CURVE",
"205 -117 LINE",
"173 -117 LINE SMOOTH",
"140 -117 OFFCURVE",
"127 -90 OFFCURVE",
"127 -62 CURVE SMOOTH",
"127 -36 OFFCURVE",
"144 -11 OFFCURVE",
"153 1 CURVE",
"96 11 LINE",
"70 -15 OFFCURVE",
"49 -43 OFFCURVE",
"49 -92 CURVE SMOOTH",
"49 -161 OFFCURVE",
"101 -182 OFFCURVE",
"144 -182 CURVE SMOOTH"
);
}
);
};
components = (
{
name = I;
},
{
name = ogonekcomb.case;
transform = "{1, 0, 0, 1, 20, 0}";
}
);
layerId = UUID0;
width = 228;
},
{
background = {
paths = (
{
closed = 1;
nodes = (
"178 0 LINE",
"178 686 LINE",
"50 686 LINE",
"50 0 LINE"
);
},
{
closed = 1;
nodes = (
"171 -190 OFFCURVE",
"192 -185 OFFCURVE",
"215 -176 CURVE",
"215 -121 LINE",
"193 -121 LINE SMOOTH",
"160 -121 OFFCURVE",
"148 -96 OFFCURVE",
"148 -70 CURVE SMOOTH",
"148 -39 OFFCURVE",
"171 -9 OFFCURVE",
"178 0 CURVE",
"104 11 LINE",
"76 -17 OFFCURVE",
"50 -46 OFFCURVE",
"50 -100 CURVE SMOOTH",
"50 -169 OFFCURVE",
"104 -190 OFFCURVE",
"149 -190 CURVE SMOOTH"
);
}
);
};
components = (
{
name = I;
},
{
name = ogonekcomb.case;
transform = "{1, 0, 0, 1, 12, 0}";
}
);
layerId = "31F25340-C351-400F-9C98-C04A412D1947";
width = 228;
}
);
leftKerningGroup = I;
rightKerningGroup = I;
unicode = 012E;
},
{
glyphname = Itilde;
layers = (
{
background = {
paths = (
{
closed = 1;
nodes = (
"158 0 LINE",
"158 686 LINE",
"70 686 LINE",
"70 0 LINE"
);
},
{
closed = 1;
nodes = (
"26 779 LINE",
"29 802 OFFCURVE",
"42 810 OFFCURVE",
"60 810 CURVE SMOOTH",
"99 810 OFFCURVE",
"132 779 OFFCURVE",
"175 779 CURVE SMOOTH",
"235 779 OFFCURVE",
"260 837 OFFCURVE",
"260 883 CURVE",
"202 883 LINE",
"199 860 OFFCURVE",
"186 853 OFFCURVE",
"168 853 CURVE SMOOTH",
"129 853 OFFCURVE",
"96 883 OFFCURVE",
"53 883 CURVE SMOOTH",
"-7 883 OFFCURVE",
"-32 825 OFFCURVE",
"-32 779 CURVE"
);
}
);
};
components = (
{
name = I;
},
{
name = tildecomb.case;
transform = "{1, 0, 0, 1, -18, 160}";
}
);
layerId = UUID0;
width = 228;
},
{
background = {
paths = (
{
closed = 1;
nodes = (
"178 0 LINE",
"178 686 LINE",
"50 686 LINE",
"50 0 LINE"
);
},
{
closed = 1;
nodes = (
"13 761 LINE",
"17 788 OFFCURVE",
"30 798 OFFCURVE",
"52 798 CURVE SMOOTH",
"97 798 OFFCURVE",
"136 761 OFFCURVE",
"184 761 CURVE SMOOTH",
"254 761 OFFCURVE",
"283 828 OFFCURVE",
"283 883 CURVE",
"216 883 LINE",
"212 855 OFFCURVE",
"199 846 OFFCURVE",
"178 846 CURVE SMOOTH",
"132 846 OFFCURVE",
"94 883 OFFCURVE",
"44 883 CURVE SMOOTH",
"-26 883 OFFCURVE",
"-54 816 OFFCURVE",
"-54 761 CURVE"
);
}
);
};
components = (
{
name = I;
},
{
name = tildecomb.case;
transform = "{1, 0, 0, 1, -38, 160}";
}
);
layerId = "31F25340-C351-400F-9C98-C04A412D1947";
width = 228;
}
);
leftKerningGroup = I;
rightKerningGroup = I;
unicode = 0128;
},
{
glyphname = J;
layers = (
{
anchors = (
{
name = bottom;
position = "{185, 0}";
},
{
name = top;
position = "{301, 686}";
}
);
layerId = UUID0;
paths = (
{
closed = 1;
nodes = (
"284 -12 OFFCURVE",
"345 49 OFFCURVE",
"345 163 CURVE SMOOTH",
"345 686 LINE",
"257 686 LINE",
"257 158 LINE SMOOTH",
"257 100 OFFCURVE",
"229 69 OFFCURVE",
"179 69 CURVE SMOOTH",
"129 69 OFFCURVE",
"101 100 OFFCURVE",
"101 158 CURVE SMOOTH",
"101 208 LINE",
"13 208 LINE",
"13 163 LINE SMOOTH",
"13 49 OFFCURVE",
"74 -12 OFFCURVE",
"179 -12 CURVE SMOOTH"
);
}
);
width = 410;
},
{
anchors = (
{
name = bottom;
position = "{210, 0}";
},
{
name = top;
position = "{334, 686}";
}
);
background = {
paths = (
{
closed = 1;
nodes = (
"406 686 LINE",
"278 686 LINE",
"278 173 LINE SMOOTH",
"278 125 OFFCURVE",
"255 98 OFFCURVE",
"208 98 CURVE SMOOTH",
"161 98 OFFCURVE",
"136 125 OFFCURVE",
"136 173 CURVE SMOOTH",
"136 216 LINE",
"9 216 LINE",
"9 163 LINE SMOOTH",
"9 49 OFFCURVE",
"81 -12 OFFCURVE",
"208 -12 CURVE SMOOTH",
"335 -12 OFFCURVE",
"406 49 OFFCURVE",
"406 163 CURVE SMOOTH"
);
}
);
};
layerId = "31F25340-C351-400F-9C98-C04A412D1947";
paths = (
{
closed = 1;
nodes = (
"327 -12 OFFCURVE",
"396 49 OFFCURVE",
"396 163 CURVE SMOOTH",
"396 686 LINE",
"268 686 LINE",
"268 173 LINE SMOOTH",
"268 125 OFFCURVE",
"246 98 OFFCURVE",
"203 98 CURVE SMOOTH",
"159 98 OFFCURVE",
"136 125 OFFCURVE",
"136 173 CURVE SMOOTH",
"136 216 LINE",
"9 216 LINE",
"9 163 LINE SMOOTH",
"9 49 OFFCURVE",
"79 -12 OFFCURVE",
"203 -12 CURVE SMOOTH"
);
}
);
width = 456;
}
);
leftKerningGroup = J;
rightKerningGroup = J;
unicode = 004A;
},
{
glyphname = Jcircumflex;
layers = (
{
background = {
paths = (
{
closed = 1;
nodes = (
"284 -12 OFFCURVE",
"345 49 OFFCURVE",
"345 163 CURVE SMOOTH",
"345 686 LINE",
"257 686 LINE",
"257 158 LINE SMOOTH",
"257 100 OFFCURVE",
"229 69 OFFCURVE",
"179 69 CURVE SMOOTH",
"129 69 OFFCURVE",
"101 100 OFFCURVE",
"101 158 CURVE SMOOTH",
"101 208 LINE",
"13 208 LINE",
"13 163 LINE SMOOTH",
"13 49 OFFCURVE",
"74 -12 OFFCURVE",
"179 -12 CURVE SMOOTH"
);
},
{
closed = 1;
nodes = (
"257 747 LINE",
"303 826 LINE",
"347 747 LINE",
"427 747 LINE",
"341 882 LINE",
"263 882 LINE",
"177 747 LINE"
);
}
);
};
components = (
{
name = J;
},
{
name = circumflexcomb.case;
transform = "{1, 0, 0, 1, 176, 160}";
}
);
layerId = UUID0;
width = 410;
},
{
background = {
paths = (
{
closed = 1;
nodes = (
"327 -12 OFFCURVE",
"396 49 OFFCURVE",
"396 163 CURVE SMOOTH",
"396 686 LINE",
"268 686 LINE",
"268 173 LINE SMOOTH",
"268 125 OFFCURVE",
"246 98 OFFCURVE",
"203 98 CURVE SMOOTH",
"159 98 OFFCURVE",
"136 125 OFFCURVE",
"136 173 CURVE SMOOTH",
"136 216 LINE",
"9 216 LINE",
"9 163 LINE SMOOTH",
"9 49 OFFCURVE",
"79 -12 OFFCURVE",
"203 -12 CURVE SMOOTH"
);
},
{
closed = 1;
nodes = (
"300 748 LINE",
"345 817 LINE",
"390 748 LINE",
"479 748 LINE",
"395 883 LINE",
"296 883 LINE",
"210 748 LINE"
);
}
);
};
components = (
{
name = J;
},
{
name = circumflexcomb.case;
transform = "{1, 0, 0, 1, 199, 160}";
}
);
layerId = "31F25340-C351-400F-9C98-C04A412D1947";
width = 456;
}
);
leftKerningGroup = J;
rightKerningGroup = J;
unicode = 0134;
},
{
glyphname = K;
layers = (
{
anchors = (
{
name = bottom;
position = "{273, 0}";
},
{
name = top;
position = "{273, 686}";
}
);
background = {
paths = (
{
closed = 1;
nodes = (
"528 686 LINE",
"430 686 LINE",
"158 323 LINE",
"158 686 LINE",
"70 686 LINE",
"70 0 LINE",
"158 0 LINE",
"158 213 LINE",
"244 307 LINE",
"428 0 LINE",
"535 0 LINE",
"302 384 LINE"
);
}
);
};
layerId = UUID0;
paths = (
{
closed = 1;
nodes = (
"158 0 LINE",
"158 213 LINE",
"268 335 LINE",
"435 0 LINE",
"535 0 LINE",
"322 409 LINE",
"528 686 LINE",
"430 686 LINE",
"158 323 LINE",
"158 686 LINE",
"70 686 LINE",
"70 0 LINE"
);
}
);
width = 547;
},
{
anchors = (
{
name = bottom;
position = "{296, 0}";
},
{
name = top;
position = "{296, 686}";
}
);
background = {
paths = (
{
closed = 1;
nodes = (
"583 686 LINE",
"440 686 LINE",
"179 327 LINE",
"179 686 LINE",
"50 686 LINE",
"50 0 LINE",
"179 0 LINE",
"179 167 LINE",
"286 293 LINE",
"445 0 LINE",
"589 0 LINE",
"370 394 LINE"
);
}
);
};
layerId = "31F25340-C351-400F-9C98-C04A412D1947";
paths = (
{
closed = 1;
nodes = (
"189 0 LINE",
"189 175 LINE",
"296 306 LINE",
"445 0 LINE",
"589 0 LINE",
"380 407 LINE",
"583 686 LINE",
"440 686 LINE",
"189 335 LINE",
"189 686 LINE",
"60 686 LINE",
"60 0 LINE"
);
}
);
width = 592;
}
);
leftKerningGroup = K;
rightKerningGroup = K;
unicode = 004B;
},
{
glyphname = Kcommaaccent;
layers = (
{
background = {
paths = (
{
closed = 1;
nodes = (
"158 0 LINE",
"158 213 LINE",
"268 335 LINE",
"435 0 LINE",
"535 0 LINE",
"322 409 LINE",
"528 686 LINE",
"430 686 LINE",
"158 323 LINE",
"158 686 LINE",
"70 686 LINE",
"70 0 LINE"
);
},
{
closed = 1;
nodes = (
"287 -222 LINE",
"316 -144 LINE",
"316 -60 LINE",
"231 -60 LINE",
"231 -151 LINE",
"265 -151 LINE",
"243 -222 LINE"
);
}
);
};
components = (
{
name = K;
},
{
name = commaaccentcomb.case;
transform = "{1, 0, 0, 1, 229, 0}";
}
);
layerId = UUID0;
width = 547;
},
{
background = {
paths = (
{
closed = 1;
nodes = (
"189 0 LINE",
"189 175 LINE",
"296 306 LINE",
"445 0 LINE",
"589 0 LINE",
"380 407 LINE",
"583 686 LINE",
"440 686 LINE",
"189 335 LINE",
"189 686 LINE",
"60 686 LINE",
"60 0 LINE"
);
},
{
closed = 1;
nodes = (
"312 -263 LINE",
"358 -167 LINE",
"358 -55 LINE",
"234 -55 LINE",
"234 -178 LINE",
"283 -178 LINE",
"248 -263 LINE"
);
}
);
};
components = (
{
name = K;
},
{
name = commaaccentcomb.case;
transform = "{1, 0, 0, 1, 234, 0}";
}
);
layerId = "31F25340-C351-400F-9C98-C04A412D1947";
width = 592;
}
);
leftKerningGroup = K;
rightKerningGroup = K;
unicode = 0136;
},
{
glyphname = L;
layers = (
{
anchors = (
{
name = bottom;
position = "{228, 0}";
},
{
name = center;
position = "{345, 350}";
},
{
name = top;
position = "{115, 686}";
},
{
name = topright;
position = "{258, 526}";
}
);
background = {
paths = (
{
closed = 1;
nodes = (
"158 686 LINE",
"70 686 LINE",
"70 0 LINE",
"445 0 LINE",
"431 84 LINE",
"158 84 LINE"
);
}
);
};
layerId = UUID0;
paths = (
{
closed = 1;
nodes = (
"438 0 LINE",
"438 80 LINE",
"158 80 LINE",
"158 686 LINE",
"70 686 LINE",
"70 0 LINE"
);
}
);
width = 456;
},
{
anchors = (
{
name = bottom;
position = "{250, 0}";
},
{
name = center;
position = "{375, 360}";
},
{
name = top;
position = "{123, 686}";
},
{
name = topright;
position = "{289, 526}";
}
);
background = {
paths = (
{
closed = 1;
nodes = (
"178 686 LINE",
"50 686 LINE",
"50 0 LINE",
"488 0 LINE",
"469 120 LINE",
"178 120 LINE"
);
}
);
};
layerId = "31F25340-C351-400F-9C98-C04A412D1947";
paths = (
{
closed = 1;
nodes = (
"478 0 LINE",
"478 120 LINE",
"188 120 LINE",
"188 686 LINE",
"60 686 LINE",
"60 0 LINE"
);
}
);
width = 501;
}
);
leftKerningGroup = L;
rightKerningGroup = L;
unicode = 004C;
},
{
glyphname = LJ;
layers = (
{
components = (
{
name = J;
transform = "{1, 0, 0, 1, 406, 0}";
}
);
layerId = UUID0;
paths = (
{
closed = 1;
nodes = (
"388 0 LINE",
"388 80 LINE",
"158 80 LINE",
"158 686 LINE",
"70 686 LINE",
"70 0 LINE"
);
}
);
width = 816;
},
{
components = (
{
name = J;
transform = "{1, 0, 0, 1, 451, 0}";
}
);
layerId = "31F25340-C351-400F-9C98-C04A412D1947";
paths = (
{
closed = 1;
nodes = (
"428 0 LINE",
"428 120 LINE",
"188 120 LINE",
"188 686 LINE",
"60 686 LINE",
"60 0 LINE"
);
}
);
width = 907;
}
);
leftKerningGroup = I;
rightKerningGroup = U;
unicode = 01C7;
},
{
glyphname = Lacute;
layers = (
{
background = {
paths = (
{
closed = 1;
nodes = (
"438 0 LINE",
"438 80 LINE",
"158 80 LINE",
"158 686 LINE",
"70 686 LINE",
"70 0 LINE"
);
},
{
closed = 1;
nodes = (
"121 751 LINE",
"228 880 LINE",
"227 883 LINE",
"137 883 LINE",
"51 751 LINE"
);
}
);
};
components = (
{
name = L;
},
{
name = acutecomb.case;
transform = "{1, 0, 0, 1, 47, 160}";
}
);
layerId = UUID0;
width = 456;
},
{
background = {
paths = (
{
closed = 1;
nodes = (
"478 0 LINE",
"478 120 LINE",
"188 120 LINE",
"188 686 LINE",
"60 686 LINE",
"60 0 LINE"
);
},
{
closed = 1;
nodes = (
"157 751 LINE",
"265 880 LINE",
"264 883 LINE",
"144 883 LINE",
"58 751 LINE"
);
}
);
};
components = (
{
name = L;
},
{
name = acutecomb.case;
transform = "{1, 0, 0, 1, 49, 160}";
}
);
layerId = "31F25340-C351-400F-9C98-C04A412D1947";
width = 501;
}
);
leftKerningGroup = L;
rightKerningGroup = L;
unicode = 0139;
},
{
glyphname = Lcaron;
layers = (
{
background = {
paths = (
{
closed = 1;
nodes = (
"438 0 LINE",
"438 80 LINE",
"158 80 LINE",
"158 686 LINE",
"70 686 LINE",
"70 0 LINE"
);
},
{
closed = 1;
nodes = (
"371 454 LINE",
"419 587 LINE",
"419 686 LINE",
"319 686 LINE",
"319 578 LINE",
"359 578 LINE",
"319 454 LINE"
);
}
);
};
components = (
{
name = L;
},
{
name = caroncomb.alt;
transform = "{1, 0, 0, 1, 258, 0}";
}
);
layerId = UUID0;
width = 456;
},
{
background = {
paths = (
{
closed = 1;
nodes = (
"478 0 LINE",
"478 120 LINE",
"188 120 LINE",
"188 686 LINE",
"60 686 LINE",
"60 0 LINE"
);
},
{
closed = 1;
nodes = (
"412 393 LINE",
"478 561 LINE",
"478 686 LINE",
"340 686 LINE",
"340 549 LINE",
"395 549 LINE",
"340 393 LINE"
);
}
);
};
components = (
{
name = L;
},
{
name = caroncomb.alt;
transform = "{1, 0, 0, 1, 289, 0}";
}
);
layerId = "31F25340-C351-400F-9C98-C04A412D1947";
width = 501;
}
);
leftKerningGroup = L;
rightKerningGroup = L;
unicode = 013D;
},
{
glyphname = Lcommaaccent;
layers = (
{
background = {
paths = (
{
closed = 1;
nodes = (
"438 0 LINE",
"438 80 LINE",
"158 80 LINE",
"158 686 LINE",
"70 686 LINE",
"70 0 LINE"
);
},
{
closed = 1;
nodes = (
"242 -222 LINE",
"271 -144 LINE",
"271 -60 LINE",
"186 -60 LINE",
"186 -151 LINE",
"220 -151 LINE",
"197 -222 LINE"
);
}
);
};
components = (
{
name = L;
},
{
name = commaaccentcomb.case;
transform = "{1, 0, 0, 1, 184, 0}";
}
);
layerId = UUID0;
width = 456;
},
{
background = {
paths = (
{
closed = 1;
nodes = (
"478 0 LINE",
"478 120 LINE",
"188 120 LINE",
"188 686 LINE",
"60 686 LINE",
"60 0 LINE"
);
},
{
closed = 1;
nodes = (
"267 -263 LINE",
"312 -167 LINE",
"312 -55 LINE",
"189 -55 LINE",
"189 -178 LINE",
"238 -178 LINE",
"202 -263 LINE"
);
}
);
};
components = (
{
name = L;
},
{
name = commaaccentcomb.case;
transform = "{1, 0, 0, 1, 188, 0}";
}
);
layerId = "31F25340-C351-400F-9C98-C04A412D1947";
width = 501;
}
);
leftKerningGroup = L;
rightKerningGroup = L;
unicode = 013B;
},
{
glyphname = Ldot;
layers = (
{
background = {
paths = (
{
closed = 1;
nodes = (
"438 0 LINE",
"438 80 LINE",
"158 80 LINE",
"158 686 LINE",
"70 686 LINE",
"70 0 LINE"
);
},
{
closed = 1;
nodes = (
"396 414 LINE",
"396 525 LINE",
"295 525 LINE",
"295 414 LINE"
);
}
);
};
components = (
{
name = L;
},
{
name = periodcentered.loclCAT.case;
transform = "{1, 0, 0, 1, 209, -36}";
}
);
layerId = UUID0;
width = 456;
},
{
background = {
paths = (
{
closed = 1;
nodes = (
"478 0 LINE",
"478 120 LINE",
"188 120 LINE",
"188 686 LINE",
"60 686 LINE",
"60 0 LINE"
);
},
{
closed = 1;
nodes = (
"420 409 LINE",
"420 524 LINE",
"313 524 LINE",
"313 409 LINE"
);
}
);
};
components = (
{
name = L;
},
{
name = periodcentered.loclCAT.case;
transform = "{1, 0, 0, 1, 238, -33}";
}
);
layerId = "31F25340-C351-400F-9C98-C04A412D1947";
width = 501;
}
);
leftKerningGroup = L;
rightKerningGroup = L;
unicode = 013F;
},
{
glyphname = Lslash;
layers = (
{
background = {
paths = (
{
closed = 1;
nodes = (
"438 0 LINE",
"438 80 LINE",
"158 80 LINE",
"158 308 LINE",
"295 429 LINE",
"295 502 LINE",
"158 380 LINE",
"158 686 LINE",
"70 686 LINE",
"70 302 LINE",
"0 240 LINE",
"0 169 LINE",
"70 230 LINE",
"70 0 LINE"
);
}
);
};
layerId = UUID0;
paths = (
{
closed = 1;
nodes = (
"438 0 LINE",
"438 80 LINE",
"158 80 LINE",
"158 308 LINE",
"335 464 LINE",
"335 537 LINE",
"158 380 LINE",
"158 686 LINE",
"70 686 LINE",
"70 302 LINE",
"0 240 LINE",
"0 169 LINE",
"70 230 LINE",
"70 0 LINE"
);
}
);
width = 456;
},
{
background = {
paths = (
{
closed = 1;
nodes = (
"478 0 LINE",
"478 120 LINE",
"188 120 LINE",
"188 320 LINE",
"304 423 LINE",
"304 520 LINE",
"188 416 LINE",
"188 686 LINE",
"60 686 LINE",
"60 302 LINE",
"0 249 LINE",
"0 154 LINE",
"60 207 LINE",
"60 0 LINE"
);
}
);
};
layerId = "31F25340-C351-400F-9C98-C04A412D1947";
paths = (
{
closed = 1;
nodes = (
"478 0 LINE",
"478 120 LINE",
"188 120 LINE",
"188 320 LINE",
"329 445 LINE",
"329 542 LINE",
"188 416 LINE",
"188 686 LINE",
"60 686 LINE",
"60 302 LINE",
"0 249 LINE",
"0 154 LINE",
"60 207 LINE",
"60 0 LINE"
);
}
);
width = 501;
}
);
leftKerningGroup = H;
rightKerningGroup = L;
unicode = 0141;
},
{
glyphname = M;
layers = (
{
background = {
paths = (
{
closed = 1;
nodes = (
"621 686 LINE",
"488 686 LINE",
"366 236 LINE SMOOTH",
"355 194 OFFCURVE",
"344 102 OFFCURVE",
"344 102 CURVE",
"340 102 LINE",
"340 102 OFFCURVE",
"329 192 OFFCURVE",
"317 236 CURVE SMOOTH",
"196 686 LINE",
"62 686 LINE",
"62 0 LINE",
"141 0 LINE",
"141 498 LINE SMOOTH",
"141 514 OFFCURVE",
"139 584 OFFCURVE",
"139 584 CURVE",
"143 584 LINE",
"143 584 OFFCURVE",
"156 513 OFFCURVE",
"160 498 CURVE SMOOTH",
"297 0 LINE",
"376 0 LINE",
"513 498 LINE SMOOTH",
"519 518 OFFCURVE",
"532 584 OFFCURVE",
"532 584 CURVE",
"536 584 LINE",
"536 584 OFFCURVE",
"533 518 OFFCURVE",
"533 498 CURVE SMOOTH",
"533 0 LINE",
"621 0 LINE"
);
}
);
};
layerId = UUID0;
paths = (
{
closed = 1;
nodes = (
"141 0 LINE",
"141 498 LINE SMOOTH",
"141 518 OFFCURVE",
"135 604 OFFCURVE",
"135 604 CURVE",
"139 604 LINE",
"139 604 OFFCURVE",
"155 517 OFFCURVE",
"160 498 CURVE SMOOTH",
"297 0 LINE",
"376 0 LINE",
"513 498 LINE SMOOTH",
"520 522 OFFCURVE",
"536 604 OFFCURVE",
"536 604 CURVE",
"540 604 LINE",
"540 604 OFFCURVE",
"533 522 OFFCURVE",
"533 498 CURVE SMOOTH",
"533 0 LINE",
"621 0 LINE",
"621 686 LINE",
"488 686 LINE",
"366 236 LINE SMOOTH",
"353 188 OFFCURVE",
"344 82 OFFCURVE",
"344 82 CURVE",
"340 82 LINE",
"340 82 OFFCURVE",
"330 186 OFFCURVE",
"317 236 CURVE SMOOTH",
"196 686 LINE",
"62 686 LINE",
"62 0 LINE"
);
}
);
width = 683;
},
{
background = {
paths = (
{
closed = 1;
nodes = (
"638 686 LINE",
"461 686 LINE",
"372 300 LINE SMOOTH",
"363 260 OFFCURVE",
"349 145 OFFCURVE",
"349 145 CURVE",
"345 145 LINE",
"345 145 OFFCURVE",
"332 255 OFFCURVE",
"322 300 CURVE SMOOTH",
"234 686 LINE",
"45 686 LINE",
"45 0 LINE",
"158 0 LINE",
"158 437 LINE SMOOTH",
"158 464 OFFCURVE",
"153 547 OFFCURVE",
"153 547 CURVE",
"157 547 LINE",
"280 0 LINE",
"393 0 LINE",
"517 547 LINE",
"521 547 LINE",
"521 547 OFFCURVE",
"516 468 OFFCURVE",
"516 437 CURVE SMOOTH",
"516 0 LINE",
"638 0 LINE"
);
}
);
};
layerId = "31F25340-C351-400F-9C98-C04A412D1947";
paths = (
{
closed = 1;
nodes = (
"162 0 LINE",
"162 437 LINE SMOOTH",
"162 464 OFFCURVE",
"157 547 OFFCURVE",
"157 547 CURVE",
"161 547 LINE",
"169 512 OFFCURVE",
"177 476 OFFCURVE",
"185 441 CURVE",
"282 0 LINE",
"393 0 LINE",
"489 439 LINE",
"497 475 OFFCURVE",
"505 511 OFFCURVE",
"513 547 CURVE",
"517 547 LINE",
"517 547 OFFCURVE",
"512 468 OFFCURVE",
"512 437 CURVE SMOOTH",
"512 0 LINE",
"630 0 LINE",
"630 686 LINE",
"456 686 LINE",
"372 308 LINE SMOOTH",
"363 268 OFFCURVE",
"349 153 OFFCURVE",
"349 153 CURVE",
"345 153 LINE",
"345 153 OFFCURVE",
"328 263 OFFCURVE",
"318 308 CURVE SMOOTH",
"233 686 LINE",
"53 686 LINE",
"53 0 LINE"
);
}
);
width = 683;
}
);
leftKerningGroup = M;
rightKerningGroup = M;
unicode = 004D;
},
{
glyphname = N;
layers = (
{
anchors = (
{
name = bottom;
position = "{296, 0}";
},
{
name = top;
position = "{296, 686}";
}
);
layerId = UUID0;
paths = (
{
closed = 1;
nodes = (
"149 0 LINE",
"149 437 LINE SMOOTH",
"149 465 OFFCURVE",
"145 528 OFFCURVE",
"145 528 CURVE",
"148 529 LINE",
"148 529 OFFCURVE",
"175 466 OFFCURVE",
"192 437 CURVE SMOOTH",
"449 0 LINE",
"522 0 LINE",
"522 686 LINE",
"443 686 LINE",
"443 255 LINE SMOOTH",
"443 233 OFFCURVE",
"446 164 OFFCURVE",
"446 164 CURVE",
"443 163 LINE",
"443 163 OFFCURVE",
"416 229 OFFCURVE",
"401 255 CURVE SMOOTH",
"146 686 LINE",
"70 686 LINE",
"70 0 LINE"
);
}
);
width = 592;
},
{
anchors = (
{
name = bottom;
position = "{296, 0}";
},
{
name = top;
position = "{296, 686}";
}
);
background = {
paths = (
{
closed = 1;
nodes = (
"542 686 LINE",
"422 686 LINE",
"422 298 LINE SMOOTH",
"422 287 OFFCURVE",
"427 241 OFFCURVE",
"427 241 CURVE",
"424 238 LINE",
"424 238 OFFCURVE",
"405 281 OFFCURVE",
"395 298 CURVE SMOOTH",
"168 686 LINE",
"50 686 LINE",
"50 0 LINE",
"169 0 LINE",
"169 388 LINE SMOOTH",
"169 406 OFFCURVE",
"164 445 OFFCURVE",
"164 445 CURVE",
"168 448 LINE",
"168 448 OFFCURVE",
"188 402 OFFCURVE",
"196 388 CURVE SMOOTH",
"424 0 LINE",
"542 0 LINE"
);
}
);
};
layerId = "31F25340-C351-400F-9C98-C04A412D1947";
paths = (
{
closed = 1;
nodes = (
"173 0 LINE",
"173 382 LINE SMOOTH",
"173 400 OFFCURVE",
"171 439 OFFCURVE",
"171 439 CURVE",
"175 442 LINE",
"175 442 OFFCURVE",
"198 392 OFFCURVE",
"206 378 CURVE SMOOTH",
"418 0 LINE",
"532 0 LINE",
"532 686 LINE",
"418 686 LINE",
"418 304 LINE SMOOTH",
"418 293 OFFCURVE",
"419 247 OFFCURVE",
"419 247 CURVE",
"416 244 LINE",
"416 244 OFFCURVE",
"396 291 OFFCURVE",
"385 308 CURVE",
"173 686 LINE",
"60 686 LINE",
"60 0 LINE"
);
}
);
width = 592;
}
);
leftKerningGroup = N;
rightKerningGroup = N;
unicode = 004E;
},
{
glyphname = Nacute;
layers = (
{
background = {
paths = (
{
closed = 1;
nodes = (
"149 0 LINE",
"149 437 LINE SMOOTH",
"149 465 OFFCURVE",
"145 528 OFFCURVE",
"145 528 CURVE",
"148 529 LINE",
"148 529 OFFCURVE",
"175 466 OFFCURVE",
"192 437 CURVE SMOOTH",
"449 0 LINE",
"522 0 LINE",
"522 686 LINE",
"443 686 LINE",
"443 255 LINE SMOOTH",
"443 233 OFFCURVE",
"446 164 OFFCURVE",
"446 164 CURVE",
"443 163 LINE",
"443 163 OFFCURVE",
"416 229 OFFCURVE",
"401 255 CURVE SMOOTH",
"146 686 LINE",
"70 686 LINE",
"70 0 LINE"
);
},
{
closed = 1;
nodes = (
"306 751 LINE",
"413 880 LINE",
"412 883 LINE",
"322 883 LINE",
"236 751 LINE"
);
}
);
};
components = (
{
name = N;
},
{
name = acutecomb.case;
transform = "{1, 0, 0, 1, 228, 160}";
}
);
layerId = UUID0;
width = 592;
},
{
background = {
paths = (
{
closed = 1;
nodes = (
"173 0 LINE",
"173 382 LINE SMOOTH",
"173 400 OFFCURVE",
"171 439 OFFCURVE",
"171 439 CURVE",
"175 442 LINE",
"175 442 OFFCURVE",
"198 392 OFFCURVE",
"206 378 CURVE SMOOTH",
"418 0 LINE",
"532 0 LINE",
"532 686 LINE",
"418 686 LINE",
"418 304 LINE SMOOTH",
"418 293 OFFCURVE",
"419 247 OFFCURVE",
"419 247 CURVE",
"416 244 LINE",
"416 244 OFFCURVE",
"396 291 OFFCURVE",
"385 308 CURVE",
"173 686 LINE",
"60 686 LINE",
"60 0 LINE"
);
},
{
closed = 1;
nodes = (
"326 751 LINE",
"434 880 LINE",
"433 883 LINE",
"313 883 LINE",
"227 751 LINE"
);
}
);
};
components = (
{
name = N;
},
{
name = acutecomb.case;
transform = "{1, 0, 0, 1, 222, 160}";
}
);
layerId = "31F25340-C351-400F-9C98-C04A412D1947";
width = 592;
}
);
leftKerningGroup = N;
rightKerningGroup = N;
unicode = 0143;
},
{
glyphname = Ncaron;
layers = (
{
background = {
paths = (
{
closed = 1;
nodes = (
"149 0 LINE",
"149 437 LINE SMOOTH",
"149 465 OFFCURVE",
"145 528 OFFCURVE",
"145 528 CURVE",
"148 529 LINE",
"148 529 OFFCURVE",
"175 466 OFFCURVE",
"192 437 CURVE SMOOTH",
"449 0 LINE",
"522 0 LINE",
"522 686 LINE",
"443 686 LINE",
"443 255 LINE SMOOTH",
"443 233 OFFCURVE",
"446 164 OFFCURVE",
"446 164 CURVE",
"443 163 LINE",
"443 163 OFFCURVE",
"416 229 OFFCURVE",
"401 255 CURVE SMOOTH",
"146 686 LINE",
"70 686 LINE",
"70 0 LINE"
);
},
{
closed = 1;
nodes = (
"334 748 LINE",
"421 883 LINE",
"341 883 LINE",
"296 804 LINE",
"251 883 LINE",
"171 883 LINE",
"256 748 LINE"
);
}
);
};
components = (
{
name = N;
},
{
name = caroncomb.case;
transform = "{1, 0, 0, 1, 171, 160}";
}
);
layerId = UUID0;
width = 592;
},
{
background = {
paths = (
{
closed = 1;
nodes = (
"173 0 LINE",
"173 382 LINE SMOOTH",
"173 400 OFFCURVE",
"171 439 OFFCURVE",
"171 439 CURVE",
"175 442 LINE",
"175 442 OFFCURVE",
"198 392 OFFCURVE",
"206 378 CURVE SMOOTH",
"418 0 LINE",
"532 0 LINE",
"532 686 LINE",
"418 686 LINE",
"418 304 LINE SMOOTH",
"418 293 OFFCURVE",
"419 247 OFFCURVE",
"419 247 CURVE",
"416 244 LINE",
"416 244 OFFCURVE",
"396 291 OFFCURVE",
"385 308 CURVE",
"173 686 LINE",
"60 686 LINE",
"60 0 LINE"
);
},
{
closed = 1;
nodes = (
"346 748 LINE",
"431 883 LINE",
"341 883 LINE",
"296 814 LINE",
"251 883 LINE",
"162 883 LINE",
"248 748 LINE"
);
}
);
};
components = (
{
name = N;
},
{
name = caroncomb.case;
transform = "{1, 0, 0, 1, 161, 160}";
}
);
layerId = "31F25340-C351-400F-9C98-C04A412D1947";
width = 592;
}
);
leftKerningGroup = N;
rightKerningGroup = N;
unicode = 0147;
},
{
glyphname = Ncommaaccent;
layers = (
{
background = {
paths = (
{
closed = 1;
nodes = (
"149 0 LINE",
"149 437 LINE SMOOTH",
"149 465 OFFCURVE",
"145 528 OFFCURVE",
"145 528 CURVE",
"148 529 LINE",
"148 529 OFFCURVE",
"175 466 OFFCURVE",
"192 437 CURVE SMOOTH",
"449 0 LINE",
"522 0 LINE",
"522 686 LINE",
"443 686 LINE",
"443 255 LINE SMOOTH",
"443 233 OFFCURVE",
"446 164 OFFCURVE",
"446 164 CURVE",
"443 163 LINE",
"443 163 OFFCURVE",
"416 229 OFFCURVE",
"401 255 CURVE SMOOTH",
"146 686 LINE",
"70 686 LINE",
"70 0 LINE"
);
},
{
closed = 1;
nodes = (
"310 -222 LINE",
"339 -144 LINE",
"339 -60 LINE",
"253 -60 LINE",
"253 -151 LINE",
"288 -151 LINE",
"265 -222 LINE"
);
}
);
};
components = (
{
name = N;
},
{
name = commaaccentcomb.case;
transform = "{1, 0, 0, 1, 252, 0}";
}
);
layerId = UUID0;
width = 592;
},
{
background = {
paths = (
{
closed = 1;
nodes = (
"173 0 LINE",
"173 382 LINE SMOOTH",
"173 400 OFFCURVE",
"171 439 OFFCURVE",
"171 439 CURVE",
"175 442 LINE",
"175 442 OFFCURVE",
"198 392 OFFCURVE",
"206 378 CURVE SMOOTH",
"418 0 LINE",
"532 0 LINE",
"532 686 LINE",
"418 686 LINE",
"418 304 LINE SMOOTH",
"418 293 OFFCURVE",
"419 247 OFFCURVE",
"419 247 CURVE",
"416 244 LINE",
"416 244 OFFCURVE",
"396 291 OFFCURVE",
"385 308 CURVE",
"173 686 LINE",
"60 686 LINE",
"60 0 LINE"
);
},
{
closed = 1;
nodes = (
"312 -263 LINE",
"358 -167 LINE",
"358 -55 LINE",
"234 -55 LINE",
"234 -178 LINE",
"283 -178 LINE",
"248 -263 LINE"
);
}
);
};
components = (
{
name = N;
},
{
name = commaaccentcomb.case;
transform = "{1, 0, 0, 1, 234, 0}";
}
);
layerId = "31F25340-C351-400F-9C98-C04A412D1947";
width = 592;
}
);
leftKerningGroup = N;
rightKerningGroup = N;
unicode = 0145;
},
{
glyphname = Eng;
layers = (
{
layerId = UUID0;
paths = (
{
closed = 1;
nodes = (
"498 -182 OFFCURVE",
"522 -121 OFFCURVE",
"522 -61 CURVE SMOOTH",
"522 686 LINE",
"440 686 LINE",
"443 255 LINE SMOOTH",
"443 233 OFFCURVE",
"446 164 OFFCURVE",
"446 164 CURVE",
"443 163 LINE",
"443 163 OFFCURVE",
"416 229 OFFCURVE",
"401 255 CURVE SMOOTH",
"146 686 LINE",
"70 686 LINE",
"70 0 LINE",
"149 0 LINE",
"149 437 LINE SMOOTH",
"149 465 OFFCURVE",
"145 528 OFFCURVE",
"145 528 CURVE",
"148 529 LINE",
"148 529 OFFCURVE",
"175 466 OFFCURVE",
"192 437 CURVE SMOOTH",
"440 15 LINE",
"440 -65 LINE",
"440 -96 OFFCURVE",
"424 -113 OFFCURVE",
"393 -113 CURVE SMOOTH",
"349 -113 LINE",
"349 -170 LINE",
"366 -176 OFFCURVE",
"394 -182 OFFCURVE",
"418 -182 CURVE SMOOTH"
);
}
);
width = 592;
},
{
background = {
paths = (
{
closed = 1;
nodes = (
"542 686 LINE",
"422 686 LINE",
"422 298 LINE SMOOTH",
"422 287 OFFCURVE",
"427 241 OFFCURVE",
"427 241 CURVE",
"424 238 LINE",
"424 238 OFFCURVE",
"405 281 OFFCURVE",
"395 298 CURVE SMOOTH",
"168 686 LINE",
"50 686 LINE",
"50 0 LINE",
"169 0 LINE",
"169 388 LINE SMOOTH",
"169 406 OFFCURVE",
"164 445 OFFCURVE",
"164 445 CURVE",
"168 448 LINE",
"168 448 OFFCURVE",
"188 402 OFFCURVE",
"196 388 CURVE SMOOTH",
"422 3 LINE",
"422 -33 LINE",
"422 -64 OFFCURVE",
"406 -81 OFFCURVE",
"375 -81 CURVE SMOOTH",
"331 -81 LINE",
"331 -170 LINE",
"352 -176 OFFCURVE",
"390 -182 OFFCURVE",
"420 -182 CURVE SMOOTH",
"516 -182 OFFCURVE",
"542 -111 OFFCURVE",
"542 -41 CURVE SMOOTH"
);
}
);
};
layerId = "31F25340-C351-400F-9C98-C04A412D1947";
paths = (
{
closed = 1;
nodes = (
"506 -182 OFFCURVE",
"532 -111 OFFCURVE",
"532 -41 CURVE SMOOTH",
"532 686 LINE",
"418 686 LINE",
"418 304 LINE SMOOTH",
"418 293 OFFCURVE",
"419 247 OFFCURVE",
"419 247 CURVE",
"416 244 LINE",
"416 244 OFFCURVE",
"396 291 OFFCURVE",
"385 308 CURVE",
"173 686 LINE",
"60 686 LINE",
"60 0 LINE",
"173 0 LINE",
"173 382 LINE SMOOTH",
"173 400 OFFCURVE",
"171 439 OFFCURVE",
"171 439 CURVE",
"175 442 LINE",
"175 442 OFFCURVE",
"198 392 OFFCURVE",
"206 378 CURVE SMOOTH",
"415 0 LINE",
"415 -33 LINE SMOOTH",
"415 -64 OFFCURVE",
"399 -81 OFFCURVE",
"368 -81 CURVE SMOOTH",
"323 -81 LINE",
"323 -170 LINE",
"344 -176 OFFCURVE",
"380 -182 OFFCURVE",
"410 -182 CURVE SMOOTH"
);
}
);
width = 592;
}
);
leftKerningGroup = N;
rightKerningGroup = N;
unicode = 014A;
},
{
glyphname = Nhookleft;
layers = (
{
layerId = UUID0;
paths = (
{
closed = 1;
nodes = (
"121 -182 OFFCURVE",
"149 -121 OFFCURVE",
"149 -61 CURVE SMOOTH",
"149 437 LINE SMOOTH",
"149 457 OFFCURVE",
"147 501 OFFCURVE",
"145 528 CURVE",
"148 529 LINE",
"160 502 OFFCURVE",
"180 458 OFFCURVE",
"192 437 CURVE SMOOTH",
"449 0 LINE",
"522 0 LINE",
"522 686 LINE",
"443 686 LINE",
"443 255 LINE SMOOTH",
"443 239 OFFCURVE",
"445 194 OFFCURVE",
"446 164 CURVE",
"443 163 LINE",
"431 191 OFFCURVE",
"412 236 OFFCURVE",
"401 255 CURVE SMOOTH",
"146 686 LINE",
"70 686 LINE",
"70 -65 LINE SMOOTH",
"70 -96 OFFCURVE",
"54 -113 OFFCURVE",
"23 -113 CURVE SMOOTH",
"-21 -113 LINE",
"-21 -170 LINE",
"-4 -176 OFFCURVE",
"24 -182 OFFCURVE",
"48 -182 CURVE SMOOTH"
);
}
);
width = 592;
},
{
layerId = "31F25340-C351-400F-9C98-C04A412D1947";
paths = (
{
closed = 1;
nodes = (
"140 -182 OFFCURVE",
"173 -124 OFFCURVE",
"173 -58 CURVE SMOOTH",
"173 382 LINE SMOOTH",
"173 395 OFFCURVE",
"172 422 OFFCURVE",
"171 439 CURVE",
"175 442 LINE",
"185 421 OFFCURVE",
"200 388 OFFCURVE",
"206 378 CURVE SMOOTH",
"418 0 LINE",
"532 0 LINE",
"532 686 LINE",
"418 686 LINE",
"418 304 LINE SMOOTH",
"418 284 OFFCURVE",
"418 265 OFFCURVE",
"420 245 CURVE",
"416 244 LINE",
"407 264 OFFCURVE",
"393 296 OFFCURVE",
"385 308 CURVE",
"173 686 LINE",
"60 686 LINE",
"60 -40 LINE SMOOTH",
"60 -69 OFFCURVE",
"44 -85 OFFCURVE",
"15 -85 CURVE SMOOTH",
"-34 -85 LINE",
"-34 -167 LINE",
"-14 -175 OFFCURVE",
"23 -182 OFFCURVE",
"51 -182 CURVE SMOOTH"
);
}
);
width = 592;
}
);
leftKerningGroup = H;
rightKerningGroup = H;
unicode = 019D;
},
{
glyphname = Ntilde;
layers = (
{
background = {
paths = (
{
closed = 1;
nodes = (
"149 0 LINE",
"149 437 LINE SMOOTH",
"149 465 OFFCURVE",
"145 528 OFFCURVE",
"145 528 CURVE",
"148 529 LINE",
"148 529 OFFCURVE",
"175 466 OFFCURVE",
"192 437 CURVE SMOOTH",
"449 0 LINE",
"522 0 LINE",
"522 686 LINE",
"443 686 LINE",
"443 255 LINE SMOOTH",
"443 233 OFFCURVE",
"446 164 OFFCURVE",
"446 164 CURVE",
"443 163 LINE",
"443 163 OFFCURVE",
"416 229 OFFCURVE",
"401 255 CURVE SMOOTH",
"146 686 LINE",
"70 686 LINE",
"70 0 LINE"
);
},
{
closed = 1;
nodes = (
"208 779 LINE",
"211 802 OFFCURVE",
"224 810 OFFCURVE",
"242 810 CURVE SMOOTH",
"281 810 OFFCURVE",
"313 779 OFFCURVE",
"357 779 CURVE SMOOTH",
"417 779 OFFCURVE",
"442 837 OFFCURVE",
"442 883 CURVE",
"384 883 LINE",
"381 860 OFFCURVE",
"368 853 OFFCURVE",
"350 853 CURVE SMOOTH",
"311 853 OFFCURVE",
"278 883 OFFCURVE",
"235 883 CURVE SMOOTH",
"175 883 OFFCURVE",
"150 825 OFFCURVE",
"150 779 CURVE"
);
}
);
};
components = (
{
name = N;
},
{
name = tildecomb.case;
transform = "{1, 0, 0, 1, 164, 160}";
}
);
layerId = UUID0;
width = 592;
},
{
background = {
paths = (
{
closed = 1;
nodes = (
"173 0 LINE",
"173 382 LINE SMOOTH",
"173 400 OFFCURVE",
"171 439 OFFCURVE",
"171 439 CURVE",
"175 442 LINE",
"175 442 OFFCURVE",
"198 392 OFFCURVE",
"206 378 CURVE SMOOTH",
"418 0 LINE",
"532 0 LINE",
"532 686 LINE",
"418 686 LINE",
"418 304 LINE SMOOTH",
"418 293 OFFCURVE",
"419 247 OFFCURVE",
"419 247 CURVE",
"416 244 LINE",
"416 244 OFFCURVE",
"396 291 OFFCURVE",
"385 308 CURVE",
"173 686 LINE",
"60 686 LINE",
"60 0 LINE"
);
},
{
closed = 1;
nodes = (
"194 761 LINE",
"198 788 OFFCURVE",
"212 798 OFFCURVE",
"233 798 CURVE SMOOTH",
"278 798 OFFCURVE",
"317 761 OFFCURVE",
"365 761 CURVE SMOOTH",
"436 761 OFFCURVE",
"464 828 OFFCURVE",
"464 883 CURVE",
"398 883 LINE",
"394 855 OFFCURVE",
"380 846 OFFCURVE",
"359 846 CURVE SMOOTH",
"314 846 OFFCURVE",
"275 883 OFFCURVE",
"226 883 CURVE SMOOTH",
"156 883 OFFCURVE",
"128 816 OFFCURVE",
"128 761 CURVE"
);
}
);
};
components = (
{
name = N;
},
{
name = tildecomb.case;
transform = "{1, 0, 0, 1, 144, 160}";
}
);
layerId = "31F25340-C351-400F-9C98-C04A412D1947";
width = 592;
}
);
leftKerningGroup = N;
rightKerningGroup = N;
unicode = 00D1;
},
{
glyphname = O;
layers = (
{
anchors = (
{
name = bottom;
position = "{319, 0}";
},
{
name = center;
position = "{319, 343}";
},
{
name = ogonek;
position = "{354, 0}";
},
{
name = top;
position = "{319, 686}";
},
{
name = topleft;
position = "{20, 686}";
},
{
name = topright;
position = "{398, 686}";
}
);
layerId = UUID0;
paths = (
{
closed = 1;
nodes = (
"487 -12 OFFCURVE",
"589 105 OFFCURVE",
"589 343 CURVE SMOOTH",
"589 581 OFFCURVE",
"487 698 OFFCURVE",
"319 698 CURVE SMOOTH",
"151 698 OFFCURVE",
"49 581 OFFCURVE",
"49 343 CURVE SMOOTH",
"49 105 OFFCURVE",
"151 -12 OFFCURVE",
"319 -12 CURVE SMOOTH"
);
},
{
closed = 1;
nodes = (
"209 69 OFFCURVE",
"141 151 OFFCURVE",
"141 318 CURVE SMOOTH",
"141 368 LINE",
"141 535 OFFCURVE",
"209 617 OFFCURVE",
"319 617 CURVE SMOOTH",
"429 617 OFFCURVE",
"497 535 OFFCURVE",
"497 368 CURVE SMOOTH",
"497 318 LINE SMOOTH",
"497 151 OFFCURVE",
"429 69 OFFCURVE",
"319 69 CURVE SMOOTH"
);
}
);
width = 638;
},
{
anchors = (
{
name = bottom;
position = "{319, 0}";
},
{
name = center;
position = "{319, 343}";
},
{
name = ogonek;
position = "{364, 0}";
},
{
name = top;
position = "{319, 686}";
},
{
name = topleft;
position = "{20, 686}";
},
{
name = topright;
position = "{408, 686}";
}
);
layerId = "31F25340-C351-400F-9C98-C04A412D1947";
paths = (
{
closed = 1;
nodes = (
"496 -12 OFFCURVE",
"604 101 OFFCURVE",
"604 343 CURVE SMOOTH",
"604 585 OFFCURVE",
"496 698 OFFCURVE",
"319 698 CURVE SMOOTH",
"142 698 OFFCURVE",
"34 585 OFFCURVE",
"34 343 CURVE SMOOTH",
"34 101 OFFCURVE",
"142 -12 OFFCURVE",
"319 -12 CURVE SMOOTH"
);
},
{
closed = 1;
nodes = (
"217 98 OFFCURVE",
"166 181 OFFCURVE",
"166 318 CURVE SMOOTH",
"166 368 LINE",
"166 505 OFFCURVE",
"217 588 OFFCURVE",
"319 588 CURVE SMOOTH",
"421 588 OFFCURVE",
"472 505 OFFCURVE",
"472 368 CURVE SMOOTH",
"472 318 LINE SMOOTH",
"472 181 OFFCURVE",
"421 98 OFFCURVE",
"319 98 CURVE SMOOTH"
);
}
);
width = 638;
}
);
leftKerningGroup = O;
rightKerningGroup = O;
unicode = 004F;
},
{
glyphname = Oacute;
layers = (
{
background = {
paths = (
{
closed = 1;
nodes = (
"487 -12 OFFCURVE",
"589 105 OFFCURVE",
"589 343 CURVE SMOOTH",
"589 581 OFFCURVE",
"487 698 OFFCURVE",
"319 698 CURVE SMOOTH",
"151 698 OFFCURVE",
"49 581 OFFCURVE",
"49 343 CURVE SMOOTH",
"49 105 OFFCURVE",
"151 -12 OFFCURVE",
"319 -12 CURVE SMOOTH"
);
},
{
closed = 1;
nodes = (
"209 69 OFFCURVE",
"141 151 OFFCURVE",
"141 318 CURVE SMOOTH",
"141 368 LINE",
"141 535 OFFCURVE",
"209 617 OFFCURVE",
"319 617 CURVE SMOOTH",
"429 617 OFFCURVE",
"497 535 OFFCURVE",
"497 368 CURVE SMOOTH",
"497 318 LINE SMOOTH",
"497 151 OFFCURVE",
"429 69 OFFCURVE",
"319 69 CURVE SMOOTH"
);
},
{
closed = 1;
nodes = (
"329 751 LINE",
"437 880 LINE",
"436 883 LINE",
"346 883 LINE",
"260 751 LINE"
);
}
);
};
components = (
{
name = O;
},
{
name = acutecomb.case;
transform = "{1, 0, 0, 1, 251, 160}";
}
);
layerId = UUID0;
width = 638;
},
{
background = {
paths = (
{
closed = 1;
nodes = (
"496 -12 OFFCURVE",
"604 101 OFFCURVE",
"604 343 CURVE SMOOTH",
"604 585 OFFCURVE",
"496 698 OFFCURVE",
"319 698 CURVE SMOOTH",
"142 698 OFFCURVE",
"34 585 OFFCURVE",
"34 343 CURVE SMOOTH",
"34 101 OFFCURVE",
"142 -12 OFFCURVE",
"319 -12 CURVE SMOOTH"
);
},
{
closed = 1;
nodes = (
"217 98 OFFCURVE",
"166 181 OFFCURVE",
"166 318 CURVE SMOOTH",
"166 368 LINE",
"166 505 OFFCURVE",
"217 588 OFFCURVE",
"319 588 CURVE SMOOTH",
"421 588 OFFCURVE",
"472 505 OFFCURVE",
"472 368 CURVE SMOOTH",
"472 318 LINE SMOOTH",
"472 181 OFFCURVE",
"421 98 OFFCURVE",
"319 98 CURVE SMOOTH"
);
},
{
closed = 1;
nodes = (
"350 751 LINE",
"458 880 LINE",
"457 883 LINE",
"336 883 LINE",
"250 751 LINE"
);
}
);
};
components = (
{
name = O;
},
{
name = acutecomb.case;
transform = "{1, 0, 0, 1, 245, 160}";
}
);
layerId = "31F25340-C351-400F-9C98-C04A412D1947";
width = 638;
}
);
leftKerningGroup = O;
rightKerningGroup = O;
unicode = 00D3;
},
{
glyphname = Obreve;
layers = (
{
background = {
paths = (
{
closed = 1;
nodes = (
"396 786 OFFCURVE",
"443 838 OFFCURVE",
"443 883 CURVE",
"379 883 LINE",
"377 869 OFFCURVE",
"353 850 OFFCURVE",
"319 850 CURVE SMOOTH",
"286 850 OFFCURVE",
"263 869 OFFCURVE",
"260 883 CURVE",
"196 883 LINE",
"196 838 OFFCURVE",
"243 786 OFFCURVE",
"319 786 CURVE SMOOTH"
);
}
);
};
components = (
{
name = O;
},
{
name = brevecomb.case;
transform = "{1, 0, 0, 1, 195, 160}";
}
);
layerId = UUID0;
width = 638;
},
{
background = {
paths = (
{
closed = 1;
nodes = (
"402 776 OFFCURVE",
"453 833 OFFCURVE",
"453 883 CURVE",
"379 883 LINE",
"377 869 OFFCURVE",
"353 850 OFFCURVE",
"319 850 CURVE SMOOTH",
"286 850 OFFCURVE",
"263 869 OFFCURVE",
"260 883 CURVE",
"186 883 LINE",
"186 833 OFFCURVE",
"237 776 OFFCURVE",
"319 776 CURVE SMOOTH"
);
}
);
};
components = (
{
name = O;
},
{
name = brevecomb.case;
transform = "{1, 0, 0, 1, 185, 160}";
}
);
layerId = "31F25340-C351-400F-9C98-C04A412D1947";
width = 638;
}
);
leftKerningGroup = O;
rightKerningGroup = O;
unicode = 014E;
},
{
glyphname = Ocircumflex;
layers = (
{
background = {
paths = (
{
closed = 1;
nodes = (
"275 747 LINE",
"320 826 LINE",
"364 747 LINE",
"444 747 LINE",
"359 882 LINE",
"281 882 LINE",
"195 747 LINE"
);
}
);
};
components = (
{
name = O;
},
{
name = circumflexcomb.case;
transform = "{1, 0, 0, 1, 194, 160}";
}
);
layerId = UUID0;
width = 638;
},
{
background = {
paths = (
{
closed = 1;
nodes = (
"275 748 LINE",
"320 817 LINE",
"364 748 LINE",
"454 748 LINE",
"369 883 LINE",
"271 883 LINE",
"185 748 LINE"
);
}
);
};
components = (
{
name = O;
},
{
name = circumflexcomb.case;
transform = "{1, 0, 0, 1, 184, 160}";
}
);
layerId = "31F25340-C351-400F-9C98-C04A412D1947";
width = 638;
}
);
leftKerningGroup = O;
rightKerningGroup = O;
unicode = 00D4;
},
{
glyphname = Odieresis;
layers = (
{
background = {
paths = (
{
closed = 1;
nodes = (
"288 788 LINE",
"288 883 LINE",
"201 883 LINE",
"201 788 LINE"
);
},
{
closed = 1;
nodes = (
"438 788 LINE",
"438 883 LINE",
"351 883 LINE",
"351 788 LINE"
);
}
);
};
components = (
{
name = O;
},
{
name = dieresiscomb.case;
transform = "{1, 0, 0, 1, 200, 160}";
}
);
layerId = UUID0;
width = 638;
},
{
background = {
paths = (
{
closed = 1;
nodes = (
"282 774 LINE",
"282 883 LINE",
"182 883 LINE",
"182 774 LINE"
);
},
{
closed = 1;
nodes = (
"457 774 LINE",
"457 883 LINE",
"357 883 LINE",
"357 774 LINE"
);
}
);
};
components = (
{
name = O;
},
{
name = dieresiscomb.case;
transform = "{1, 0, 0, 1, 181, 160}";
}
);
layerId = "31F25340-C351-400F-9C98-C04A412D1947";
width = 638;
}
);
leftKerningGroup = O;
rightKerningGroup = O;
unicode = 00D6;
},
{
glyphname = Ograve;
layers = (
{
background = {
paths = (
{
closed = 1;
nodes = (
"379 751 LINE",
"293 883 LINE",
"203 883 LINE",
"202 880 LINE",
"310 751 LINE"
);
}
);
};
components = (
{
name = O;
},
{
name = gravecomb.case;
transform = "{1, 0, 0, 1, 195, 160}";
}
);
layerId = UUID0;
width = 638;
},
{
background = {
paths = (
{
closed = 1;
nodes = (
"388 751 LINE",
"302 883 LINE",
"182 883 LINE",
"181 880 LINE",
"289 751 LINE"
);
}
);
};
components = (
{
name = O;
},
{
name = gravecomb.case;
transform = "{1, 0, 0, 1, 181, 160}";
}
);
layerId = "31F25340-C351-400F-9C98-C04A412D1947";
width = 638;
}
);
leftKerningGroup = O;
rightKerningGroup = O;
unicode = 00D2;
},
{
glyphname = Ohungarumlaut;
layers = (
{
background = {
paths = (
{
closed = 1;
nodes = (
"487 -12 OFFCURVE",
"589 105 OFFCURVE",
"589 343 CURVE SMOOTH",
"589 581 OFFCURVE",
"487 698 OFFCURVE",
"319 698 CURVE SMOOTH",
"151 698 OFFCURVE",
"49 581 OFFCURVE",
"49 343 CURVE SMOOTH",
"49 105 OFFCURVE",
"151 -12 OFFCURVE",
"319 -12 CURVE SMOOTH"
);
},
{
closed = 1;
nodes = (
"209 69 OFFCURVE",
"141 151 OFFCURVE",
"141 318 CURVE SMOOTH",
"141 368 LINE",
"141 535 OFFCURVE",
"209 617 OFFCURVE",
"319 617 CURVE SMOOTH",
"429 617 OFFCURVE",
"497 535 OFFCURVE",
"497 368 CURVE SMOOTH",
"497 318 LINE SMOOTH",
"497 151 OFFCURVE",
"429 69 OFFCURVE",
"319 69 CURVE SMOOTH"
);
},
{
closed = 1;
nodes = (
"292 751 LINE",
"376 880 LINE",
"375 883 LINE",
"286 883 LINE",
"224 751 LINE"
);
},
{
closed = 1;
nodes = (
"423 751 LINE",
"507 880 LINE",
"506 883 LINE",
"416 883 LINE",
"354 751 LINE"
);
}
);
};
components = (
{
name = O;
},
{
name = hungarumlautcomb.case;
transform = "{1, 0, 0, 1, 223, 160}";
}
);
layerId = UUID0;
width = 638;
},
{
background = {
paths = (
{
closed = 1;
nodes = (
"496 -12 OFFCURVE",
"604 101 OFFCURVE",
"604 343 CURVE SMOOTH",
"604 585 OFFCURVE",
"496 698 OFFCURVE",
"319 698 CURVE SMOOTH",
"142 698 OFFCURVE",
"34 585 OFFCURVE",
"34 343 CURVE SMOOTH",
"34 101 OFFCURVE",
"142 -12 OFFCURVE",
"319 -12 CURVE SMOOTH"
);
},
{
closed = 1;
nodes = (
"217 98 OFFCURVE",
"166 181 OFFCURVE",
"166 318 CURVE SMOOTH",
"166 368 LINE",
"166 505 OFFCURVE",
"217 588 OFFCURVE",
"319 588 CURVE SMOOTH",
"421 588 OFFCURVE",
"472 505 OFFCURVE",
"472 368 CURVE SMOOTH",
"472 318 LINE SMOOTH",
"472 181 OFFCURVE",
"421 98 OFFCURVE",
"319 98 CURVE SMOOTH"
);
},
{
closed = 1;
nodes = (
"286 751 LINE",
"370 880 LINE",
"369 883 LINE",
"269 883 LINE",
"207 751 LINE"
);
},
{
closed = 1;
nodes = (
"426 751 LINE",
"510 880 LINE",
"509 883 LINE",
"409 883 LINE",
"347 751 LINE"
);
}
);
};
components = (
{
name = O;
},
{
name = hungarumlautcomb.case;
transform = "{1, 0, 0, 1, 206, 160}";
}
);
layerId = "31F25340-C351-400F-9C98-C04A412D1947";
width = 638;
}
);
leftKerningGroup = O;
rightKerningGroup = O;
unicode = 0150;
},
{
glyphname = Omacron;
layers = (
{
background = {
paths = (
{
closed = 1;
nodes = (
"487 -12 OFFCURVE",
"589 105 OFFCURVE",
"589 343 CURVE SMOOTH",
"589 581 OFFCURVE",
"487 698 OFFCURVE",
"319 698 CURVE SMOOTH",
"151 698 OFFCURVE",
"49 581 OFFCURVE",
"49 343 CURVE SMOOTH",
"49 105 OFFCURVE",
"151 -12 OFFCURVE",
"319 -12 CURVE SMOOTH"
);
},
{
closed = 1;
nodes = (
"209 69 OFFCURVE",
"141 151 OFFCURVE",
"141 318 CURVE SMOOTH",
"141 368 LINE",
"141 535 OFFCURVE",
"209 617 OFFCURVE",
"319 617 CURVE SMOOTH",
"429 617 OFFCURVE",
"497 535 OFFCURVE",
"497 368 CURVE SMOOTH",
"497 318 LINE SMOOTH",
"497 151 OFFCURVE",
"429 69 OFFCURVE",
"319 69 CURVE SMOOTH"
);
},
{
closed = 1;
nodes = (
"445 759 LINE",
"445 831 LINE",
"194 831 LINE",
"194 759 LINE"
);
}
);
};
components = (
{
name = O;
},
{
name = macroncomb.case;
transform = "{1, 0, 0, 1, 194, 160}";
}
);
layerId = UUID0;
width = 638;
},
{
background = {
paths = (
{
closed = 1;
nodes = (
"496 -12 OFFCURVE",
"604 101 OFFCURVE",
"604 343 CURVE SMOOTH",
"604 585 OFFCURVE",
"496 698 OFFCURVE",
"319 698 CURVE SMOOTH",
"142 698 OFFCURVE",
"34 585 OFFCURVE",
"34 343 CURVE SMOOTH",
"34 101 OFFCURVE",
"142 -12 OFFCURVE",
"319 -12 CURVE SMOOTH"
);
},
{
closed = 1;
nodes = (
"217 98 OFFCURVE",
"166 181 OFFCURVE",
"166 318 CURVE SMOOTH",
"166 368 LINE",
"166 505 OFFCURVE",
"217 588 OFFCURVE",
"319 588 CURVE SMOOTH",
"421 588 OFFCURVE",
"472 505 OFFCURVE",
"472 368 CURVE SMOOTH",
"472 318 LINE SMOOTH",
"472 181 OFFCURVE",
"421 98 OFFCURVE",
"319 98 CURVE SMOOTH"
);
},
{
closed = 1;
nodes = (
"447 759 LINE",
"447 846 LINE",
"192 846 LINE",
"192 759 LINE"
);
}
);
};
components = (
{
name = O;
},
{
name = macroncomb.case;
transform = "{1, 0, 0, 1, 191, 160}";
}
);
layerId = "31F25340-C351-400F-9C98-C04A412D1947";
width = 638;
}
);
leftKerningGroup = O;
rightKerningGroup = O;
unicode = 014C;
},
{
glyphname = Oslash;
layers = (
{
anchors = (
{
name = bottom;
position = "{319, 0}";
},
{
name = top;
position = "{319, 686}";
}
);
background = {
paths = (
{
closed = 1;
nodes = (
"114 -37 LINE",
"160 37 LINE",
"202 4 OFFCURVE",
"256 -12 OFFCURVE",
"319 -12 CURVE SMOOTH",
"487 -12 OFFCURVE",
"589 105 OFFCURVE",
"589 343 CURVE SMOOTH",
"589 461 OFFCURVE",
"563 550 OFFCURVE",
"517 609 CURVE",
"589 723 LINE",
"525 723 LINE",
"478 648 LINE",
"436 681 OFFCURVE",
"382 698 OFFCURVE",
"319 698 CURVE SMOOTH",
"151 698 OFFCURVE",
"49 581 OFFCURVE",
"49 343 CURVE SMOOTH",
"49 224 OFFCURVE",
"74 135 OFFCURVE",
"121 76 CURVE",
"50 -37 LINE"
);
},
{
closed = 1;
nodes = (
"273 69 OFFCURVE",
"235 83 OFFCURVE",
"206 111 CURVE",
"466 527 LINE",
"486 487 OFFCURVE",
"497 434 OFFCURVE",
"497 368 CURVE",
"497 318 LINE SMOOTH",
"497 151 OFFCURVE",
"429 69 OFFCURVE",
"319 69 CURVE SMOOTH"
);
},
{
closed = 1;
nodes = (
"152 198 OFFCURVE",
"141 251 OFFCURVE",
"141 318 CURVE SMOOTH",
"141 368 LINE",
"141 535 OFFCURVE",
"209 617 OFFCURVE",
"319 617 CURVE SMOOTH",
"364 617 OFFCURVE",
"402 603 OFFCURVE",
"432 574 CURVE",
"172 158 LINE"
);
}
);
};
components = (
{
name = O;
}
);
layerId = UUID0;
paths = (
{
closed = 1;
nodes = (
"114 -37 LINE",
"589 723 LINE",
"525 723 LINE",
"50 -37 LINE"
);
}
);
width = 638;
},
{
anchors = (
{
name = bottom;
position = "{319, 0}";
},
{
name = top;
position = "{319, 686}";
}
);
background = {
paths = (
{
closed = 1;
nodes = (
"124 -37 LINE",
"164 27 LINE",
"207 1 OFFCURVE",
"259 -12 OFFCURVE",
"319 -12 CURVE SMOOTH",
"496 -12 OFFCURVE",
"604 101 OFFCURVE",
"604 343 CURVE SMOOTH",
"604 463 OFFCURVE",
"577 552 OFFCURVE",
"528 610 CURVE",
"599 723 LINE",
"515 723 LINE",
"474 658 LINE",
"431 685 OFFCURVE",
"379 698 OFFCURVE",
"319 698 CURVE SMOOTH",
"142 698 OFFCURVE",
"34 585 OFFCURVE",
"34 343 CURVE SMOOTH",
"34 222 OFFCURVE",
"61 133 OFFCURVE",
"110 75 CURVE",
"40 -37 LINE"
);
},
{
closed = 1;
nodes = (
"282 98 OFFCURVE",
"251 109 OFFCURVE",
"228 129 CURVE",
"453 490 LINE",
"466 457 OFFCURVE",
"472 415 OFFCURVE",
"472 368 CURVE",
"472 318 LINE SMOOTH",
"472 181 OFFCURVE",
"421 98 OFFCURVE",
"319 98 CURVE SMOOTH"
);
},
{
closed = 1;
nodes = (
"172 228 OFFCURVE",
"166 270 OFFCURVE",
"166 318 CURVE SMOOTH",
"166 368 LINE SMOOTH",
"166 505 OFFCURVE",
"217 588 OFFCURVE",
"319 588 CURVE SMOOTH",
"356 588 OFFCURVE",
"387 577 OFFCURVE",
"410 556 CURVE",
"184 194 LINE"
);
}
);
};
components = (
{
name = O;
}
);
layerId = "31F25340-C351-400F-9C98-C04A412D1947";
paths = (
{
closed = 1;
nodes = (
"124 -37 LINE",
"599 723 LINE",
"515 723 LINE",
"40 -37 LINE"
);
}
);
width = 638;
}
);
leftKerningGroup = O;
rightKerningGroup = O;
unicode = 00D8;
},
{
glyphname = Oslashacute;
layers = (
{
background = {
paths = (
{
closed = 1;
nodes = (
"114 -37 LINE",
"160 37 LINE",
"202 4 OFFCURVE",
"256 -12 OFFCURVE",
"319 -12 CURVE SMOOTH",
"487 -12 OFFCURVE",
"589 105 OFFCURVE",
"589 343 CURVE SMOOTH",
"589 461 OFFCURVE",
"563 550 OFFCURVE",
"517 609 CURVE",
"589 723 LINE",
"525 723 LINE",
"478 648 LINE",
"436 681 OFFCURVE",
"382 698 OFFCURVE",
"319 698 CURVE SMOOTH",
"151 698 OFFCURVE",
"49 581 OFFCURVE",
"49 343 CURVE SMOOTH",
"49 224 OFFCURVE",
"74 135 OFFCURVE",
"121 76 CURVE",
"50 -37 LINE"
);
},
{
closed = 1;
nodes = (
"273 69 OFFCURVE",
"235 83 OFFCURVE",
"206 111 CURVE",
"466 527 LINE",
"486 487 OFFCURVE",
"497 434 OFFCURVE",
"497 368 CURVE",
"497 318 LINE SMOOTH",
"497 151 OFFCURVE",
"429 69 OFFCURVE",
"319 69 CURVE SMOOTH"
);
},
{
closed = 1;
nodes = (
"152 198 OFFCURVE",
"141 251 OFFCURVE",
"141 318 CURVE SMOOTH",
"141 368 LINE",
"141 535 OFFCURVE",
"209 617 OFFCURVE",
"319 617 CURVE SMOOTH",
"364 617 OFFCURVE",
"402 603 OFFCURVE",
"432 574 CURVE",
"172 158 LINE"
);
},
{
closed = 1;
nodes = (
"329 751 LINE",
"437 880 LINE",
"436 883 LINE",
"346 883 LINE",
"260 751 LINE"
);
}
);
};
components = (
{
name = Oslash;
},
{
name = acutecomb.case;
transform = "{1, 0, 0, 1, 251, 160}";
}
);
layerId = UUID0;
width = 638;
},
{
background = {
paths = (
{
closed = 1;
nodes = (
"124 -37 LINE",
"164 27 LINE",
"207 1 OFFCURVE",
"259 -12 OFFCURVE",
"319 -12 CURVE SMOOTH",
"496 -12 OFFCURVE",
"604 101 OFFCURVE",
"604 343 CURVE SMOOTH",
"604 463 OFFCURVE",
"577 552 OFFCURVE",
"528 610 CURVE",
"599 723 LINE",
"515 723 LINE",
"474 658 LINE",
"431 685 OFFCURVE",
"379 698 OFFCURVE",
"319 698 CURVE SMOOTH",
"142 698 OFFCURVE",
"34 585 OFFCURVE",
"34 343 CURVE SMOOTH",
"34 222 OFFCURVE",
"61 133 OFFCURVE",
"110 75 CURVE",
"40 -37 LINE"
);
},
{
closed = 1;
nodes = (
"282 98 OFFCURVE",
"251 109 OFFCURVE",
"228 129 CURVE",
"453 490 LINE",
"466 457 OFFCURVE",
"472 415 OFFCURVE",
"472 368 CURVE",
"472 318 LINE SMOOTH",
"472 181 OFFCURVE",
"421 98 OFFCURVE",
"319 98 CURVE SMOOTH"
);
},
{
closed = 1;
nodes = (
"172 228 OFFCURVE",
"166 270 OFFCURVE",
"166 318 CURVE SMOOTH",
"166 368 LINE SMOOTH",
"166 505 OFFCURVE",
"217 588 OFFCURVE",
"319 588 CURVE SMOOTH",
"356 588 OFFCURVE",
"387 577 OFFCURVE",
"410 556 CURVE",
"184 194 LINE"
);
},
{
closed = 1;
nodes = (
"350 751 LINE",
"458 880 LINE",
"457 883 LINE",
"336 883 LINE",
"250 751 LINE"
);
}
);
};
components = (
{
name = Oslash;
},
{
name = acutecomb.case;
transform = "{1, 0, 0, 1, 245, 160}";
}
);
layerId = "31F25340-C351-400F-9C98-C04A412D1947";
width = 638;
}
);
leftKerningGroup = O;
rightKerningGroup = O;
unicode = 01FE;
},
{
glyphname = Otilde;
layers = (
{
background = {
paths = (
{
closed = 1;
nodes = (
"487 -12 OFFCURVE",
"589 105 OFFCURVE",
"589 343 CURVE SMOOTH",
"589 581 OFFCURVE",
"487 698 OFFCURVE",
"319 698 CURVE SMOOTH",
"151 698 OFFCURVE",
"49 581 OFFCURVE",
"49 343 CURVE SMOOTH",
"49 105 OFFCURVE",
"151 -12 OFFCURVE",
"319 -12 CURVE SMOOTH"
);
},
{
closed = 1;
nodes = (
"209 69 OFFCURVE",
"141 151 OFFCURVE",
"141 318 CURVE SMOOTH",
"141 368 LINE",
"141 535 OFFCURVE",
"209 617 OFFCURVE",
"319 617 CURVE SMOOTH",
"429 617 OFFCURVE",
"497 535 OFFCURVE",
"497 368 CURVE SMOOTH",
"497 318 LINE SMOOTH",
"497 151 OFFCURVE",
"429 69 OFFCURVE",
"319 69 CURVE SMOOTH"
);
}
);
};
components = (
{
name = O;
},
{
alignment = 1;
name = tildecomb.case;
transform = "{1, 0, 0, 1, 187, 160}";
}
);
layerId = UUID0;
width = 638;
},
{
background = {
paths = (
{
closed = 1;
nodes = (
"496 -12 OFFCURVE",
"604 101 OFFCURVE",
"604 343 CURVE SMOOTH",
"604 585 OFFCURVE",
"496 698 OFFCURVE",
"319 698 CURVE SMOOTH",
"142 698 OFFCURVE",
"34 585 OFFCURVE",
"34 343 CURVE SMOOTH",
"34 101 OFFCURVE",
"142 -12 OFFCURVE",
"319 -12 CURVE SMOOTH"
);
},
{
closed = 1;
nodes = (
"217 98 OFFCURVE",
"166 181 OFFCURVE",
"166 318 CURVE SMOOTH",
"166 368 LINE",
"166 505 OFFCURVE",
"217 588 OFFCURVE",
"319 588 CURVE SMOOTH",
"421 588 OFFCURVE",
"472 505 OFFCURVE",
"472 368 CURVE SMOOTH",
"472 318 LINE SMOOTH",
"472 181 OFFCURVE",
"421 98 OFFCURVE",
"319 98 CURVE SMOOTH"
);
},
{
closed = 1;
nodes = (
"218 761 LINE",
"222 788 OFFCURVE",
"235 798 OFFCURVE",
"257 798 CURVE SMOOTH",
"302 798 OFFCURVE",
"341 761 OFFCURVE",
"389 761 CURVE SMOOTH",
"459 761 OFFCURVE",
"488 828 OFFCURVE",
"488 883 CURVE",
"421 883 LINE",
"417 855 OFFCURVE",
"404 846 OFFCURVE",
"383 846 CURVE SMOOTH",
"337 846 OFFCURVE",
"299 883 OFFCURVE",
"250 883 CURVE SMOOTH",
"180 883 OFFCURVE",
"151 816 OFFCURVE",
"151 761 CURVE"
);
}
);
};
components = (
{
name = O;
},
{
alignment = 1;
name = tildecomb.case;
transform = "{1, 0, 0, 1, 167, 160}";
}
);
layerId = "31F25340-C351-400F-9C98-C04A412D1947";
width = 638;
}
);
leftKerningGroup = O;
rightKerningGroup = O;
unicode = 00D5;
},
{
glyphname = OE;
layers = (
{
anchors = (
{
name = top;
position = "{410, 686}";
}
);
background = {
paths = (
{
closed = 1;
nodes = (
"132 698 OFFCURVE",
"49 581 OFFCURVE",
"49 343 CURVE SMOOTH",
"49 105 OFFCURVE",
"132 -12 OFFCURVE",
"273 -12 CURVE SMOOTH",
"337 -12 OFFCURVE",
"388 14 OFFCURVE",
"425 68 CURVE",
"425 0 LINE",
"790 0 LINE",
"776 84 LINE",
"513 84 LINE",
"513 309 LINE",
"743 309 LINE",
"743 393 LINE",
"513 393 LINE",
"513 602 LINE",
"770 602 LINE",
"783 686 LINE",
"425 686 LINE",
"425 618 LINE",
"388 671 OFFCURVE",
"337 698 OFFCURVE",
"273 698 CURVE SMOOTH"
);
},
{
closed = 1;
nodes = (
"371 617 OFFCURVE",
"425 535 OFFCURVE",
"425 368 CURVE SMOOTH",
"425 318 LINE SMOOTH",
"425 151 OFFCURVE",
"371 69 OFFCURVE",
"283 69 CURVE SMOOTH",
"195 69 OFFCURVE",
"141 151 OFFCURVE",
"141 318 CURVE SMOOTH",
"141 368 LINE",
"141 535 OFFCURVE",
"195 617 OFFCURVE",
"283 617 CURVE SMOOTH"
);
}
);
};
layerId = UUID0;
paths = (
{
closed = 1;
nodes = (
"337 -12 OFFCURVE",
"388 14 OFFCURVE",
"425 68 CURVE",
"425 0 LINE",
"784 0 LINE",
"784 80 LINE",
"513 80 LINE",
"513 311 LINE",
"733 311 LINE",
"733 391 LINE",
"513 391 LINE",
"513 606 LINE",
"778 606 LINE",
"778 686 LINE",
"425 686 LINE",
"425 618 LINE",
"388 671 OFFCURVE",
"337 698 OFFCURVE",
"273 698 CURVE SMOOTH",
"132 698 OFFCURVE",
"49 581 OFFCURVE",
"49 343 CURVE SMOOTH",
"49 105 OFFCURVE",
"132 -12 OFFCURVE",
"273 -12 CURVE SMOOTH"
);
},
{
closed = 1;
nodes = (
"195 69 OFFCURVE",
"141 151 OFFCURVE",
"141 318 CURVE SMOOTH",
"141 368 LINE",
"141 535 OFFCURVE",
"195 617 OFFCURVE",
"283 617 CURVE SMOOTH",
"371 617 OFFCURVE",
"425 535 OFFCURVE",
"425 368 CURVE SMOOTH",
"425 318 LINE SMOOTH",
"425 151 OFFCURVE",
"371 69 OFFCURVE",
"283 69 CURVE SMOOTH"
);
}
);
width = 820;
},
{
anchors = (
{
name = top;
position = "{408, 686}";
}
);
background = {
paths = (
{
closed = 1;
nodes = (
"117 698 OFFCURVE",
"30 585 OFFCURVE",
"30 343 CURVE SMOOTH",
"30 101 OFFCURVE",
"117 -12 OFFCURVE",
"258 -12 CURVE SMOOTH",
"319 -12 OFFCURVE",
"370 11 OFFCURVE",
"408 61 CURVE",
"408 0 LINE",
"800 0 LINE",
"783 114 LINE",
"536 114 LINE",
"536 294 LINE",
"753 294 LINE",
"753 408 LINE",
"536 408 LINE",
"536 572 LINE",
"777 572 LINE",
"793 686 LINE",
"408 686 LINE",
"408 624 LINE",
"370 674 OFFCURVE",
"319 698 OFFCURVE",
"258 698 CURVE SMOOTH"
);
},
{
closed = 1;
nodes = (
"366 588 OFFCURVE",
"407 525 OFFCURVE",
"407 368 CURVE SMOOTH",
"407 318 LINE SMOOTH",
"407 161 OFFCURVE",
"366 98 OFFCURVE",
"284 98 CURVE SMOOTH",
"203 98 OFFCURVE",
"162 161 OFFCURVE",
"162 318 CURVE SMOOTH",
"162 368 LINE",
"162 525 OFFCURVE",
"203 588 OFFCURVE",
"284 588 CURVE SMOOTH"
);
}
);
};
layerId = "31F25340-C351-400F-9C98-C04A412D1947";
paths = (
{
closed = 1;
nodes = (
"319 -12 OFFCURVE",
"370 11 OFFCURVE",
"408 61 CURVE",
"408 0 LINE",
"792 0 LINE",
"792 114 LINE",
"536 114 LINE",
"536 294 LINE",
"742 294 LINE",
"742 408 LINE",
"536 408 LINE",
"536 572 LINE",
"785 572 LINE",
"785 686 LINE",
"408 686 LINE",
"408 624 LINE",
"370 674 OFFCURVE",
"319 698 OFFCURVE",
"258 698 CURVE SMOOTH",
"117 698 OFFCURVE",
"30 585 OFFCURVE",
"30 343 CURVE SMOOTH",
"30 101 OFFCURVE",
"117 -12 OFFCURVE",
"258 -12 CURVE SMOOTH"
);
},
{
closed = 1;
nodes = (
"203 98 OFFCURVE",
"162 161 OFFCURVE",
"162 318 CURVE SMOOTH",
"162 368 LINE",
"162 525 OFFCURVE",
"203 588 OFFCURVE",
"284 588 CURVE SMOOTH",
"366 588 OFFCURVE",
"407 525 OFFCURVE",
"407 368 CURVE SMOOTH",
"407 318 LINE SMOOTH",
"407 161 OFFCURVE",
"366 98 OFFCURVE",
"284 98 CURVE SMOOTH"
);
}
);
width = 820;
}
);
leftKerningGroup = O;
rightKerningGroup = E;
unicode = 0152;
},
{
glyphname = P;
layers = (
{
background = {
paths = (
{
closed = 1;
nodes = (
"70 686 LINE",
"70 0 LINE",
"158 0 LINE",
"158 281 LINE",
"315 281 LINE",
"442 281 OFFCURVE",
"520 363 OFFCURVE",
"520 484 CURVE SMOOTH",
"520 603 OFFCURVE",
"450 686 OFFCURVE",
"315 686 CURVE SMOOTH"
);
},
{
closed = 1;
nodes = (
"312 602 LINE",
"387 602 OFFCURVE",
"428 556 OFFCURVE",
"428 484 CURVE SMOOTH",
"428 410 OFFCURVE",
"382 365 OFFCURVE",
"312 365 CURVE SMOOTH",
"158 365 LINE",
"158 602 LINE"
);
}
);
};
layerId = UUID0;
paths = (
{
closed = 1;
nodes = (
"158 0 LINE",
"158 283 LINE",
"315 283 LINE",
"442 283 OFFCURVE",
"520 365 OFFCURVE",
"520 486 CURVE SMOOTH",
"520 605 OFFCURVE",
"450 686 OFFCURVE",
"315 686 CURVE SMOOTH",
"70 686 LINE",
"70 0 LINE"
);
},
{
closed = 1;
nodes = (
"158 606 LINE",
"312 606 LINE",
"387 606 OFFCURVE",
"428 560 OFFCURVE",
"428 486 CURVE SMOOTH",
"428 412 OFFCURVE",
"382 363 OFFCURVE",
"312 363 CURVE SMOOTH",
"158 363 LINE"
);
}
);
width = 547;
},
{
background = {
paths = (
{
closed = 1;
nodes = (
"50 686 LINE",
"50 0 LINE",
"178 0 LINE",
"178 266 LINE",
"305 266 LINE",
"434 266 OFFCURVE",
"520 351 OFFCURVE",
"520 480 CURVE SMOOTH",
"520 599 OFFCURVE",
"447 686 OFFCURVE",
"305 686 CURVE SMOOTH"
);
},
{
closed = 1;
nodes = (
"292 572 LINE",
"353 572 OFFCURVE",
"388 536 OFFCURVE",
"388 480 CURVE SMOOTH",
"388 417 OFFCURVE",
"354 379 OFFCURVE",
"292 379 CURVE SMOOTH",
"178 379 LINE",
"178 572 LINE"
);
}
);
};
layerId = "31F25340-C351-400F-9C98-C04A412D1947";
paths = (
{
closed = 1;
nodes = (
"188 0 LINE",
"188 266 LINE",
"305 266 LINE",
"434 266 OFFCURVE",
"520 351 OFFCURVE",
"520 480 CURVE SMOOTH",
"520 599 OFFCURVE",
"447 686 OFFCURVE",
"305 686 CURVE SMOOTH",
"60 686 LINE",
"60 0 LINE"
);
},
{
closed = 1;
nodes = (
"188 572 LINE",
"292 572 LINE",
"353 572 OFFCURVE",
"388 536 OFFCURVE",
"388 480 CURVE SMOOTH",
"388 417 OFFCURVE",
"354 379 OFFCURVE",
"292 379 CURVE SMOOTH",
"188 379 LINE"
);
}
);
width = 547;
}
);
leftKerningGroup = P;
rightKerningGroup = P;
unicode = 0050;
},
{
glyphname = Thorn;
layers = (
{
background = {
paths = (
{
closed = 1;
nodes = (
"158 686 LINE",
"70 686 LINE",
"70 0 LINE",
"158 0 LINE",
"158 146 LINE",
"315 146 LINE",
"442 146 OFFCURVE",
"520 228 OFFCURVE",
"520 349 CURVE SMOOTH",
"520 468 OFFCURVE",
"450 551 OFFCURVE",
"315 551 CURVE SMOOTH",
"158 551 LINE"
);
},
{
closed = 1;
nodes = (
"312 467 LINE",
"387 467 OFFCURVE",
"428 421 OFFCURVE",
"428 349 CURVE SMOOTH",
"428 275 OFFCURVE",
"382 230 OFFCURVE",
"312 230 CURVE SMOOTH",
"158 230 LINE",
"158 467 LINE"
);
}
);
};
layerId = UUID0;
paths = (
{
closed = 1;
nodes = (
"158 0 LINE",
"158 147 LINE",
"315 147 LINE SMOOTH",
"442 147 OFFCURVE",
"520 229 OFFCURVE",
"520 350 CURVE SMOOTH",
"520 469 OFFCURVE",
"450 550 OFFCURVE",
"315 550 CURVE SMOOTH",
"158 550 LINE",
"158 686 LINE",
"70 686 LINE",
"70 0 LINE"
);
},
{
closed = 1;
nodes = (
"158 470 LINE",
"312 470 LINE",
"387 470 OFFCURVE",
"428 424 OFFCURVE",
"428 350 CURVE SMOOTH",
"428 276 OFFCURVE",
"382 227 OFFCURVE",
"312 227 CURVE SMOOTH",
"158 227 LINE"
);
}
);
width = 547;
},
{
background = {
paths = (
{
closed = 1;
nodes = (
"178 686 LINE",
"50 686 LINE",
"50 0 LINE",
"178 0 LINE",
"178 146 LINE",
"305 146 LINE SMOOTH",
"434 146 OFFCURVE",
"520 231 OFFCURVE",
"520 360 CURVE SMOOTH",
"520 479 OFFCURVE",
"447 566 OFFCURVE",
"305 566 CURVE SMOOTH",
"178 566 LINE"
);
},
{
closed = 1;
nodes = (
"292 452 LINE",
"353 452 OFFCURVE",
"388 416 OFFCURVE",
"388 360 CURVE SMOOTH",
"388 297 OFFCURVE",
"354 259 OFFCURVE",
"292 259 CURVE SMOOTH",
"178 259 LINE",
"178 452 LINE"
);
}
);
};
layerId = "31F25340-C351-400F-9C98-C04A412D1947";
paths = (
{
closed = 1;
nodes = (
"188 0 LINE",
"188 144 LINE",
"305 144 LINE",
"434 144 OFFCURVE",
"520 229 OFFCURVE",
"520 358 CURVE SMOOTH",
"520 477 OFFCURVE",
"447 564 OFFCURVE",
"305 564 CURVE SMOOTH",
"188 564 LINE",
"188 686 LINE",
"60 686 LINE",
"60 0 LINE"
);
},
{
closed = 1;
nodes = (
"188 450 LINE",
"292 450 LINE",
"353 450 OFFCURVE",
"388 414 OFFCURVE",
"388 358 CURVE SMOOTH",
"388 295 OFFCURVE",
"354 257 OFFCURVE",
"292 257 CURVE SMOOTH",
"188 257 LINE"
);
}
);
width = 547;
}
);
leftKerningGroup = I;
rightKerningGroup = P;
unicode = 00DE;
},
{
glyphname = Q;
layers = (
{
background = {
paths = (
{
closed = 1;
nodes = (
"151 698 OFFCURVE",
"49 581 OFFCURVE",
"49 343 CURVE SMOOTH",
"49 127 OFFCURVE",
"132 11 OFFCURVE",
"273 -9 CURVE",
"273 -70 OFFCURVE",
"312 -145 OFFCURVE",
"443 -145 CURVE SMOOTH",
"519 -145 OFFCURVE",
"578 -116 OFFCURVE",
"578 -116 CURVE",
"578 -70 LINE",
"452 -70 LINE SMOOTH",
"394 -70 OFFCURVE",
"371 -42 OFFCURVE",
"370 -8 CURVE",
"507 14 OFFCURVE",
"589 130 OFFCURVE",
"589 343 CURVE SMOOTH",
"589 581 OFFCURVE",
"487 698 OFFCURVE",
"319 698 CURVE SMOOTH"
);
},
{
closed = 1;
nodes = (
"429 617 OFFCURVE",
"497 535 OFFCURVE",
"497 368 CURVE SMOOTH",
"497 318 LINE SMOOTH",
"497 151 OFFCURVE",
"429 69 OFFCURVE",
"319 69 CURVE SMOOTH",
"209 69 OFFCURVE",
"141 151 OFFCURVE",
"141 318 CURVE SMOOTH",
"141 368 LINE",
"141 535 OFFCURVE",
"209 617 OFFCURVE",
"319 617 CURVE SMOOTH"
);
}
);
};
layerId = UUID0;
paths = (
{
closed = 1;
nodes = (
"568 -124 LINE",
"426 7 LINE",
"529 49 OFFCURVE",
"589 161 OFFCURVE",
"589 343 CURVE SMOOTH",
"589 581 OFFCURVE",
"487 698 OFFCURVE",
"319 698 CURVE SMOOTH",
"151 698 OFFCURVE",
"49 581 OFFCURVE",
"49 343 CURVE SMOOTH",
"49 105 OFFCURVE",
"151 -12 OFFCURVE",
"319 -12 CURVE SMOOTH",
"331 -12 LINE",
"450 -124 LINE"
);
},
{
closed = 1;
nodes = (
"209 69 OFFCURVE",
"141 151 OFFCURVE",
"141 318 CURVE SMOOTH",
"141 368 LINE SMOOTH",
"141 535 OFFCURVE",
"209 617 OFFCURVE",
"319 617 CURVE SMOOTH",
"429 617 OFFCURVE",
"497 535 OFFCURVE",
"497 368 CURVE SMOOTH",
"497 318 LINE SMOOTH",
"497 151 OFFCURVE",
"429 69 OFFCURVE",
"319 69 CURVE SMOOTH"
);
}
);
width = 638;
},
{
background = {
paths = (
{
closed = 1;
nodes = (
"142 698 OFFCURVE",
"34 585 OFFCURVE",
"34 343 CURVE SMOOTH",
"34 130 OFFCURVE",
"117 17 OFFCURVE",
"258 -7 CURVE",
"261 -91 OFFCURVE",
"308 -159 OFFCURVE",
"438 -159 CURVE SMOOTH",
"523 -159 OFFCURVE",
"588 -127 OFFCURVE",
"588 -127 CURVE",
"588 -60 LINE",
"469 -60 LINE SMOOTH",
"414 -60 OFFCURVE",
"390 -41 OFFCURVE",
"387 -5 CURVE",
"523 21 OFFCURVE",
"604 134 OFFCURVE",
"604 343 CURVE SMOOTH",
"604 585 OFFCURVE",
"496 698 OFFCURVE",
"319 698 CURVE SMOOTH"
);
},
{
closed = 1;
nodes = (
"421 588 OFFCURVE",
"472 505 OFFCURVE",
"472 368 CURVE SMOOTH",
"472 318 LINE SMOOTH",
"472 181 OFFCURVE",
"421 98 OFFCURVE",
"319 98 CURVE SMOOTH",
"217 98 OFFCURVE",
"166 181 OFFCURVE",
"166 318 CURVE SMOOTH",
"166 368 LINE SMOOTH",
"166 505 OFFCURVE",
"217 588 OFFCURVE",
"319 588 CURVE SMOOTH"
);
}
);
};
layerId = "31F25340-C351-400F-9C98-C04A412D1947";
paths = (
{
closed = 1;
nodes = (
"587 -124 LINE",
"455 17 LINE",
"549 65 OFFCURVE",
"604 171 OFFCURVE",
"604 343 CURVE SMOOTH",
"604 585 OFFCURVE",
"496 698 OFFCURVE",
"319 698 CURVE SMOOTH",
"142 698 OFFCURVE",
"34 585 OFFCURVE",
"34 343 CURVE SMOOTH",
"34 101 OFFCURVE",
"142 -12 OFFCURVE",
"319 -12 CURVE SMOOTH",
"331 -12 LINE",
"430 -124 LINE"
);
},
{
closed = 1;
nodes = (
"217 98 OFFCURVE",
"166 181 OFFCURVE",
"166 318 CURVE SMOOTH",
"166 368 LINE SMOOTH",
"166 505 OFFCURVE",
"217 588 OFFCURVE",
"319 588 CURVE SMOOTH",
"421 588 OFFCURVE",
"472 505 OFFCURVE",
"472 368 CURVE SMOOTH",
"472 318 LINE SMOOTH",
"472 181 OFFCURVE",
"421 98 OFFCURVE",
"319 98 CURVE SMOOTH"
);
}
);
width = 638;
}
);
leftKerningGroup = Q;
rightKerningGroup = O;
unicode = 0051;
},
{
glyphname = R;
layers = (
{
anchors = (
{
name = bottom;
position = "{296, 0}";
},
{
name = top;
position = "{289, 686}";
}
);
background = {
paths = (
{
closed = 1;
nodes = (
"65 686 LINE",
"65 0 LINE",
"153 0 LINE",
"153 302 LINE",
"324 302 LINE SMOOTH",
"370 302 OFFCURVE",
"435 264 OFFCURVE",
"435 124 CURVE SMOOTH",
"435 24 OFFCURVE",
"478 -5 OFFCURVE",
"524 -5 CURVE SMOOTH",
"544 -5 OFFCURVE",
"564 -1 OFFCURVE",
"573 3 CURVE",
"573 31 LINE",
"543 43 OFFCURVE",
"525 68 OFFCURVE",
"525 164 CURVE SMOOTH",
"525 296 OFFCURVE",
"448 338 OFFCURVE",
"424 348 CURVE",
"424 352 LINE",
"484 373 OFFCURVE",
"531 430 OFFCURVE",
"531 514 CURVE SMOOTH",
"531 615 OFFCURVE",
"456 686 OFFCURVE",
"354 686 CURVE SMOOTH"
);
},
{
closed = 1;
nodes = (
"334 602 LINE",
"397 602 OFFCURVE",
"439 564 OFFCURVE",
"439 495 CURVE SMOOTH",
"439 433 OFFCURVE",
"395 386 OFFCURVE",
"328 386 CURVE SMOOTH",
"153 386 LINE",
"153 602 LINE"
);
}
);
};
layerId = UUID0;
paths = (
{
closed = 1;
nodes = (
"158 0 LINE",
"158 303 LINE",
"342 303 LINE",
"469 0 LINE",
"567 0 LINE",
"429 319 LINE",
"506 345 OFFCURVE",
"551 411 OFFCURVE",
"551 496 CURVE SMOOTH",
"551 609 OFFCURVE",
"481 686 OFFCURVE",
"346 686 CURVE SMOOTH",
"70 686 LINE",
"70 0 LINE"
);
},
{
closed = 1;
nodes = (
"158 606 LINE",
"343 606 LINE SMOOTH",
"418 606 OFFCURVE",
"459 564 OFFCURVE",
"459 496 CURVE SMOOTH",
"459 428 OFFCURVE",
"413 383 OFFCURVE",
"343 383 CURVE SMOOTH",
"158 383 LINE"
);
}
);
width = 592;
},
{
anchors = (
{
name = bottom;
position = "{296, 0}";
},
{
name = top;
position = "{281, 686}";
}
);
background = {
paths = (
{
closed = 1;
nodes = (
"50 686 LINE",
"50 0 LINE",
"178 0 LINE",
"178 287 LINE",
"306 287 LINE SMOOTH",
"356 287 OFFCURVE",
"406 253 OFFCURVE",
"406 124 CURVE SMOOTH",
"406 20 OFFCURVE",
"463 -5 OFFCURVE",
"519 -5 CURVE SMOOTH",
"539 -5 OFFCURVE",
"575 1 OFFCURVE",
"584 7 CURVE",
"584 41 LINE",
"554 52 OFFCURVE",
"536 78 OFFCURVE",
"536 164 CURVE SMOOTH",
"536 296 OFFCURVE",
"469 336 OFFCURVE",
"435 348 CURVE",
"435 352 LINE",
"495 373 OFFCURVE",
"542 425 OFFCURVE",
"542 514 CURVE SMOOTH",
"542 615 OFFCURVE",
"461 686 OFFCURVE",
"351 686 CURVE SMOOTH"
);
},
{
closed = 1;
nodes = (
"321 572 LINE",
"374 572 OFFCURVE",
"410 542 OFFCURVE",
"410 489 CURVE SMOOTH",
"410 439 OFFCURVE",
"372 400 OFFCURVE",
"315 400 CURVE SMOOTH",
"178 400 LINE",
"178 572 LINE"
);
}
);
};
layerId = "31F25340-C351-400F-9C98-C04A412D1947";
paths = (
{
closed = 1;
nodes = (
"188 0 LINE",
"188 286 LINE",
"321 286 LINE",
"435 0 LINE",
"574 0 LINE",
"442 314 LINE",
"513 343 OFFCURVE",
"557 407 OFFCURVE",
"557 490 CURVE SMOOTH",
"557 603 OFFCURVE",
"486 686 OFFCURVE",
"347 686 CURVE SMOOTH",
"60 686 LINE",
"60 0 LINE"
);
},
{
closed = 1;
nodes = (
"188 572 LINE",
"334 572 LINE SMOOTH",
"393 572 OFFCURVE",
"419 540 OFFCURVE",
"419 490 CURVE SMOOTH",
"419 433 OFFCURVE",
"391 399 OFFCURVE",
"329 399 CURVE SMOOTH",
"188 399 LINE"
);
}
);
width = 592;
}
);
leftKerningGroup = R;
rightKerningGroup = R;
unicode = 0052;
},
{
glyphname = Racute;
layers = (
{
background = {
paths = (
{
closed = 1;
nodes = (
"65 686 LINE",
"65 0 LINE",
"153 0 LINE",
"153 302 LINE",
"324 302 LINE SMOOTH",
"370 302 OFFCURVE",
"435 264 OFFCURVE",
"435 124 CURVE SMOOTH",
"435 24 OFFCURVE",
"478 -5 OFFCURVE",
"524 -5 CURVE SMOOTH",
"544 -5 OFFCURVE",
"564 -1 OFFCURVE",
"573 3 CURVE",
"573 31 LINE",
"543 43 OFFCURVE",
"525 68 OFFCURVE",
"525 164 CURVE SMOOTH",
"525 296 OFFCURVE",
"448 338 OFFCURVE",
"424 348 CURVE",
"424 352 LINE",
"484 373 OFFCURVE",
"531 430 OFFCURVE",
"531 514 CURVE SMOOTH",
"531 615 OFFCURVE",
"456 686 OFFCURVE",
"354 686 CURVE SMOOTH"
);
},
{
closed = 1;
nodes = (
"153 602 LINE",
"334 602 LINE SMOOTH",
"397 602 OFFCURVE",
"439 564 OFFCURVE",
"439 495 CURVE SMOOTH",
"439 433 OFFCURVE",
"395 386 OFFCURVE",
"328 386 CURVE SMOOTH",
"153 386 LINE"
);
}
);
};
components = (
{
name = R;
},
{
name = acutecomb.case;
transform = "{1, 0, 0, 1, 221, 160}";
}
);
layerId = UUID0;
width = 592;
},
{
background = {
paths = (
{
closed = 1;
nodes = (
"50 686 LINE",
"50 0 LINE",
"178 0 LINE",
"178 287 LINE",
"306 287 LINE SMOOTH",
"356 287 OFFCURVE",
"406 253 OFFCURVE",
"406 124 CURVE SMOOTH",
"406 20 OFFCURVE",
"463 -5 OFFCURVE",
"519 -5 CURVE SMOOTH",
"539 -5 OFFCURVE",
"575 1 OFFCURVE",
"584 7 CURVE",
"584 41 LINE",
"554 52 OFFCURVE",
"536 78 OFFCURVE",
"536 164 CURVE SMOOTH",
"536 296 OFFCURVE",
"469 336 OFFCURVE",
"435 348 CURVE",
"435 352 LINE",
"495 373 OFFCURVE",
"542 425 OFFCURVE",
"542 514 CURVE SMOOTH",
"542 615 OFFCURVE",
"461 686 OFFCURVE",
"351 686 CURVE SMOOTH"
);
},
{
closed = 1;
nodes = (
"321 572 LINE SMOOTH",
"374 572 OFFCURVE",
"410 542 OFFCURVE",
"410 489 CURVE SMOOTH",
"410 439 OFFCURVE",
"372 400 OFFCURVE",
"315 400 CURVE SMOOTH",
"178 400 LINE",
"178 572 LINE"
);
}
);
};
components = (
{
name = R;
},
{
name = acutecomb.case;
transform = "{1, 0, 0, 1, 207, 160}";
}
);
layerId = "31F25340-C351-400F-9C98-C04A412D1947";
width = 592;
}
);
leftKerningGroup = R;
rightKerningGroup = R;
unicode = 0154;
},
{
glyphname = Rcaron;
layers = (
{
background = {
paths = (
{
closed = 1;
nodes = (
"65 686 LINE",
"65 0 LINE",
"153 0 LINE",
"153 302 LINE",
"324 302 LINE SMOOTH",
"370 302 OFFCURVE",
"435 264 OFFCURVE",
"435 124 CURVE SMOOTH",
"435 24 OFFCURVE",
"478 -5 OFFCURVE",
"524 -5 CURVE SMOOTH",
"544 -5 OFFCURVE",
"564 -1 OFFCURVE",
"573 3 CURVE",
"573 31 LINE",
"543 43 OFFCURVE",
"525 68 OFFCURVE",
"525 164 CURVE SMOOTH",
"525 296 OFFCURVE",
"448 338 OFFCURVE",
"424 348 CURVE",
"424 352 LINE",
"484 373 OFFCURVE",
"531 430 OFFCURVE",
"531 514 CURVE SMOOTH",
"531 615 OFFCURVE",
"456 686 OFFCURVE",
"354 686 CURVE SMOOTH"
);
},
{
closed = 1;
nodes = (
"334 602 LINE SMOOTH",
"397 602 OFFCURVE",
"439 564 OFFCURVE",
"439 495 CURVE SMOOTH",
"439 433 OFFCURVE",
"395 386 OFFCURVE",
"328 386 CURVE SMOOTH",
"153 386 LINE",
"153 602 LINE"
);
}
);
};
components = (
{
name = R;
},
{
name = caroncomb.case;
transform = "{1, 0, 0, 1, 164, 160}";
}
);
layerId = UUID0;
width = 592;
},
{
background = {
paths = (
{
closed = 1;
nodes = (
"50 686 LINE",
"50 0 LINE",
"178 0 LINE",
"178 287 LINE",
"306 287 LINE SMOOTH",
"356 287 OFFCURVE",
"406 253 OFFCURVE",
"406 124 CURVE SMOOTH",
"406 20 OFFCURVE",
"463 -5 OFFCURVE",
"519 -5 CURVE SMOOTH",
"539 -5 OFFCURVE",
"575 1 OFFCURVE",
"584 7 CURVE",
"584 41 LINE",
"554 52 OFFCURVE",
"536 78 OFFCURVE",
"536 164 CURVE SMOOTH",
"536 296 OFFCURVE",
"469 336 OFFCURVE",
"435 348 CURVE",
"435 352 LINE",
"495 373 OFFCURVE",
"542 425 OFFCURVE",
"542 514 CURVE SMOOTH",
"542 615 OFFCURVE",
"461 686 OFFCURVE",
"351 686 CURVE SMOOTH"
);
},
{
closed = 1;
nodes = (
"321 572 LINE SMOOTH",
"374 572 OFFCURVE",
"410 542 OFFCURVE",
"410 489 CURVE SMOOTH",
"410 439 OFFCURVE",
"372 400 OFFCURVE",
"315 400 CURVE SMOOTH",
"178 400 LINE",
"178 572 LINE"
);
}
);
};
components = (
{
name = R;
},
{
name = caroncomb.case;
transform = "{1, 0, 0, 1, 146, 160}";
}
);
layerId = "31F25340-C351-400F-9C98-C04A412D1947";
width = 592;
}
);
leftKerningGroup = R;
rightKerningGroup = R;
unicode = 0158;
},
{
glyphname = Rcommaaccent;
layers = (
{
background = {
paths = (
{
closed = 1;
nodes = (
"158 0 LINE",
"158 303 LINE",
"342 303 LINE",
"469 0 LINE",
"567 0 LINE",
"429 319 LINE",
"506 345 OFFCURVE",
"551 411 OFFCURVE",
"551 496 CURVE SMOOTH",
"551 609 OFFCURVE",
"481 686 OFFCURVE",
"346 686 CURVE SMOOTH",
"70 686 LINE",
"70 0 LINE"
);
},
{
closed = 1;
nodes = (
"310 -222 LINE",
"339 -144 LINE",
"339 -60 LINE",
"253 -60 LINE",
"253 -151 LINE",
"288 -151 LINE",
"265 -222 LINE"
);
},
{
closed = 1;
nodes = (
"158 606 LINE",
"343 606 LINE SMOOTH",
"418 606 OFFCURVE",
"459 564 OFFCURVE",
"459 496 CURVE SMOOTH",
"459 428 OFFCURVE",
"413 383 OFFCURVE",
"343 383 CURVE SMOOTH",
"158 383 LINE"
);
}
);
};
components = (
{
name = R;
},
{
name = commaaccentcomb.case;
transform = "{1, 0, 0, 1, 252, 0}";
}
);
layerId = UUID0;
width = 592;
},
{
background = {
paths = (
{
closed = 1;
nodes = (
"50 686 LINE",
"50 0 LINE",
"178 0 LINE",
"178 287 LINE",
"306 287 LINE SMOOTH",
"356 287 OFFCURVE",
"406 253 OFFCURVE",
"406 124 CURVE SMOOTH",
"406 20 OFFCURVE",
"463 -5 OFFCURVE",
"519 -5 CURVE SMOOTH",
"539 -5 OFFCURVE",
"575 1 OFFCURVE",
"584 7 CURVE",
"584 41 LINE",
"554 52 OFFCURVE",
"536 78 OFFCURVE",
"536 164 CURVE SMOOTH",
"536 296 OFFCURVE",
"469 336 OFFCURVE",
"435 348 CURVE",
"435 352 LINE",
"495 373 OFFCURVE",
"542 425 OFFCURVE",
"542 514 CURVE SMOOTH",
"542 615 OFFCURVE",
"461 686 OFFCURVE",
"351 686 CURVE SMOOTH"
);
},
{
closed = 1;
nodes = (
"321 572 LINE SMOOTH",
"374 572 OFFCURVE",
"410 542 OFFCURVE",
"410 489 CURVE SMOOTH",
"410 439 OFFCURVE",
"372 400 OFFCURVE",
"315 400 CURVE SMOOTH",
"178 400 LINE",
"178 572 LINE"
);
},
{
closed = 1;
nodes = (
"312 -263 LINE",
"358 -167 LINE",
"358 -55 LINE",
"234 -55 LINE",
"234 -178 LINE",
"283 -178 LINE",
"248 -263 LINE"
);
}
);
};
components = (
{
name = R;
},
{
name = commaaccentcomb.case;
transform = "{1, 0, 0, 1, 234, 0}";
}
);
layerId = "31F25340-C351-400F-9C98-C04A412D1947";
width = 592;
}
);
leftKerningGroup = R;
rightKerningGroup = R;
unicode = 0156;
},
{
glyphname = S;
layers = (
{
anchors = (
{
name = bottom;
position = "{273, 0}";
},
{
name = top;
position = "{273, 686}";
}
);
layerId = UUID0;
paths = (
{
closed = 1;
nodes = (
"405 -12 OFFCURVE",
"504 44 OFFCURVE",
"504 198 CURVE SMOOTH",
"504 439 OFFCURVE",
"148 357 OFFCURVE",
"148 521 CURVE SMOOTH",
"148 587 OFFCURVE",
"203 617 OFFCURVE",
"275 617 CURVE SMOOTH",
"344 617 OFFCURVE",
"397 578 OFFCURVE",
"397 508 CURVE SMOOTH",
"397 493 LINE",
"488 493 LINE",
"488 505 LINE SMOOTH",
"488 642 OFFCURVE",
"392 698 OFFCURVE",
"273 698 CURVE SMOOTH",
"153 698 OFFCURVE",
"55 640 OFFCURVE",
"55 514 CURVE SMOOTH",
"55 266 OFFCURVE",
"412 356 OFFCURVE",
"412 183 CURVE SMOOTH",
"412 109 OFFCURVE",
"360 69 OFFCURVE",
"268 69 CURVE SMOOTH",
"190 69 OFFCURVE",
"132 109 OFFCURVE",
"132 193 CURVE SMOOTH",
"132 199 OFFCURVE",
"133 213 OFFCURVE",
"133 214 CURVE",
"42 214 LINE",
"42 211 OFFCURVE",
"41 201 OFFCURVE",
"41 194 CURVE SMOOTH",
"41 43 OFFCURVE",
"147 -12 OFFCURVE",
"272 -12 CURVE SMOOTH"
);
}
);
width = 547;
},
{
anchors = (
{
name = bottom;
position = "{273, 0}";
},
{
name = top;
position = "{273, 686}";
}
);
layerId = "31F25340-C351-400F-9C98-C04A412D1947";
paths = (
{
closed = 1;
nodes = (
"409 -12 OFFCURVE",
"509 49 OFFCURVE",
"509 206 CURVE SMOOTH",
"509 458 OFFCURVE",
"176 376 OFFCURVE",
"176 515 CURVE SMOOTH",
"176 557 OFFCURVE",
"210 588 OFFCURVE",
"272 588 CURVE SMOOTH",
"330 588 OFFCURVE",
"365 551 OFFCURVE",
"365 493 CURVE SMOOTH",
"365 484 LINE",
"496 484 LINE",
"496 496 LINE SMOOTH",
"496 637 OFFCURVE",
"395 698 OFFCURVE",
"273 698 CURVE SMOOTH",
"152 698 OFFCURVE",
"44 636 OFFCURVE",
"44 506 CURVE SMOOTH",
"44 245 OFFCURVE",
"377 342 OFFCURVE",
"377 179 CURVE SMOOTH",
"377 139 OFFCURVE",
"350 98 OFFCURVE",
"273 98 CURVE SMOOTH",
"203 98 OFFCURVE",
"163 142 OFFCURVE",
"163 207 CURVE SMOOTH",
"163 212 OFFCURVE",
"164 221 OFFCURVE",
"164 223 CURVE",
"31 223 LINE",
"31 218 OFFCURVE",
"30 209 OFFCURVE",
"30 201 CURVE SMOOTH",
"30 60 OFFCURVE",
"141 -12 OFFCURVE",
"267 -12 CURVE SMOOTH"
);
}
);
width = 547;
}
);
leftKerningGroup = S;
rightKerningGroup = S;
unicode = 0053;
},
{
glyphname = Sacute;
layers = (
{
background = {
paths = (
{
closed = 1;
nodes = (
"405 -12 OFFCURVE",
"504 44 OFFCURVE",
"504 198 CURVE SMOOTH",
"504 439 OFFCURVE",
"148 357 OFFCURVE",
"148 521 CURVE SMOOTH",
"148 587 OFFCURVE",
"203 617 OFFCURVE",
"275 617 CURVE SMOOTH",
"344 617 OFFCURVE",
"397 578 OFFCURVE",
"397 508 CURVE SMOOTH",
"397 493 LINE",
"488 493 LINE",
"488 505 LINE SMOOTH",
"488 642 OFFCURVE",
"392 698 OFFCURVE",
"273 698 CURVE SMOOTH",
"153 698 OFFCURVE",
"55 640 OFFCURVE",
"55 514 CURVE SMOOTH",
"55 266 OFFCURVE",
"412 356 OFFCURVE",
"412 183 CURVE SMOOTH",
"412 109 OFFCURVE",
"360 69 OFFCURVE",
"268 69 CURVE SMOOTH",
"190 69 OFFCURVE",
"132 109 OFFCURVE",
"132 193 CURVE SMOOTH",
"132 199 OFFCURVE",
"133 213 OFFCURVE",
"133 214 CURVE",
"42 214 LINE",
"42 211 OFFCURVE",
"41 201 OFFCURVE",
"41 194 CURVE SMOOTH",
"41 43 OFFCURVE",
"147 -12 OFFCURVE",
"272 -12 CURVE SMOOTH"
);
},
{
closed = 1;
nodes = (
"283 751 LINE",
"391 880 LINE",
"390 883 LINE",
"300 883 LINE",
"214 751 LINE"
);
}
);
};
components = (
{
name = S;
},
{
name = acutecomb.case;
transform = "{1, 0, 0, 1, 205, 160}";
}
);
layerId = UUID0;
width = 547;
},
{
background = {
paths = (
{
closed = 1;
nodes = (
"409 -12 OFFCURVE",
"509 49 OFFCURVE",
"509 206 CURVE SMOOTH",
"509 458 OFFCURVE",
"176 376 OFFCURVE",
"176 515 CURVE SMOOTH",
"176 557 OFFCURVE",
"210 588 OFFCURVE",
"272 588 CURVE SMOOTH",
"330 588 OFFCURVE",
"365 551 OFFCURVE",
"365 493 CURVE SMOOTH",
"365 484 LINE",
"496 484 LINE",
"496 496 LINE SMOOTH",
"496 637 OFFCURVE",
"395 698 OFFCURVE",
"273 698 CURVE SMOOTH",
"152 698 OFFCURVE",
"44 636 OFFCURVE",
"44 506 CURVE SMOOTH",
"44 245 OFFCURVE",
"377 342 OFFCURVE",
"377 179 CURVE SMOOTH",
"377 139 OFFCURVE",
"350 98 OFFCURVE",
"273 98 CURVE SMOOTH",
"203 98 OFFCURVE",
"163 142 OFFCURVE",
"163 207 CURVE SMOOTH",
"163 212 OFFCURVE",
"164 221 OFFCURVE",
"164 223 CURVE",
"31 223 LINE",
"31 218 OFFCURVE",
"30 209 OFFCURVE",
"30 201 CURVE SMOOTH",
"30 60 OFFCURVE",
"141 -12 OFFCURVE",
"267 -12 CURVE SMOOTH"
);
},
{
closed = 1;
nodes = (
"304 751 LINE",
"412 880 LINE",
"411 883 LINE",
"291 883 LINE",
"205 751 LINE"
);
}
);
};
components = (
{
name = S;
},
{
name = acutecomb.case;
transform = "{1, 0, 0, 1, 199, 160}";
}
);
layerId = "31F25340-C351-400F-9C98-C04A412D1947";
width = 547;
}
);
leftKerningGroup = S;
rightKerningGroup = S;
unicode = 015A;
},
{
glyphname = Scaron;
layers = (
{
background = {
paths = (
{
closed = 1;
nodes = (
"405 -12 OFFCURVE",
"504 44 OFFCURVE",
"504 198 CURVE SMOOTH",
"504 439 OFFCURVE",
"148 357 OFFCURVE",
"148 521 CURVE SMOOTH",
"148 587 OFFCURVE",
"203 617 OFFCURVE",
"275 617 CURVE SMOOTH",
"344 617 OFFCURVE",
"397 578 OFFCURVE",
"397 508 CURVE SMOOTH",
"397 493 LINE",
"488 493 LINE",
"488 505 LINE SMOOTH",
"488 642 OFFCURVE",
"392 698 OFFCURVE",
"273 698 CURVE SMOOTH",
"153 698 OFFCURVE",
"55 640 OFFCURVE",
"55 514 CURVE SMOOTH",
"55 266 OFFCURVE",
"412 356 OFFCURVE",
"412 183 CURVE SMOOTH",
"412 109 OFFCURVE",
"360 69 OFFCURVE",
"268 69 CURVE SMOOTH",
"190 69 OFFCURVE",
"132 109 OFFCURVE",
"132 193 CURVE SMOOTH",
"132 199 OFFCURVE",
"133 213 OFFCURVE",
"133 214 CURVE",
"42 214 LINE",
"42 211 OFFCURVE",
"41 201 OFFCURVE",
"41 194 CURVE SMOOTH",
"41 43 OFFCURVE",
"147 -12 OFFCURVE",
"272 -12 CURVE SMOOTH"
);
},
{
closed = 1;
nodes = (
"312 748 LINE",
"398 883 LINE",
"318 883 LINE",
"273 804 LINE",
"229 883 LINE",
"149 883 LINE",
"234 748 LINE"
);
}
);
};
components = (
{
name = S;
},
{
name = caroncomb.case;
transform = "{1, 0, 0, 1, 148, 160}";
}
);
layerId = UUID0;
width = 547;
},
{
background = {
paths = (
{
closed = 1;
nodes = (
"409 -12 OFFCURVE",
"509 49 OFFCURVE",
"509 206 CURVE SMOOTH",
"509 458 OFFCURVE",
"176 376 OFFCURVE",
"176 515 CURVE SMOOTH",
"176 557 OFFCURVE",
"210 588 OFFCURVE",
"272 588 CURVE SMOOTH",
"330 588 OFFCURVE",
"365 551 OFFCURVE",
"365 493 CURVE SMOOTH",
"365 484 LINE",
"496 484 LINE",
"496 496 LINE SMOOTH",
"496 637 OFFCURVE",
"395 698 OFFCURVE",
"273 698 CURVE SMOOTH",
"152 698 OFFCURVE",
"44 636 OFFCURVE",
"44 506 CURVE SMOOTH",
"44 245 OFFCURVE",
"377 342 OFFCURVE",
"377 179 CURVE SMOOTH",
"377 139 OFFCURVE",
"350 98 OFFCURVE",
"273 98 CURVE SMOOTH",
"203 98 OFFCURVE",
"163 142 OFFCURVE",
"163 207 CURVE SMOOTH",
"163 212 OFFCURVE",
"164 221 OFFCURVE",
"164 223 CURVE",
"31 223 LINE",
"31 218 OFFCURVE",
"30 209 OFFCURVE",
"30 201 CURVE SMOOTH",
"30 60 OFFCURVE",
"141 -12 OFFCURVE",
"267 -12 CURVE SMOOTH"
);
},
{
closed = 1;
nodes = (
"323 748 LINE",
"408 883 LINE",
"318 883 LINE",
"274 814 LINE",
"229 883 LINE",
"139 883 LINE",
"225 748 LINE"
);
}
);
};
components = (
{
name = S;
},
{
name = caroncomb.case;
transform = "{1, 0, 0, 1, 138, 160}";
}
);
layerId = "31F25340-C351-400F-9C98-C04A412D1947";
width = 547;
}
);
leftKerningGroup = S;
rightKerningGroup = S;
unicode = 0160;
},
{
glyphname = Scedilla;
layers = (
{
background = {
paths = (
{
closed = 1;
nodes = (
"304 -182 OFFCURVE",
"368 -168 OFFCURVE",
"368 -101 CURVE SMOOTH",
"368 -55 OFFCURVE",
"330 -39 OFFCURVE",
"287 -36 CURVE",
"290 -11 LINE",
"414 -6 OFFCURVE",
"504 51 OFFCURVE",
"504 198 CURVE SMOOTH",
"504 439 OFFCURVE",
"148 357 OFFCURVE",
"148 521 CURVE SMOOTH",
"148 587 OFFCURVE",
"203 617 OFFCURVE",
"275 617 CURVE SMOOTH",
"344 617 OFFCURVE",
"397 578 OFFCURVE",
"397 508 CURVE SMOOTH",
"397 493 LINE",
"488 493 LINE",
"488 505 LINE SMOOTH",
"488 642 OFFCURVE",
"392 698 OFFCURVE",
"273 698 CURVE SMOOTH",
"153 698 OFFCURVE",
"55 640 OFFCURVE",
"55 514 CURVE SMOOTH",
"55 266 OFFCURVE",
"412 356 OFFCURVE",
"412 183 CURVE SMOOTH",
"412 109 OFFCURVE",
"360 69 OFFCURVE",
"268 69 CURVE SMOOTH",
"190 69 OFFCURVE",
"132 109 OFFCURVE",
"132 193 CURVE SMOOTH",
"132 199 OFFCURVE",
"133 213 OFFCURVE",
"133 214 CURVE",
"42 214 LINE",
"42 211 OFFCURVE",
"41 201 OFFCURVE",
"41 194 CURVE SMOOTH",
"41 58 OFFCURVE",
"126 0 OFFCURVE",
"235 -10 CURVE",
"225 -77 LINE",
"258 -77 LINE SMOOTH",
"284 -77 OFFCURVE",
"292 -85 OFFCURVE",
"292 -101 CURVE SMOOTH",
"292 -120 OFFCURVE",
"278 -125 OFFCURVE",
"256 -125 CURVE SMOOTH",
"180 -125 LINE",
"180 -174 LINE",
"204 -179 OFFCURVE",
"235 -182 OFFCURVE",
"264 -182 CURVE SMOOTH"
);
}
);
};
components = (
{
name = S;
},
{
name = cedillacomb.case;
transform = "{1, 0, 0, 1, 187, 0}";
}
);
layerId = UUID0;
width = 547;
},
{
background = {
paths = (
{
closed = 1;
nodes = (
"304 -182 OFFCURVE",
"370 -168 OFFCURVE",
"370 -101 CURVE SMOOTH",
"370 -55 OFFCURVE",
"334 -36 OFFCURVE",
"291 -33 CURVE",
"293 -11 LINE",
"421 -3 OFFCURVE",
"509 59 OFFCURVE",
"509 206 CURVE SMOOTH",
"509 458 OFFCURVE",
"176 376 OFFCURVE",
"176 515 CURVE SMOOTH",
"176 557 OFFCURVE",
"210 588 OFFCURVE",
"272 588 CURVE SMOOTH",
"330 588 OFFCURVE",
"365 551 OFFCURVE",
"365 493 CURVE SMOOTH",
"365 484 LINE",
"496 484 LINE",
"496 496 LINE SMOOTH",
"496 637 OFFCURVE",
"395 698 OFFCURVE",
"273 698 CURVE SMOOTH",
"152 698 OFFCURVE",
"44 636 OFFCURVE",
"44 506 CURVE SMOOTH",
"44 245 OFFCURVE",
"377 342 OFFCURVE",
"377 179 CURVE SMOOTH",
"377 139 OFFCURVE",
"350 98 OFFCURVE",
"273 98 CURVE SMOOTH",
"203 98 OFFCURVE",
"163 142 OFFCURVE",
"163 207 CURVE SMOOTH",
"163 212 OFFCURVE",
"164 221 OFFCURVE",
"164 223 CURVE",
"31 223 LINE",
"31 218 OFFCURVE",
"30 209 OFFCURVE",
"30 201 CURVE SMOOTH",
"30 75 OFFCURVE",
"117 4 OFFCURVE",
"225 -9 CURVE",
"217 -77 LINE",
"250 -77 LINE SMOOTH",
"276 -77 OFFCURVE",
"284 -85 OFFCURVE",
"284 -101 CURVE SMOOTH",
"284 -120 OFFCURVE",
"270 -125 OFFCURVE",
"248 -125 CURVE SMOOTH",
"177 -125 LINE",
"177 -174 LINE",
"201 -179 OFFCURVE",
"233 -182 OFFCURVE",
"261 -182 CURVE SMOOTH"
);
}
);
};
components = (
{
name = S;
},
{
name = cedillacomb.case;
transform = "{1, 0, 0, 1, 186, 0}";
}
);
layerId = "31F25340-C351-400F-9C98-C04A412D1947";
width = 547;
}
);
leftKerningGroup = S;
rightKerningGroup = S;
unicode = 015E;
},
{
glyphname = Scircumflex;
layers = (
{
background = {
paths = (
{
closed = 1;
nodes = (
"405 -12 OFFCURVE",
"504 44 OFFCURVE",
"504 198 CURVE SMOOTH",
"504 439 OFFCURVE",
"148 357 OFFCURVE",
"148 521 CURVE SMOOTH",
"148 587 OFFCURVE",
"203 617 OFFCURVE",
"275 617 CURVE SMOOTH",
"344 617 OFFCURVE",
"397 578 OFFCURVE",
"397 508 CURVE SMOOTH",
"397 493 LINE",
"488 493 LINE",
"488 505 LINE SMOOTH",
"488 642 OFFCURVE",
"392 698 OFFCURVE",
"273 698 CURVE SMOOTH",
"153 698 OFFCURVE",
"55 640 OFFCURVE",
"55 514 CURVE SMOOTH",
"55 266 OFFCURVE",
"412 356 OFFCURVE",
"412 183 CURVE SMOOTH",
"412 109 OFFCURVE",
"360 69 OFFCURVE",
"268 69 CURVE SMOOTH",
"190 69 OFFCURVE",
"132 109 OFFCURVE",
"132 193 CURVE SMOOTH",
"132 199 OFFCURVE",
"133 213 OFFCURVE",
"133 214 CURVE",
"42 214 LINE",
"42 211 OFFCURVE",
"41 201 OFFCURVE",
"41 194 CURVE SMOOTH",
"41 43 OFFCURVE",
"147 -12 OFFCURVE",
"272 -12 CURVE SMOOTH"
);
},
{
closed = 1;
nodes = (
"229 747 LINE",
"274 826 LINE",
"318 747 LINE",
"398 747 LINE",
"313 882 LINE",
"235 882 LINE",
"149 747 LINE"
);
}
);
};
components = (
{
name = S;
},
{
name = circumflexcomb.case;
transform = "{1, 0, 0, 1, 148, 160}";
}
);
layerId = UUID0;
width = 547;
},
{
background = {
paths = (
{
closed = 1;
nodes = (
"409 -12 OFFCURVE",
"509 49 OFFCURVE",
"509 206 CURVE SMOOTH",
"509 458 OFFCURVE",
"176 376 OFFCURVE",
"176 515 CURVE SMOOTH",
"176 557 OFFCURVE",
"210 588 OFFCURVE",
"272 588 CURVE SMOOTH",
"330 588 OFFCURVE",
"365 551 OFFCURVE",
"365 493 CURVE SMOOTH",
"365 484 LINE",
"496 484 LINE",
"496 496 LINE SMOOTH",
"496 637 OFFCURVE",
"395 698 OFFCURVE",
"273 698 CURVE SMOOTH",
"152 698 OFFCURVE",
"44 636 OFFCURVE",
"44 506 CURVE SMOOTH",
"44 245 OFFCURVE",
"377 342 OFFCURVE",
"377 179 CURVE SMOOTH",
"377 139 OFFCURVE",
"350 98 OFFCURVE",
"273 98 CURVE SMOOTH",
"203 98 OFFCURVE",
"163 142 OFFCURVE",
"163 207 CURVE SMOOTH",
"163 212 OFFCURVE",
"164 221 OFFCURVE",
"164 223 CURVE",
"31 223 LINE",
"31 218 OFFCURVE",
"30 209 OFFCURVE",
"30 201 CURVE SMOOTH",
"30 60 OFFCURVE",
"141 -12 OFFCURVE",
"267 -12 CURVE SMOOTH"
);
},
{
closed = 1;
nodes = (
"229 748 LINE",
"274 817 LINE",
"318 748 LINE",
"408 748 LINE",
"323 883 LINE",
"225 883 LINE",
"139 748 LINE"
);
}
);
};
components = (
{
name = S;
},
{
name = circumflexcomb.case;
transform = "{1, 0, 0, 1, 138, 160}";
}
);
layerId = "31F25340-C351-400F-9C98-C04A412D1947";
width = 547;
}
);
leftKerningGroup = S;
rightKerningGroup = S;
unicode = 015C;
},
{
glyphname = Germandbls;
layers = (
{
background = {
paths = (
{
closed = 1;
nodes = (
"158 0 LINE",
"158 481 LINE SMOOTH",
"158 568 OFFCURVE",
"206 616 OFFCURVE",
"293 616 CURVE SMOOTH",
"443 616 LINE",
"308 324 LINE",
"428 324 OFFCURVE",
"505 284 OFFCURVE",
"505 183 CURVE SMOOTH",
"505 103 OFFCURVE",
"457 61 OFFCURVE",
"380 61 CURVE SMOOTH",
"346 61 OFFCURVE",
"308 69 OFFCURVE",
"277 81 CURVE",
"248 18 LINE",
"282 -1 OFFCURVE",
"335 -12 OFFCURVE",
"384 -12 CURVE SMOOTH",
"510 -12 OFFCURVE",
"589 62 OFFCURVE",
"589 184 CURVE SMOOTH",
"589 289 OFFCURVE",
"531 354 OFFCURVE",
"416 377 CURVE",
"558 686 LINE",
"293 686 LINE SMOOTH",
"149 686 OFFCURVE",
"70 613 OFFCURVE",
"70 481 CURVE SMOOTH",
"70 0 LINE"
);
}
);
};
layerId = UUID0;
paths = (
{
closed = 1;
nodes = (
"150 0 LINE",
"150 424 LINE SMOOTH",
"150 562 OFFCURVE",
"196 622 OFFCURVE",
"317 622 CURVE SMOOTH",
"426 622 OFFCURVE",
"464 571 OFFCURVE",
"464 494 CURVE SMOOTH",
"464 423 OFFCURVE",
"419 376 OFFCURVE",
"356 376 CURVE SMOOTH",
"240 376 LINE",
"240 303 LINE",
"359 303 LINE SMOOTH",
"447 303 OFFCURVE",
"498 257 OFFCURVE",
"498 192 CURVE SMOOTH",
"498 115 OFFCURVE",
"456 73 OFFCURVE",
"379 73 CURVE SMOOTH",
"240 73 LINE",
"240 0 LINE",
"392 0 LINE SMOOTH",
"508 0 OFFCURVE",
"585 75 OFFCURVE",
"585 187 CURVE SMOOTH",
"585 271 OFFCURVE",
"537 327 OFFCURVE",
"460 347 CURVE",
"460 351 LINE",
"510 371 OFFCURVE",
"551 431 OFFCURVE",
"551 503 CURVE SMOOTH",
"551 621 OFFCURVE",
"464 698 OFFCURVE",
"318 698 CURVE SMOOTH",
"150 698 OFFCURVE",
"65 606 OFFCURVE",
"65 424 CURVE SMOOTH",
"65 0 LINE"
);
}
);
width = 611;
},
{
background = {
paths = (
{
closed = 1;
nodes = (
"188 0 LINE",
"188 475 LINE SMOOTH",
"188 537 OFFCURVE",
"222 572 OFFCURVE",
"283 572 CURVE SMOOTH",
"437 572 LINE",
"314 306 LINE",
"428 306 OFFCURVE",
"492 270 OFFCURVE",
"492 189 CURVE SMOOTH",
"492 132 OFFCURVE",
"460 94 OFFCURVE",
"401 94 CURVE SMOOTH",
"372 94 OFFCURVE",
"337 103 OFFCURVE",
"299 117 CURVE",
"258 33 LINE",
"294 5 OFFCURVE",
"350 -12 OFFCURVE",
"411 -12 CURVE SMOOTH",
"542 -12 OFFCURVE",
"617 65 OFFCURVE",
"617 192 CURVE SMOOTH",
"617 302 OFFCURVE",
"560 354 OFFCURVE",
"467 378 CURVE",
"607 686 LINE",
"284 686 LINE SMOOTH",
"140 686 OFFCURVE",
"60 611 OFFCURVE",
"60 475 CURVE SMOOTH",
"60 0 LINE"
);
}
);
};
layerId = "31F25340-C351-400F-9C98-C04A412D1947";
paths = (
{
closed = 1;
nodes = (
"175 0 LINE",
"175 424 LINE SMOOTH",
"175 532 OFFCURVE",
"224 592 OFFCURVE",
"312 592 CURVE SMOOTH",
"393 592 OFFCURVE",
"438 557 OFFCURVE",
"438 494 CURVE SMOOTH",
"438 425 OFFCURVE",
"403 386 OFFCURVE",
"331 386 CURVE SMOOTH",
"245 386 LINE",
"245 293 LINE",
"334 293 LINE SMOOTH",
"429 293 OFFCURVE",
"473 251 OFFCURVE",
"473 192 CURVE SMOOTH",
"473 128 OFFCURVE",
"438 93 OFFCURVE",
"374 93 CURVE SMOOTH",
"245 93 LINE",
"245 0 LINE",
"387 0 LINE SMOOTH",
"515 0 OFFCURVE",
"600 75 OFFCURVE",
"600 187 CURVE SMOOTH",
"600 271 OFFCURVE",
"552 327 OFFCURVE",
"475 347 CURVE",
"475 351 LINE",
"525 371 OFFCURVE",
"566 431 OFFCURVE",
"566 503 CURVE SMOOTH",
"566 621 OFFCURVE",
"472 698 OFFCURVE",
"313 698 CURVE SMOOTH",
"144 698 OFFCURVE",
"50 600 OFFCURVE",
"50 424 CURVE SMOOTH",
"50 0 LINE"
);
}
);
width = 611;
}
);
leftKerningGroup = I;
rightKerningGroup = Germandbls;
unicode = 1E9E;
},
{
glyphname = Schwa;
layers = (
{
background = {
paths = (
{
closed = 1;
nodes = (
"446 -12 OFFCURVE",
"548 105 OFFCURVE",
"548 343 CURVE SMOOTH",
"548 581 OFFCURVE",
"446 698 OFFCURVE",
"278 698 CURVE SMOOTH",
"110 698 OFFCURVE",
"8 581 OFFCURVE",
"8 343 CURVE SMOOTH",
"8 105 OFFCURVE",
"110 -12 OFFCURVE",
"278 -12 CURVE SMOOTH"
);
},
{
closed = 1;
nodes = (
"168 69 OFFCURVE",
"100 151 OFFCURVE",
"100 318 CURVE SMOOTH",
"100 368 LINE",
"100 535 OFFCURVE",
"168 617 OFFCURVE",
"278 617 CURVE SMOOTH",
"388 617 OFFCURVE",
"456 535 OFFCURVE",
"456 368 CURVE SMOOTH",
"456 318 LINE SMOOTH",
"456 151 OFFCURVE",
"388 69 OFFCURVE",
"278 69 CURVE SMOOTH"
);
}
);
};
layerId = UUID0;
paths = (
{
closed = 1;
nodes = (
"468 -12 OFFCURVE",
"549 101 OFFCURVE",
"549 342 CURVE SMOOTH",
"549 585 OFFCURVE",
"467 698 OFFCURVE",
"293 698 CURVE SMOOTH",
"146 698 OFFCURVE",
"51 601 OFFCURVE",
"51 451 CURVE",
"137 451 LINE",
"137 552 OFFCURVE",
"197 617 OFFCURVE",
"290 617 CURVE SMOOTH",
"403 617 OFFCURVE",
"457 538 OFFCURVE",
"458 368 CURVE",
"51 368 LINE",
"51 316 LINE SMOOTH",
"51 92 OFFCURVE",
"128 -12 OFFCURVE",
"294 -12 CURVE SMOOTH"
);
},
{
closed = 1;
nodes = (
"188 69 OFFCURVE",
"142 148 OFFCURVE",
"142 290 CURVE",
"457 290 LINE",
"452 139 OFFCURVE",
"395 69 OFFCURVE",
"294 69 CURVE SMOOTH"
);
}
);
width = 600;
},
{
layerId = "31F25340-C351-400F-9C98-C04A412D1947";
paths = (
{
closed = 1;
nodes = (
"483 -12 OFFCURVE",
"566 101 OFFCURVE",
"566 343 CURVE SMOOTH",
"566 585 OFFCURVE",
"481 698 OFFCURVE",
"300 698 CURVE SMOOTH",
"148 698 OFFCURVE",
"50 597 OFFCURVE",
"50 442 CURVE",
"172 442 LINE",
"172 537 OFFCURVE",
"218 590 OFFCURVE",
"300 590 CURVE SMOOTH",
"394 590 OFFCURVE",
"432 531 OFFCURVE",
"435 382 CURVE",
"50 382 LINE",
"50 343 LINE SMOOTH",
"50 101 OFFCURVE",
"131 -12 OFFCURVE",
"305 -12 CURVE SMOOTH"
);
},
{
closed = 1;
nodes = (
"217 96 OFFCURVE",
"178 162 OFFCURVE",
"178 279 CURVE",
"433 279 LINE",
"435 162 OFFCURVE",
"391 96 OFFCURVE",
"305 96 CURVE SMOOTH"
);
}
);
width = 600;
}
);
leftKerningGroup = O;
rightKerningGroup = O;
unicode = 018F;
},
{
glyphname = T;
layers = (
{
anchors = (
{
name = bottom;
position = "{250, 0}";
},
{
name = center;
position = "{250, 343}";
},
{
name = top;
position = "{250, 686}";
}
);
background = {
paths = (
{
closed = 1;
nodes = (
"481 686 LINE",
"19 686 LINE",
"19 602 LINE",
"206 602 LINE",
"206 0 LINE",
"294 0 LINE",
"294 602 LINE",
"481 602 LINE"
);
}
);
};
layerId = UUID0;
paths = (
{
closed = 1;
nodes = (
"294 0 LINE",
"294 606 LINE",
"481 606 LINE",
"481 686 LINE",
"19 686 LINE",
"19 606 LINE",
"206 606 LINE",
"206 0 LINE"
);
}
);
width = 501;
},
{
anchors = (
{
name = bottom;
position = "{252, 0}";
},
{
name = center;
position = "{250, 343}";
},
{
name = top;
position = "{250, 686}";
}
);
layerId = "31F25340-C351-400F-9C98-C04A412D1947";
paths = (
{
closed = 1;
nodes = (
"315 0 LINE",
"315 572 LINE",
"485 572 LINE",
"485 686 LINE",
"17 686 LINE",
"17 572 LINE",
"187 572 LINE",
"187 0 LINE"
);
}
);
width = 501;
}
);
leftKerningGroup = T;
rightKerningGroup = T;
unicode = 0054;
},
{
glyphname = Tbar;
layers = (
{
background = {
paths = (
{
closed = 1;
nodes = (
"19 606 LINE",
"206 606 LINE",
"206 0 LINE",
"294 0 LINE",
"294 606 LINE",
"481 606 LINE",
"481 686 LINE",
"19 686 LINE"
);
}
);
};
layerId = UUID0;
paths = (
{
closed = 1;
nodes = (
"294 0 LINE",
"294 320 LINE",
"438 320 LINE",
"438 393 LINE",
"294 393 LINE",
"294 606 LINE",
"481 606 LINE",
"481 686 LINE",
"19 686 LINE",
"19 606 LINE",
"206 606 LINE",
"206 393 LINE",
"62 393 LINE",
"62 320 LINE",
"206 320 LINE",
"206 0 LINE"
);
}
);
width = 501;
},
{
layerId = "31F25340-C351-400F-9C98-C04A412D1947";
paths = (
{
closed = 1;
nodes = (
"315 0 LINE",
"315 306 LINE",
"433 306 LINE",
"433 393 LINE",
"315 393 LINE",
"315 572 LINE",
"485 572 LINE",
"485 686 LINE",
"17 686 LINE",
"17 572 LINE",
"187 572 LINE",
"187 393 LINE",
"69 393 LINE",
"69 306 LINE",
"187 306 LINE",
"187 0 LINE"
);
}
);
width = 501;
}
);
leftKerningGroup = T;
rightKerningGroup = T;
unicode = 0166;
},
{
glyphname = Tcaron;
layers = (
{
background = {
paths = (
{
closed = 1;
nodes = (
"481 686 LINE",
"19 686 LINE",
"19 602 LINE",
"206 602 LINE",
"206 0 LINE",
"294 0 LINE",
"294 602 LINE",
"481 602 LINE"
);
}
);
};
components = (
{
name = T;
},
{
name = caroncomb.case;
transform = "{1, 0, 0, 1, 125, 160}";
}
);
layerId = UUID0;
width = 501;
},
{
components = (
{
name = T;
},
{
name = caroncomb.case;
transform = "{1, 0, 0, 1, 115, 160}";
}
);
layerId = "31F25340-C351-400F-9C98-C04A412D1947";
width = 501;
}
);
leftKerningGroup = T;
rightKerningGroup = T;
unicode = 0164;
},
{
glyphname = Tcedilla;
layers = (
{
background = {
paths = (
{
closed = 1;
nodes = (
"294 0 LINE",
"294 606 LINE",
"481 606 LINE",
"481 686 LINE",
"19 686 LINE",
"19 606 LINE",
"206 606 LINE",
"206 0 LINE"
);
},
{
closed = 1;
nodes = (
"264 -222 LINE",
"293 -144 LINE",
"293 -60 LINE",
"208 -60 LINE",
"208 -151 LINE",
"242 -151 LINE",
"220 -222 LINE"
);
}
);
};
components = (
{
name = T;
},
{
name = cedillacomb.case;
transform = "{1, 0, 0, 1, 164, 0}";
}
);
layerId = UUID0;
width = 501;
},
{
background = {
components = (
{
name = T;
}
);
paths = (
{
closed = 1;
nodes = (
"267 -263 LINE",
"312 -167 LINE",
"312 -55 LINE",
"189 -55 LINE",
"189 -178 LINE",
"238 -178 LINE",
"202 -263 LINE"
);
}
);
};
components = (
{
name = T;
},
{
name = cedillacomb.case;
transform = "{1, 0, 0, 1, 165, 0}";
}
);
layerId = "31F25340-C351-400F-9C98-C04A412D1947";
width = 501;
}
);
leftKerningGroup = T;
rightKerningGroup = T;
unicode = 0162;
},
{
glyphname = U;
layers = (
{
anchors = (
{
name = bottom;
position = "{296, 0}";
},
{
name = ogonek;
position = "{398, 5}";
},
{
name = top;
position = "{296, 686}";
},
{
name = topright;
position = "{444, 686}";
}
);
layerId = UUID0;
paths = (
{
closed = 1;
nodes = (
"437 -12 OFFCURVE",
"522 69 OFFCURVE",
"522 223 CURVE SMOOTH",
"522 686 LINE",
"434 686 LINE",
"434 218 LINE SMOOTH",
"434 121 OFFCURVE",
"382 69 OFFCURVE",
"296 69 CURVE SMOOTH",
"210 69 OFFCURVE",
"158 121 OFFCURVE",
"158 218 CURVE SMOOTH",
"158 686 LINE",
"70 686 LINE",
"70 223 LINE",
"70 69 OFFCURVE",
"155 -12 OFFCURVE",
"296 -12 CURVE SMOOTH"
);
}
);
width = 592;
},
{
anchors = (
{
name = bottom;
position = "{296, 0}";
},
{
name = ogonek;
position = "{405, 5}";
},
{
name = top;
position = "{296, 686}";
},
{
name = topright;
position = "{422, 686}";
}
);
background = {
paths = (
{
closed = 1;
nodes = (
"542 686 LINE",
"414 686 LINE",
"414 227 LINE SMOOTH",
"414 143 OFFCURVE",
"370 98 OFFCURVE",
"296 98 CURVE SMOOTH",
"222 98 OFFCURVE",
"179 143 OFFCURVE",
"179 227 CURVE SMOOTH",
"179 686 LINE",
"51 686 LINE",
"51 223 LINE",
"51 69 OFFCURVE",
"143 -12 OFFCURVE",
"296 -12 CURVE SMOOTH",
"449 -12 OFFCURVE",
"542 69 OFFCURVE",
"542 223 CURVE SMOOTH"
);
}
);
};
layerId = "31F25340-C351-400F-9C98-C04A412D1947";
paths = (
{
closed = 1;
nodes = (
"443 -12 OFFCURVE",
"532 66 OFFCURVE",
"532 215 CURVE SMOOTH",
"532 686 LINE",
"404 686 LINE",
"404 219 LINE SMOOTH",
"404 140 OFFCURVE",
"364 98 OFFCURVE",
"296 98 CURVE SMOOTH",
"228 98 OFFCURVE",
"189 140 OFFCURVE",
"189 219 CURVE SMOOTH",
"189 686 LINE",
"61 686 LINE",
"61 215 LINE",
"61 66 OFFCURVE",
"149 -12 OFFCURVE",
"296 -12 CURVE SMOOTH"
);
}
);
width = 592;
}
);
leftKerningGroup = U;
rightKerningGroup = U;
unicode = 0055;
},
{
glyphname = Uacute;
layers = (
{
background = {
paths = (
{
closed = 1;
nodes = (
"437 -12 OFFCURVE",
"522 69 OFFCURVE",
"522 223 CURVE SMOOTH",
"522 686 LINE",
"434 686 LINE",
"434 218 LINE SMOOTH",
"434 121 OFFCURVE",
"382 69 OFFCURVE",
"296 69 CURVE SMOOTH",
"210 69 OFFCURVE",
"158 121 OFFCURVE",
"158 218 CURVE SMOOTH",
"158 686 LINE",
"70 686 LINE",
"70 223 LINE",
"70 69 OFFCURVE",
"155 -12 OFFCURVE",
"296 -12 CURVE SMOOTH"
);
},
{
closed = 1;
nodes = (
"306 751 LINE",
"413 880 LINE",
"412 883 LINE",
"322 883 LINE",
"236 751 LINE"
);
}
);
};
components = (
{
name = U;
},
{
name = acutecomb.case;
transform = "{1, 0, 0, 1, 228, 160}";
}
);
layerId = UUID0;
width = 592;
},
{
background = {
paths = (
{
closed = 1;
nodes = (
"443 -12 OFFCURVE",
"532 66 OFFCURVE",
"532 215 CURVE SMOOTH",
"532 686 LINE",
"404 686 LINE",
"404 219 LINE SMOOTH",
"404 140 OFFCURVE",
"364 98 OFFCURVE",
"296 98 CURVE SMOOTH",
"228 98 OFFCURVE",
"189 140 OFFCURVE",
"189 219 CURVE SMOOTH",
"189 686 LINE",
"61 686 LINE",
"61 215 LINE SMOOTH",
"61 66 OFFCURVE",
"149 -12 OFFCURVE",
"296 -12 CURVE SMOOTH"
);
},
{
closed = 1;
nodes = (
"326 751 LINE",
"434 880 LINE",
"433 883 LINE",
"313 883 LINE",
"227 751 LINE"
);
}
);
};
components = (
{
name = U;
},
{
name = acutecomb.case;
transform = "{1, 0, 0, 1, 222, 160}";
}
);
layerId = "31F25340-C351-400F-9C98-C04A412D1947";
width = 592;
}
);
leftKerningGroup = U;
rightKerningGroup = U;
unicode = 00DA;
},
{
glyphname = Ubreve;
layers = (
{
background = {
paths = (
{
closed = 1;
nodes = (
"437 -12 OFFCURVE",
"522 69 OFFCURVE",
"522 223 CURVE SMOOTH",
"522 686 LINE",
"434 686 LINE",
"434 218 LINE SMOOTH",
"434 121 OFFCURVE",
"382 69 OFFCURVE",
"296 69 CURVE SMOOTH",
"210 69 OFFCURVE",
"158 121 OFFCURVE",
"158 218 CURVE SMOOTH",
"158 686 LINE",
"70 686 LINE",
"70 223 LINE",
"70 69 OFFCURVE",
"155 -12 OFFCURVE",
"296 -12 CURVE SMOOTH"
);
},
{
closed = 1;
nodes = (
"373 786 OFFCURVE",
"420 838 OFFCURVE",
"420 883 CURVE",
"356 883 LINE",
"354 869 OFFCURVE",
"330 850 OFFCURVE",
"296 850 CURVE SMOOTH",
"262 850 OFFCURVE",
"240 869 OFFCURVE",
"237 883 CURVE",
"172 883 LINE",
"172 838 OFFCURVE",
"220 786 OFFCURVE",
"296 786 CURVE SMOOTH"
);
}
);
};
components = (
{
name = U;
},
{
name = brevecomb.case;
transform = "{1, 0, 0, 1, 172, 160}";
}
);
layerId = UUID0;
width = 592;
},
{
background = {
paths = (
{
closed = 1;
nodes = (
"443 -12 OFFCURVE",
"532 66 OFFCURVE",
"532 215 CURVE SMOOTH",
"532 686 LINE",
"404 686 LINE",
"404 219 LINE SMOOTH",
"404 140 OFFCURVE",
"364 98 OFFCURVE",
"296 98 CURVE SMOOTH",
"228 98 OFFCURVE",
"189 140 OFFCURVE",
"189 219 CURVE SMOOTH",
"189 686 LINE",
"61 686 LINE",
"61 215 LINE SMOOTH",
"61 66 OFFCURVE",
"149 -12 OFFCURVE",
"296 -12 CURVE SMOOTH"
);
},
{
closed = 1;
nodes = (
"378 776 OFFCURVE",
"430 833 OFFCURVE",
"430 883 CURVE",
"355 883 LINE",
"354 869 OFFCURVE",
"330 850 OFFCURVE",
"295 850 CURVE SMOOTH",
"263 850 OFFCURVE",
"240 869 OFFCURVE",
"237 883 CURVE",
"163 883 LINE",
"163 833 OFFCURVE",
"213 776 OFFCURVE",
"295 776 CURVE SMOOTH"
);
}
);
};
components = (
{
name = U;
},
{
name = brevecomb.case;
transform = "{1, 0, 0, 1, 162, 160}";
}
);
layerId = "31F25340-C351-400F-9C98-C04A412D1947";
width = 592;
}
);
leftKerningGroup = U;
rightKerningGroup = U;
unicode = 016C;
},
{
glyphname = Ucircumflex;
layers = (
{
background = {
paths = (
{
closed = 1;
nodes = (
"437 -12 OFFCURVE",
"522 69 OFFCURVE",
"522 223 CURVE SMOOTH",
"522 686 LINE",
"434 686 LINE",
"434 218 LINE SMOOTH",
"434 121 OFFCURVE",
"382 69 OFFCURVE",
"296 69 CURVE SMOOTH",
"210 69 OFFCURVE",
"158 121 OFFCURVE",
"158 218 CURVE SMOOTH",
"158 686 LINE",
"70 686 LINE",
"70 223 LINE",
"70 69 OFFCURVE",
"155 -12 OFFCURVE",
"296 -12 CURVE SMOOTH"
);
},
{
closed = 1;
nodes = (
"251 747 LINE",
"297 826 LINE",
"341 747 LINE",
"421 747 LINE",
"335 882 LINE",
"257 882 LINE",
"171 747 LINE"
);
}
);
};
components = (
{
name = U;
},
{
name = circumflexcomb.case;
transform = "{1, 0, 0, 1, 171, 160}";
}
);
layerId = UUID0;
width = 592;
},
{
background = {
paths = (
{
closed = 1;
nodes = (
"443 -12 OFFCURVE",
"532 66 OFFCURVE",
"532 215 CURVE SMOOTH",
"532 686 LINE",
"404 686 LINE",
"404 219 LINE SMOOTH",
"404 140 OFFCURVE",
"364 98 OFFCURVE",
"296 98 CURVE SMOOTH",
"228 98 OFFCURVE",
"189 140 OFFCURVE",
"189 219 CURVE SMOOTH",
"189 686 LINE",
"61 686 LINE",
"61 215 LINE SMOOTH",
"61 66 OFFCURVE",
"149 -12 OFFCURVE",
"296 -12 CURVE SMOOTH"
);
},
{
closed = 1;
nodes = (
"251 748 LINE",
"296 817 LINE",
"341 748 LINE",
"431 748 LINE",
"346 883 LINE",
"248 883 LINE",
"162 748 LINE"
);
}
);
};
components = (
{
name = U;
},
{
name = circumflexcomb.case;
transform = "{1, 0, 0, 1, 161, 160}";
}
);
layerId = "31F25340-C351-400F-9C98-C04A412D1947";
width = 592;
}
);
leftKerningGroup = U;
rightKerningGroup = U;
unicode = 00DB;
},
{
glyphname = Udieresis;
layers = (
{
background = {
paths = (
{
closed = 1;
nodes = (
"437 -12 OFFCURVE",
"522 69 OFFCURVE",
"522 223 CURVE SMOOTH",
"522 686 LINE",
"434 686 LINE",
"434 218 LINE SMOOTH",
"434 121 OFFCURVE",
"382 69 OFFCURVE",
"296 69 CURVE SMOOTH",
"210 69 OFFCURVE",
"158 121 OFFCURVE",
"158 218 CURVE SMOOTH",
"158 686 LINE",
"70 686 LINE",
"70 223 LINE",
"70 69 OFFCURVE",
"155 -12 OFFCURVE",
"296 -12 CURVE SMOOTH"
);
},
{
closed = 1;
nodes = (
"264 788 LINE",
"264 883 LINE",
"177 883 LINE",
"177 788 LINE"
);
},
{
closed = 1;
nodes = (
"415 788 LINE",
"415 883 LINE",
"327 883 LINE",
"327 788 LINE"
);
}
);
};
components = (
{
name = U;
},
{
name = dieresiscomb.case;
transform = "{1, 0, 0, 1, 177, 160}";
}
);
layerId = UUID0;
width = 592;
},
{
background = {
paths = (
{
closed = 1;
nodes = (
"443 -12 OFFCURVE",
"532 66 OFFCURVE",
"532 215 CURVE SMOOTH",
"532 686 LINE",
"404 686 LINE",
"404 219 LINE SMOOTH",
"404 140 OFFCURVE",
"364 98 OFFCURVE",
"296 98 CURVE SMOOTH",
"228 98 OFFCURVE",
"189 140 OFFCURVE",
"189 219 CURVE SMOOTH",
"189 686 LINE",
"61 686 LINE",
"61 215 LINE SMOOTH",
"61 66 OFFCURVE",
"149 -12 OFFCURVE",
"296 -12 CURVE SMOOTH"
);
},
{
closed = 1;
nodes = (
"259 774 LINE",
"259 883 LINE",
"159 883 LINE",
"159 774 LINE"
);
},
{
closed = 1;
nodes = (
"434 774 LINE",
"434 883 LINE",
"333 883 LINE",
"333 774 LINE"
);
}
);
};
components = (
{
name = U;
},
{
name = dieresiscomb.case;
transform = "{1, 0, 0, 1, 158, 160}";
}
);
layerId = "31F25340-C351-400F-9C98-C04A412D1947";
width = 592;
}
);
leftKerningGroup = U;
rightKerningGroup = U;
unicode = 00DC;
},
{
glyphname = Ugrave;
layers = (
{
background = {
paths = (
{
closed = 1;
nodes = (
"437 -12 OFFCURVE",
"522 69 OFFCURVE",
"522 223 CURVE SMOOTH",
"522 686 LINE",
"434 686 LINE",
"434 218 LINE SMOOTH",
"434 121 OFFCURVE",
"382 69 OFFCURVE",
"296 69 CURVE SMOOTH",
"210 69 OFFCURVE",
"158 121 OFFCURVE",
"158 218 CURVE SMOOTH",
"158 686 LINE",
"70 686 LINE",
"70 223 LINE",
"70 69 OFFCURVE",
"155 -12 OFFCURVE",
"296 -12 CURVE SMOOTH"
);
},
{
closed = 1;
nodes = (
"355 751 LINE",
"270 883 LINE",
"179 883 LINE",
"178 880 LINE",
"287 751 LINE"
);
}
);
};
components = (
{
name = U;
},
{
name = gravecomb.case;
transform = "{1, 0, 0, 1, 172, 160}";
}
);
layerId = UUID0;
width = 592;
},
{
background = {
paths = (
{
closed = 1;
nodes = (
"443 -12 OFFCURVE",
"532 66 OFFCURVE",
"532 215 CURVE SMOOTH",
"532 686 LINE",
"404 686 LINE",
"404 219 LINE SMOOTH",
"404 140 OFFCURVE",
"364 98 OFFCURVE",
"296 98 CURVE SMOOTH",
"228 98 OFFCURVE",
"189 140 OFFCURVE",
"189 219 CURVE SMOOTH",
"189 686 LINE",
"61 686 LINE",
"61 215 LINE SMOOTH",
"61 66 OFFCURVE",
"149 -12 OFFCURVE",
"296 -12 CURVE SMOOTH"
);
},
{
closed = 1;
nodes = (
"365 751 LINE",
"279 883 LINE",
"159 883 LINE",
"158 880 LINE",
"266 751 LINE"
);
}
);
};
components = (
{
name = U;
},
{
name = gravecomb.case;
transform = "{1, 0, 0, 1, 158, 160}";
}
);
layerId = "31F25340-C351-400F-9C98-C04A412D1947";
width = 592;
}
);
leftKerningGroup = U;
rightKerningGroup = U;
unicode = 00D9;
},
{
glyphname = Uhungarumlaut;
layers = (
{
background = {
paths = (
{
closed = 1;
nodes = (
"437 -12 OFFCURVE",
"522 69 OFFCURVE",
"522 223 CURVE SMOOTH",
"522 686 LINE",
"434 686 LINE",
"434 218 LINE SMOOTH",
"434 121 OFFCURVE",
"382 69 OFFCURVE",
"296 69 CURVE SMOOTH",
"210 69 OFFCURVE",
"158 121 OFFCURVE",
"158 218 CURVE SMOOTH",
"158 686 LINE",
"70 686 LINE",
"70 223 LINE",
"70 69 OFFCURVE",
"155 -12 OFFCURVE",
"296 -12 CURVE SMOOTH"
);
},
{
closed = 1;
nodes = (
"269 751 LINE",
"353 880 LINE",
"352 883 LINE",
"262 883 LINE",
"200 751 LINE"
);
},
{
closed = 1;
nodes = (
"399 751 LINE",
"483 880 LINE",
"482 883 LINE",
"393 883 LINE",
"331 751 LINE"
);
}
);
};
components = (
{
name = U;
},
{
name = hungarumlautcomb.case;
transform = "{1, 0, 0, 1, 200, 160}";
}
);
layerId = UUID0;
width = 592;
},
{
background = {
paths = (
{
closed = 1;
nodes = (
"443 -12 OFFCURVE",
"532 66 OFFCURVE",
"532 215 CURVE SMOOTH",
"532 686 LINE",
"404 686 LINE",
"404 219 LINE SMOOTH",
"404 140 OFFCURVE",
"364 98 OFFCURVE",
"296 98 CURVE SMOOTH",
"228 98 OFFCURVE",
"189 140 OFFCURVE",
"189 219 CURVE SMOOTH",
"189 686 LINE",
"61 686 LINE",
"61 215 LINE SMOOTH",
"61 66 OFFCURVE",
"149 -12 OFFCURVE",
"296 -12 CURVE SMOOTH"
);
},
{
closed = 1;
nodes = (
"262 751 LINE",
"346 880 LINE",
"345 883 LINE",
"245 883 LINE",
"183 751 LINE"
);
},
{
closed = 1;
nodes = (
"402 751 LINE",
"486 880 LINE",
"485 883 LINE",
"385 883 LINE",
"323 751 LINE"
);
}
);
};
components = (
{
name = U;
},
{
name = hungarumlautcomb.case;
transform = "{1, 0, 0, 1, 183, 160}";
}
);
layerId = "31F25340-C351-400F-9C98-C04A412D1947";
width = 592;
}
);
leftKerningGroup = U;
rightKerningGroup = U;
unicode = 0170;
},
{
glyphname = Umacron;
layers = (
{
background = {
paths = (
{
closed = 1;
nodes = (
"437 -12 OFFCURVE",
"522 69 OFFCURVE",
"522 223 CURVE SMOOTH",
"522 686 LINE",
"434 686 LINE",
"434 218 LINE SMOOTH",
"434 121 OFFCURVE",
"382 69 OFFCURVE",
"296 69 CURVE SMOOTH",
"210 69 OFFCURVE",
"158 121 OFFCURVE",
"158 218 CURVE SMOOTH",
"158 686 LINE",
"70 686 LINE",
"70 223 LINE",
"70 69 OFFCURVE",
"155 -12 OFFCURVE",
"296 -12 CURVE SMOOTH"
);
},
{
closed = 1;
nodes = (
"421 759 LINE",
"421 831 LINE",
"171 831 LINE",
"171 759 LINE"
);
}
);
};
components = (
{
name = U;
},
{
name = macroncomb.case;
transform = "{1, 0, 0, 1, 171, 160}";
}
);
layerId = UUID0;
width = 592;
},
{
background = {
paths = (
{
closed = 1;
nodes = (
"443 -12 OFFCURVE",
"532 66 OFFCURVE",
"532 215 CURVE SMOOTH",
"532 686 LINE",
"404 686 LINE",
"404 219 LINE SMOOTH",
"404 140 OFFCURVE",
"364 98 OFFCURVE",
"296 98 CURVE SMOOTH",
"228 98 OFFCURVE",
"189 140 OFFCURVE",
"189 219 CURVE SMOOTH",
"189 686 LINE",
"61 686 LINE",
"61 215 LINE SMOOTH",
"61 66 OFFCURVE",
"149 -12 OFFCURVE",
"296 -12 CURVE SMOOTH"
);
},
{
closed = 1;
nodes = (
"424 759 LINE",
"424 846 LINE",
"168 846 LINE",
"168 759 LINE"
);
}
);
};
components = (
{
name = U;
},
{
name = macroncomb.case;
transform = "{1, 0, 0, 1, 168, 160}";
}
);
layerId = "31F25340-C351-400F-9C98-C04A412D1947";
width = 592;
}
);
leftKerningGroup = U;
rightKerningGroup = U;
unicode = 016A;
},
{
glyphname = Uogonek;
layers = (
{
background = {
paths = (
{
closed = 1;
nodes = (
"406 -182 OFFCURVE",
"426 -177 OFFCURVE",
"447 -168 CURVE",
"447 -117 LINE",
"416 -117 LINE SMOOTH",
"382 -117 OFFCURVE",
"370 -90 OFFCURVE",
"370 -62 CURVE SMOOTH",
"370 -35 OFFCURVE",
"385 -9 OFFCURVE",
"397 5 CURVE",
"476 37 OFFCURVE",
"522 110 OFFCURVE",
"522 223 CURVE SMOOTH",
"522 686 LINE",
"434 686 LINE",
"434 218 LINE SMOOTH",
"434 121 OFFCURVE",
"382 69 OFFCURVE",
"296 69 CURVE SMOOTH",
"210 69 OFFCURVE",
"158 121 OFFCURVE",
"158 218 CURVE SMOOTH",
"158 686 LINE",
"70 686 LINE",
"70 223 LINE SMOOTH",
"70 69 OFFCURVE",
"155 -12 OFFCURVE",
"296 -12 CURVE SMOOTH",
"311 -12 OFFCURVE",
"328 -11 OFFCURVE",
"340 -9 CURVE",
"334 6 LINE",
"310 -19 OFFCURVE",
"292 -47 OFFCURVE",
"292 -92 CURVE SMOOTH",
"292 -161 OFFCURVE",
"343 -182 OFFCURVE",
"386 -182 CURVE SMOOTH"
);
}
);
};
components = (
{
name = U;
},
{
name = ogonekcomb.case;
transform = "{1, 0, 0, 1, 270, 5}";
}
);
layerId = UUID0;
width = 592;
},
{
background = {
paths = (
{
closed = 1;
nodes = (
"398 -185 OFFCURVE",
"419 -180 OFFCURVE",
"442 -171 CURVE",
"442 -116 LINE",
"420 -116 LINE SMOOTH",
"387 -116 OFFCURVE",
"375 -91 OFFCURVE",
"375 -65 CURVE SMOOTH",
"375 -37 OFFCURVE",
"393 -9 OFFCURVE",
"405 5 CURVE",
"486 36 OFFCURVE",
"532 110 OFFCURVE",
"532 223 CURVE SMOOTH",
"532 686 LINE",
"404 686 LINE",
"404 227 LINE SMOOTH",
"404 143 OFFCURVE",
"364 98 OFFCURVE",
"296 98 CURVE SMOOTH",
"228 98 OFFCURVE",
"189 143 OFFCURVE",
"189 227 CURVE SMOOTH",
"189 686 LINE",
"61 686 LINE",
"61 223 LINE SMOOTH",
"61 69 OFFCURVE",
"149 -12 OFFCURVE",
"296 -12 CURVE SMOOTH",
"317 -12 OFFCURVE",
"339 -9 OFFCURVE",
"360 -6 CURVE",
"328 11 LINE",
"301 -14 OFFCURVE",
"277 -45 OFFCURVE",
"277 -95 CURVE SMOOTH",
"277 -164 OFFCURVE",
"330 -185 OFFCURVE",
"376 -185 CURVE SMOOTH"
);
}
);
};
components = (
{
name = U;
},
{
name = ogonekcomb.case;
transform = "{1, 0, 0, 1, 259, 5}";
}
);
layerId = "31F25340-C351-400F-9C98-C04A412D1947";
width = 592;
}
);
leftKerningGroup = U;
rightKerningGroup = U;
unicode = 0172;
},
{
glyphname = Uring;
layers = (
{
background = {
paths = (
{
closed = 1;
nodes = (
"437 -12 OFFCURVE",
"522 69 OFFCURVE",
"522 223 CURVE SMOOTH",
"522 686 LINE",
"434 686 LINE",
"434 218 LINE SMOOTH",
"434 121 OFFCURVE",
"382 69 OFFCURVE",
"296 69 CURVE SMOOTH",
"210 69 OFFCURVE",
"158 121 OFFCURVE",
"158 218 CURVE SMOOTH",
"158 686 LINE",
"70 686 LINE",
"70 223 LINE",
"70 69 OFFCURVE",
"155 -12 OFFCURVE",
"296 -12 CURVE SMOOTH"
);
},
{
closed = 1;
nodes = (
"349 723 OFFCURVE",
"392 766 OFFCURVE",
"392 819 CURVE SMOOTH",
"392 871 OFFCURVE",
"350 915 OFFCURVE",
"296 915 CURVE SMOOTH",
"243 915 OFFCURVE",
"200 872 OFFCURVE",
"200 819 CURVE SMOOTH",
"200 765 OFFCURVE",
"244 723 OFFCURVE",
"296 723 CURVE SMOOTH"
);
},
{
closed = 1;
nodes = (
"268 768 OFFCURVE",
"245 791 OFFCURVE",
"245 819 CURVE SMOOTH",
"245 847 OFFCURVE",
"268 870 OFFCURVE",
"296 870 CURVE SMOOTH",
"323 870 OFFCURVE",
"347 847 OFFCURVE",
"347 819 CURVE SMOOTH",
"347 791 OFFCURVE",
"323 768 OFFCURVE",
"296 768 CURVE SMOOTH"
);
}
);
};
components = (
{
name = U;
},
{
name = ringcomb.case;
transform = "{1, 0, 0, 1, 200, 160}";
}
);
layerId = UUID0;
width = 592;
},
{
background = {
paths = (
{
closed = 1;
nodes = (
"443 -12 OFFCURVE",
"532 66 OFFCURVE",
"532 215 CURVE SMOOTH",
"532 686 LINE",
"404 686 LINE",
"404 219 LINE SMOOTH",
"404 140 OFFCURVE",
"364 98 OFFCURVE",
"296 98 CURVE SMOOTH",
"228 98 OFFCURVE",
"189 140 OFFCURVE",
"189 219 CURVE SMOOTH",
"189 686 LINE",
"61 686 LINE",
"61 215 LINE SMOOTH",
"61 66 OFFCURVE",
"149 -12 OFFCURVE",
"296 -12 CURVE SMOOTH"
);
},
{
closed = 1;
nodes = (
"349 721 OFFCURVE",
"392 764 OFFCURVE",
"392 817 CURVE SMOOTH",
"392 869 OFFCURVE",
"350 913 OFFCURVE",
"296 913 CURVE SMOOTH",
"243 913 OFFCURVE",
"200 870 OFFCURVE",
"200 817 CURVE SMOOTH",
"200 763 OFFCURVE",
"244 721 OFFCURVE",
"296 721 CURVE SMOOTH"
);
},
{
closed = 1;
nodes = (
"270 771 OFFCURVE",
"250 791 OFFCURVE",
"250 817 CURVE SMOOTH",
"250 843 OFFCURVE",
"270 863 OFFCURVE",
"296 863 CURVE SMOOTH",
"321 863 OFFCURVE",
"342 843 OFFCURVE",
"342 817 CURVE SMOOTH",
"342 791 OFFCURVE",
"321 771 OFFCURVE",
"296 771 CURVE SMOOTH"
);
}
);
};
components = (
{
name = U;
},
{
name = ringcomb.case;
transform = "{1, 0, 0, 1, 200, 160}";
}
);
layerId = "31F25340-C351-400F-9C98-C04A412D1947";
width = 592;
}
);
leftKerningGroup = U;
rightKerningGroup = U;
unicode = 016E;
},
{
glyphname = Utilde;
layers = (
{
background = {
paths = (
{
closed = 1;
nodes = (
"437 -12 OFFCURVE",
"522 69 OFFCURVE",
"522 223 CURVE SMOOTH",
"522 686 LINE",
"434 686 LINE",
"434 218 LINE SMOOTH",
"434 121 OFFCURVE",
"382 69 OFFCURVE",
"296 69 CURVE SMOOTH",
"210 69 OFFCURVE",
"158 121 OFFCURVE",
"158 218 CURVE SMOOTH",
"158 686 LINE",
"70 686 LINE",
"70 223 LINE",
"70 69 OFFCURVE",
"155 -12 OFFCURVE",
"296 -12 CURVE SMOOTH"
);
},
{
closed = 1;
nodes = (
"208 779 LINE",
"211 802 OFFCURVE",
"224 810 OFFCURVE",
"242 810 CURVE SMOOTH",
"281 810 OFFCURVE",
"313 779 OFFCURVE",
"357 779 CURVE SMOOTH",
"417 779 OFFCURVE",
"442 837 OFFCURVE",
"442 883 CURVE",
"384 883 LINE",
"381 860 OFFCURVE",
"368 853 OFFCURVE",
"350 853 CURVE SMOOTH",
"311 853 OFFCURVE",
"278 883 OFFCURVE",
"235 883 CURVE SMOOTH",
"175 883 OFFCURVE",
"150 825 OFFCURVE",
"150 779 CURVE"
);
}
);
};
components = (
{
name = U;
},
{
name = tildecomb.case;
transform = "{1, 0, 0, 1, 164, 160}";
}
);
layerId = UUID0;
width = 592;
},
{
background = {
paths = (
{
closed = 1;
nodes = (
"443 -12 OFFCURVE",
"532 66 OFFCURVE",
"532 215 CURVE SMOOTH",
"532 686 LINE",
"404 686 LINE",
"404 219 LINE SMOOTH",
"404 140 OFFCURVE",
"364 98 OFFCURVE",
"296 98 CURVE SMOOTH",
"228 98 OFFCURVE",
"189 140 OFFCURVE",
"189 219 CURVE SMOOTH",
"189 686 LINE",
"61 686 LINE",
"61 215 LINE SMOOTH",
"61 66 OFFCURVE",
"149 -12 OFFCURVE",
"296 -12 CURVE SMOOTH"
);
},
{
closed = 1;
nodes = (
"194 761 LINE",
"198 788 OFFCURVE",
"212 798 OFFCURVE",
"233 798 CURVE SMOOTH",
"278 798 OFFCURVE",
"317 761 OFFCURVE",
"365 761 CURVE SMOOTH",
"436 761 OFFCURVE",
"464 828 OFFCURVE",
"464 883 CURVE",
"398 883 LINE",
"394 855 OFFCURVE",
"380 846 OFFCURVE",
"359 846 CURVE SMOOTH",
"314 846 OFFCURVE",
"275 883 OFFCURVE",
"226 883 CURVE SMOOTH",
"156 883 OFFCURVE",
"128 816 OFFCURVE",
"128 761 CURVE"
);
}
);
};
components = (
{
name = U;
},
{
name = tildecomb.case;
transform = "{1, 0, 0, 1, 144, 160}";
}
);
layerId = "31F25340-C351-400F-9C98-C04A412D1947";
width = 592;
}
);
leftKerningGroup = U;
rightKerningGroup = U;
unicode = 0168;
},
{
glyphname = V;
layers = (
{
layerId = UUID0;
paths = (
{
closed = 1;
nodes = (
"330 0 LINE",
"539 686 LINE",
"454 686 LINE",
"279 97 LINE",
"275 97 LINE",
"105 686 LINE",
"8 686 LINE",
"217 0 LINE"
);
}
);
width = 547;
},
{
layerId = "31F25340-C351-400F-9C98-C04A412D1947";
paths = (
{
closed = 1;
nodes = (
"338 0 LINE",
"547 686 LINE",
"422 686 LINE",
"280 195 LINE",
"276 195 LINE",
"132 686 LINE",
"0 686 LINE",
"209 0 LINE"
);
}
);
width = 547;
}
);
leftKerningGroup = V;
rightKerningGroup = V;
unicode = 0056;
},
{
glyphname = W;
layers = (
{
anchors = (
{
name = bottom;
position = "{387, 0}";
},
{
name = top;
position = "{387, 686}";
}
);
layerId = UUID0;
paths = (
{
closed = 1;
nodes = (
"283 0 LINE",
"365 465 LINE SMOOTH",
"373 511 OFFCURVE",
"384 603 OFFCURVE",
"384 603 CURVE",
"388 603 LINE",
"388 603 OFFCURVE",
"399 511 OFFCURVE",
"407 465 CURVE SMOOTH",
"491 0 LINE",
"605 0 LINE",
"764 686 LINE",
"684 686 LINE",
"579 212 LINE SMOOTH",
"569 167 OFFCURVE",
"558 90 OFFCURVE",
"558 90 CURVE",
"554 90 LINE",
"554 90 OFFCURVE",
"545 162 OFFCURVE",
"536 212 CURVE SMOOTH",
"451 686 LINE",
"329 686 LINE",
"250 212 LINE SMOOTH",
"240 152 OFFCURVE",
"233 90 OFFCURVE",
"233 90 CURVE",
"229 90 LINE",
"229 90 OFFCURVE",
"217 172 OFFCURVE",
"208 212 CURVE SMOOTH",
"103 686 LINE",
"10 686 LINE",
"169 0 LINE"
);
}
);
width = 774;
},
{
anchors = (
{
name = bottom;
position = "{387, 0}";
},
{
name = top;
position = "{387, 686}";
}
);
layerId = "31F25340-C351-400F-9C98-C04A412D1947";
paths = (
{
closed = 1;
nodes = (
"278 0 LINE",
"370 437 LINE SMOOTH",
"376 466 OFFCURVE",
"384 534 OFFCURVE",
"384 534 CURVE",
"388 534 LINE",
"388 534 OFFCURVE",
"394 472 OFFCURVE",
"402 437 CURVE SMOOTH",
"495 0 LINE",
"624 0 LINE",
"773 686 LINE",
"663 686 LINE",
"579 264 LINE SMOOTH",
"572 230 OFFCURVE",
"566 168 OFFCURVE",
"566 168 CURVE",
"562 168 LINE",
"562 168 OFFCURVE",
"554 237 OFFCURVE",
"549 264 CURVE SMOOTH",
"467 686 LINE",
"322 686 LINE",
"239 264 LINE SMOOTH",
"233 235 OFFCURVE",
"226 168 OFFCURVE",
"226 168 CURVE",
"222 168 LINE",
"222 168 OFFCURVE",
"215 234 OFFCURVE",
"209 264 CURVE SMOOTH",
"127 686 LINE",
"0 686 LINE",
"149 0 LINE"
);
}
);
width = 774;
}
);
leftKerningGroup = W;
rightKerningGroup = W;
unicode = 0057;
},
{
glyphname = Wacute;
layers = (
{
background = {
paths = (
{
closed = 1;
nodes = (
"283 0 LINE",
"365 465 LINE SMOOTH",
"373 511 OFFCURVE",
"384 603 OFFCURVE",
"384 603 CURVE",
"388 603 LINE",
"388 603 OFFCURVE",
"399 511 OFFCURVE",
"407 465 CURVE SMOOTH",
"491 0 LINE",
"605 0 LINE",
"764 686 LINE",
"684 686 LINE",
"579 212 LINE SMOOTH",
"569 167 OFFCURVE",
"558 90 OFFCURVE",
"558 90 CURVE",
"554 90 LINE",
"554 90 OFFCURVE",
"545 162 OFFCURVE",
"536 212 CURVE SMOOTH",
"451 686 LINE",
"329 686 LINE",
"250 212 LINE SMOOTH",
"240 152 OFFCURVE",
"233 90 OFFCURVE",
"233 90 CURVE",
"229 90 LINE",
"229 90 OFFCURVE",
"217 172 OFFCURVE",
"208 212 CURVE SMOOTH",
"103 686 LINE",
"10 686 LINE",
"169 0 LINE"
);
},
{
closed = 1;
nodes = (
"397 751 LINE",
"504 880 LINE",
"503 883 LINE",
"414 883 LINE",
"328 751 LINE"
);
}
);
};
components = (
{
name = W;
},
{
name = acutecomb.case;
transform = "{1, 0, 0, 1, 319, 160}";
}
);
layerId = UUID0;
width = 774;
},
{
background = {
paths = (
{
closed = 1;
nodes = (
"278 0 LINE",
"370 437 LINE SMOOTH",
"376 466 OFFCURVE",
"384 534 OFFCURVE",
"384 534 CURVE",
"388 534 LINE",
"388 534 OFFCURVE",
"394 472 OFFCURVE",
"402 437 CURVE SMOOTH",
"495 0 LINE",
"624 0 LINE",
"773 686 LINE",
"663 686 LINE",
"579 264 LINE SMOOTH",
"572 230 OFFCURVE",
"566 168 OFFCURVE",
"566 168 CURVE",
"562 168 LINE",
"562 168 OFFCURVE",
"554 237 OFFCURVE",
"549 264 CURVE SMOOTH",
"467 686 LINE",
"322 686 LINE",
"239 264 LINE SMOOTH",
"233 235 OFFCURVE",
"226 168 OFFCURVE",
"226 168 CURVE",
"222 168 LINE",
"222 168 OFFCURVE",
"215 234 OFFCURVE",
"209 264 CURVE SMOOTH",
"127 686 LINE",
"0 686 LINE",
"149 0 LINE"
);
},
{
closed = 1;
nodes = (
"417 751 LINE",
"525 880 LINE",
"524 883 LINE",
"404 883 LINE",
"318 751 LINE"
);
}
);
};
components = (
{
name = W;
},
{
name = acutecomb.case;
transform = "{1, 0, 0, 1, 313, 160}";
}
);
layerId = "31F25340-C351-400F-9C98-C04A412D1947";
width = 774;
}
);
leftKerningGroup = W;
rightKerningGroup = W;
unicode = 1E82;
},
{
glyphname = Wcircumflex;
layers = (
{
background = {
paths = (
{
closed = 1;
nodes = (
"283 0 LINE",
"365 465 LINE SMOOTH",
"373 511 OFFCURVE",
"384 603 OFFCURVE",
"384 603 CURVE",
"388 603 LINE",
"388 603 OFFCURVE",
"399 511 OFFCURVE",
"407 465 CURVE SMOOTH",
"491 0 LINE",
"605 0 LINE",
"764 686 LINE",
"684 686 LINE",
"579 212 LINE SMOOTH",
"569 167 OFFCURVE",
"558 90 OFFCURVE",
"558 90 CURVE",
"554 90 LINE",
"554 90 OFFCURVE",
"545 162 OFFCURVE",
"536 212 CURVE SMOOTH",
"451 686 LINE",
"329 686 LINE",
"250 212 LINE SMOOTH",
"240 152 OFFCURVE",
"233 90 OFFCURVE",
"233 90 CURVE",
"229 90 LINE",
"229 90 OFFCURVE",
"217 172 OFFCURVE",
"208 212 CURVE SMOOTH",
"103 686 LINE",
"10 686 LINE",
"169 0 LINE"
);
},
{
closed = 1;
nodes = (
"343 747 LINE",
"388 826 LINE",
"432 747 LINE",
"512 747 LINE",
"427 882 LINE",
"349 882 LINE",
"263 747 LINE"
);
}
);
};
components = (
{
name = W;
},
{
name = circumflexcomb.case;
transform = "{1, 0, 0, 1, 262, 160}";
}
);
layerId = UUID0;
width = 774;
},
{
background = {
paths = (
{
closed = 1;
nodes = (
"278 0 LINE",
"370 437 LINE SMOOTH",
"376 466 OFFCURVE",
"384 534 OFFCURVE",
"384 534 CURVE",
"388 534 LINE",
"388 534 OFFCURVE",
"394 472 OFFCURVE",
"402 437 CURVE SMOOTH",
"495 0 LINE",
"624 0 LINE",
"773 686 LINE",
"663 686 LINE",
"579 264 LINE SMOOTH",
"572 230 OFFCURVE",
"566 168 OFFCURVE",
"566 168 CURVE",
"562 168 LINE",
"562 168 OFFCURVE",
"554 237 OFFCURVE",
"549 264 CURVE SMOOTH",
"467 686 LINE",
"322 686 LINE",
"239 264 LINE SMOOTH",
"233 235 OFFCURVE",
"226 168 OFFCURVE",
"226 168 CURVE",
"222 168 LINE",
"222 168 OFFCURVE",
"215 234 OFFCURVE",
"209 264 CURVE SMOOTH",
"127 686 LINE",
"0 686 LINE",
"149 0 LINE"
);
},
{
closed = 1;
nodes = (
"343 748 LINE",
"388 817 LINE",
"432 748 LINE",
"522 748 LINE",
"437 883 LINE",
"339 883 LINE",
"253 748 LINE"
);
}
);
};
components = (
{
name = W;
},
{
name = circumflexcomb.case;
transform = "{1, 0, 0, 1, 252, 160}";
}
);
layerId = "31F25340-C351-400F-9C98-C04A412D1947";
width = 774;
}
);
leftKerningGroup = W;
rightKerningGroup = W;
unicode = 0174;
},
{
glyphname = Wdieresis;
layers = (
{
background = {
paths = (
{
closed = 1;
nodes = (
"283 0 LINE",
"365 465 LINE SMOOTH",
"373 511 OFFCURVE",
"384 603 OFFCURVE",
"384 603 CURVE",
"388 603 LINE",
"388 603 OFFCURVE",
"399 511 OFFCURVE",
"407 465 CURVE SMOOTH",
"491 0 LINE",
"605 0 LINE",
"764 686 LINE",
"684 686 LINE",
"579 212 LINE SMOOTH",
"569 167 OFFCURVE",
"558 90 OFFCURVE",
"558 90 CURVE",
"554 90 LINE",
"554 90 OFFCURVE",
"545 162 OFFCURVE",
"536 212 CURVE SMOOTH",
"451 686 LINE",
"329 686 LINE",
"250 212 LINE SMOOTH",
"240 152 OFFCURVE",
"233 90 OFFCURVE",
"233 90 CURVE",
"229 90 LINE",
"229 90 OFFCURVE",
"217 172 OFFCURVE",
"208 212 CURVE SMOOTH",
"103 686 LINE",
"10 686 LINE",
"169 0 LINE"
);
},
{
closed = 1;
nodes = (
"355 788 LINE",
"355 883 LINE",
"269 883 LINE",
"269 788 LINE"
);
},
{
closed = 1;
nodes = (
"506 788 LINE",
"506 883 LINE",
"418 883 LINE",
"418 788 LINE"
);
}
);
};
components = (
{
name = W;
},
{
name = dieresiscomb.case;
transform = "{1, 0, 0, 1, 268, 160}";
}
);
layerId = UUID0;
width = 774;
},
{
background = {
paths = (
{
closed = 1;
nodes = (
"278 0 LINE",
"370 437 LINE SMOOTH",
"376 466 OFFCURVE",
"384 534 OFFCURVE",
"384 534 CURVE",
"388 534 LINE",
"388 534 OFFCURVE",
"394 472 OFFCURVE",
"402 437 CURVE SMOOTH",
"495 0 LINE",
"624 0 LINE",
"773 686 LINE",
"663 686 LINE",
"579 264 LINE SMOOTH",
"572 230 OFFCURVE",
"566 168 OFFCURVE",
"566 168 CURVE",
"562 168 LINE",
"562 168 OFFCURVE",
"554 237 OFFCURVE",
"549 264 CURVE SMOOTH",
"467 686 LINE",
"322 686 LINE",
"239 264 LINE SMOOTH",
"233 235 OFFCURVE",
"226 168 OFFCURVE",
"226 168 CURVE",
"222 168 LINE",
"222 168 OFFCURVE",
"215 234 OFFCURVE",
"209 264 CURVE SMOOTH",
"127 686 LINE",
"0 686 LINE",
"149 0 LINE"
);
},
{
closed = 1;
nodes = (
"350 774 LINE",
"350 883 LINE",
"250 883 LINE",
"250 774 LINE"
);
},
{
closed = 1;
nodes = (
"525 774 LINE",
"525 883 LINE",
"425 883 LINE",
"425 774 LINE"
);
}
);
};
components = (
{
name = W;
},
{
name = dieresiscomb.case;
transform = "{1, 0, 0, 1, 249, 160}";
}
);
layerId = "31F25340-C351-400F-9C98-C04A412D1947";
width = 774;
}
);
leftKerningGroup = W;
rightKerningGroup = W;
unicode = 1E84;
},
{
glyphname = Wgrave;
layers = (
{
background = {
paths = (
{
closed = 1;
nodes = (
"283 0 LINE",
"365 465 LINE SMOOTH",
"373 511 OFFCURVE",
"384 603 OFFCURVE",
"384 603 CURVE",
"388 603 LINE",
"388 603 OFFCURVE",
"399 511 OFFCURVE",
"407 465 CURVE SMOOTH",
"491 0 LINE",
"605 0 LINE",
"764 686 LINE",
"684 686 LINE",
"579 212 LINE SMOOTH",
"569 167 OFFCURVE",
"558 90 OFFCURVE",
"558 90 CURVE",
"554 90 LINE",
"554 90 OFFCURVE",
"545 162 OFFCURVE",
"536 212 CURVE SMOOTH",
"451 686 LINE",
"329 686 LINE",
"250 212 LINE SMOOTH",
"240 152 OFFCURVE",
"233 90 OFFCURVE",
"233 90 CURVE",
"229 90 LINE",
"229 90 OFFCURVE",
"217 172 OFFCURVE",
"208 212 CURVE SMOOTH",
"103 686 LINE",
"10 686 LINE",
"169 0 LINE"
);
},
{
closed = 1;
nodes = (
"447 751 LINE",
"361 883 LINE",
"271 883 LINE",
"270 880 LINE",
"378 751 LINE"
);
}
);
};
components = (
{
name = W;
},
{
name = gravecomb.case;
transform = "{1, 0, 0, 1, 263, 160}";
}
);
layerId = UUID0;
width = 774;
},
{
background = {
paths = (
{
closed = 1;
nodes = (
"278 0 LINE",
"370 437 LINE SMOOTH",
"376 466 OFFCURVE",
"384 534 OFFCURVE",
"384 534 CURVE",
"388 534 LINE",
"388 534 OFFCURVE",
"394 472 OFFCURVE",
"402 437 CURVE SMOOTH",
"495 0 LINE",
"624 0 LINE",
"773 686 LINE",
"663 686 LINE",
"579 264 LINE SMOOTH",
"572 230 OFFCURVE",
"566 168 OFFCURVE",
"566 168 CURVE",
"562 168 LINE",
"562 168 OFFCURVE",
"554 237 OFFCURVE",
"549 264 CURVE SMOOTH",
"467 686 LINE",
"322 686 LINE",
"239 264 LINE SMOOTH",
"233 235 OFFCURVE",
"226 168 OFFCURVE",
"226 168 CURVE",
"222 168 LINE",
"222 168 OFFCURVE",
"215 234 OFFCURVE",
"209 264 CURVE SMOOTH",
"127 686 LINE",
"0 686 LINE",
"149 0 LINE"
);
},
{
closed = 1;
nodes = (
"456 751 LINE",
"370 883 LINE",
"250 883 LINE",
"249 880 LINE",
"357 751 LINE"
);
}
);
};
components = (
{
name = W;
},
{
name = gravecomb.case;
transform = "{1, 0, 0, 1, 249, 160}";
}
);
layerId = "31F25340-C351-400F-9C98-C04A412D1947";
width = 774;
}
);
leftKerningGroup = W;
rightKerningGroup = W;
unicode = 1E80;
},
